{"NOTE_OFF_100": 0, "NOTE_OFF_100 VELOCITY_64 TIME_0": 1, "NOTE_OFF_100 VELOCITY_64 TIME_4": 2, "NOTE_OFF_101": 3, "NOTE_OFF_101 VELOCITY_64 TIME_0": 4, "NOTE_OFF_102": 5, "NOTE_OFF_102 VELOCITY_64 TIME_0": 6, "NOTE_OFF_103": 7, "NOTE_OFF_103 VELOCITY_64 TIME_0": 8, "NOTE_OFF_103 VELOCITY_64 TIME_1": 9, "NOTE_OFF_43": 10, "NOTE_OFF_43 VELOCITY_64 TIME_1": 11, "NOTE_OFF_44": 12, "NOTE_OFF_44 VELOCITY_64 TIME_1": 13, "NOTE_OFF_44 VELOCITY_64 TIME_2": 14, "NOTE_OFF_44 VELOCITY_64 TIME_3": 15, "NOTE_OFF_44 VELOCITY_64 TIME_4": 16, "NOTE_OFF_45": 17, "NOTE_OFF_45 VELOCITY_64 TIME_0": 18, "NOTE_OFF_45 VELOCITY_64 TIME_1": 19, "NOTE_OFF_45 VELOCITY_64 TIME_2": 20, "NOTE_OFF_45 VELOCITY_64 TIME_3": 21, "NOTE_OFF_45 VELOCITY_64 TIME_4": 22, "NOTE_OFF_47": 23, "NOTE_OFF_47 VELOCITY_64 TIME_1": 24, "NOTE_OFF_47 VELOCITY_64 TIME_2": 25, "NOTE_OFF_48": 26, "NOTE_OFF_48 VELOCITY_64 TIME_0": 27, "NOTE_OFF_48 VELOCITY_64 TIME_1": 28, "NOTE_OFF_48 VELOCITY_64 TIME_15": 29, "NOTE_OFF_48 VELOCITY_64 TIME_2": 30, "NOTE_OFF_48 VELOCITY_64 TIME_3": 31, "NOTE_OFF_48 VELOCITY_64 TIME_4": 32, "NOTE_OFF_48 VELOCITY_64 TIME_5": 33, "NOTE_OFF_48 VELOCITY_64 TIME_6": 34, "NOTE_OFF_49": 35, "NOTE_OFF_49 VELOCITY_64 TIME_0": 36, "NOTE_OFF_49 VELOCITY_64 TIME_1": 37, "NOTE_OFF_49 VELOCITY_64 TIME_2": 38, "NOTE_OFF_49 VELOCITY_64 TIME_3": 39, "NOTE_OFF_49 VELOCITY_64 TIME_4": 40, "NOTE_OFF_50": 41, "NOTE_OFF_50 VELOCITY_64 TIME_0": 42, "NOTE_OFF_50 VELOCITY_64 TIME_1": 43, "NOTE_OFF_50 VELOCITY_64 TIME_10": 44, "NOTE_OFF_50 VELOCITY_64 TIME_11": 45, "NOTE_OFF_50 VELOCITY_64 TIME_12": 46, "NOTE_OFF_50 VELOCITY_64 TIME_17": 47, "NOTE_OFF_50 VELOCITY_64 TIME_2": 48, "NOTE_OFF_50 VELOCITY_64 TIME_20": 49, "NOTE_OFF_50 VELOCITY_64 TIME_21": 50, "NOTE_OFF_50 VELOCITY_64 TIME_23": 51, "NOTE_OFF_50 VELOCITY_64 TIME_26": 52, "NOTE_OFF_50 VELOCITY_64 TIME_3": 53, "NOTE_OFF_50 VELOCITY_64 TIME_4": 54, "NOTE_OFF_50 VELOCITY_64 TIME_5": 55, "NOTE_OFF_50 VELOCITY_64 TIME_6": 56, "NOTE_OFF_50 VELOCITY_64 TIME_7": 57, "NOTE_OFF_50 VELOCITY_64 TIME_8": 58, "NOTE_OFF_50 VELOCITY_64 TIME_9": 59, "NOTE_OFF_51": 60, "NOTE_OFF_51 VELOCITY_64 TIME_0": 61, "NOTE_OFF_51 VELOCITY_64 TIME_1": 62, "NOTE_OFF_51 VELOCITY_64 TIME_2": 63, "NOTE_OFF_51 VELOCITY_64 TIME_3": 64, "NOTE_OFF_51 VELOCITY_64 TIME_4": 65, "NOTE_OFF_52": 66, "NOTE_OFF_52 VELOCITY_64 TIME_0": 67, "NOTE_OFF_52 VELOCITY_64 TIME_1": 68, "NOTE_OFF_52 VELOCITY_64 TIME_10": 69, "NOTE_OFF_52 VELOCITY_64 TIME_14": 70, "NOTE_OFF_52 VELOCITY_64 TIME_17": 71, "NOTE_OFF_52 VELOCITY_64 TIME_2": 72, "NOTE_OFF_52 VELOCITY_64 TIME_3": 73, "NOTE_OFF_52 VELOCITY_64 TIME_4": 74, "NOTE_OFF_52 VELOCITY_64 TIME_5": 75, "NOTE_OFF_52 VELOCITY_64 TIME_6": 76, "NOTE_OFF_52 VELOCITY_64 TIME_7": 77, "NOTE_OFF_52 VELOCITY_64 TIME_8": 78, "NOTE_OFF_52 VELOCITY_64 TIME_9": 79, "NOTE_OFF_53": 80, "NOTE_OFF_53 VELOCITY_64 TIME_0": 81, "NOTE_OFF_53 VELOCITY_64 TIME_1": 82, "NOTE_OFF_53 VELOCITY_64 TIME_2": 83, "NOTE_OFF_53 VELOCITY_64 TIME_3": 84, "NOTE_OFF_53 VELOCITY_64 TIME_4": 85, "NOTE_OFF_53 VELOCITY_64 TIME_5": 86, "NOTE_OFF_53 VELOCITY_64 TIME_6": 87, "NOTE_OFF_53 VELOCITY_64 TIME_7": 88, "NOTE_OFF_53 VELOCITY_64 TIME_9": 89, "NOTE_OFF_54": 90, "NOTE_OFF_54 VELOCITY_64 TIME_0": 91, "NOTE_OFF_54 VELOCITY_64 TIME_1": 92, "NOTE_OFF_54 VELOCITY_64 TIME_2": 93, "NOTE_OFF_54 VELOCITY_64 TIME_3": 94, "NOTE_OFF_55": 95, "NOTE_OFF_55 VELOCITY_64 TIME_0": 96, "NOTE_OFF_55 VELOCITY_64 TIME_1": 97, "NOTE_OFF_55 VELOCITY_64 TIME_2": 98, "NOTE_OFF_55 VELOCITY_64 TIME_3": 99, "NOTE_OFF_55 VELOCITY_64 TIME_4": 100, "NOTE_OFF_55 VELOCITY_64 TIME_5": 101, "NOTE_OFF_56": 102, "NOTE_OFF_56 VELOCITY_64 TIME_0": 103, "NOTE_OFF_56 VELOCITY_64 TIME_1": 104, "NOTE_OFF_56 VELOCITY_64 TIME_2": 105, "NOTE_OFF_56 VELOCITY_64 TIME_3": 106, "NOTE_OFF_56 VELOCITY_64 TIME_4": 107, "NOTE_OFF_56 VELOCITY_64 TIME_7": 108, "NOTE_OFF_57": 109, "NOTE_OFF_57 VELOCITY_64 TIME_0": 110, "NOTE_OFF_57 VELOCITY_64 TIME_1": 111, "NOTE_OFF_57 VELOCITY_64 TIME_10": 112, "NOTE_OFF_57 VELOCITY_64 TIME_17": 113, "NOTE_OFF_57 VELOCITY_64 TIME_18": 114, "NOTE_OFF_57 VELOCITY_64 TIME_2": 115, "NOTE_OFF_57 VELOCITY_64 TIME_3": 116, "NOTE_OFF_57 VELOCITY_64 TIME_4": 117, "NOTE_OFF_57 VELOCITY_64 TIME_5": 118, "NOTE_OFF_57 VELOCITY_64 TIME_6": 119, "NOTE_OFF_57 VELOCITY_64 TIME_7": 120, "NOTE_OFF_58": 121, "NOTE_OFF_58 VELOCITY_64 TIME_0": 122, "NOTE_OFF_58 VELOCITY_64 TIME_1": 123, "NOTE_OFF_58 VELOCITY_64 TIME_2": 124, "NOTE_OFF_58 VELOCITY_64 TIME_3": 125, "NOTE_OFF_59": 126, "NOTE_OFF_59 VELOCITY_64 TIME_0": 127, "NOTE_OFF_59 VELOCITY_64 TIME_1": 128, "NOTE_OFF_59 VELOCITY_64 TIME_2": 129, "NOTE_OFF_59 VELOCITY_64 TIME_3": 130, "NOTE_OFF_60": 131, "NOTE_OFF_60 VELOCITY_64 TIME_0": 132, "NOTE_OFF_60 VELOCITY_64 TIME_1": 133, "NOTE_OFF_60 VELOCITY_64 TIME_2": 134, "NOTE_OFF_60 VELOCITY_64 TIME_3": 135, "NOTE_OFF_60 VELOCITY_64 TIME_4": 136, "NOTE_OFF_60 VELOCITY_64 TIME_5": 137, "NOTE_OFF_61": 138, "NOTE_OFF_61 VELOCITY_64 TIME_0": 139, "NOTE_OFF_61 VELOCITY_64 TIME_1": 140, "NOTE_OFF_61 VELOCITY_64 TIME_2": 141, "NOTE_OFF_61 VELOCITY_64 TIME_3": 142, "NOTE_OFF_61 VELOCITY_64 TIME_4": 143, "NOTE_OFF_62": 144, "NOTE_OFF_62 VELOCITY_64 TIME_0": 145, "NOTE_OFF_62 VELOCITY_64 TIME_1": 146, "NOTE_OFF_62 VELOCITY_64 TIME_15": 147, "NOTE_OFF_62 VELOCITY_64 TIME_2": 148, "NOTE_OFF_62 VELOCITY_64 TIME_21": 149, "NOTE_OFF_62 VELOCITY_64 TIME_3": 150, "NOTE_OFF_62 VELOCITY_64 TIME_36": 151, "NOTE_OFF_62 VELOCITY_64 TIME_4": 152, "NOTE_OFF_62 VELOCITY_64 TIME_5": 153, "NOTE_OFF_62 VELOCITY_64 TIME_6": 154, "NOTE_OFF_62 VELOCITY_64 TIME_8": 155, "NOTE_OFF_62 VELOCITY_64 TIME_9": 156, "NOTE_OFF_63": 157, "NOTE_OFF_63 VELOCITY_64 TIME_0": 158, "NOTE_OFF_63 VELOCITY_64 TIME_1": 159, "NOTE_OFF_63 VELOCITY_64 TIME_2": 160, "NOTE_OFF_63 VELOCITY_64 TIME_3": 161, "NOTE_OFF_64": 162, "NOTE_OFF_64 VELOCITY_64 TIME_0": 163, "NOTE_OFF_64 VELOCITY_64 TIME_1": 164, "NOTE_OFF_64 VELOCITY_64 TIME_2": 165, "NOTE_OFF_64 VELOCITY_64 TIME_3": 166, "NOTE_OFF_64 VELOCITY_64 TIME_4": 167, "NOTE_OFF_64 VELOCITY_64 TIME_5": 168, "NOTE_OFF_64 VELOCITY_64 TIME_6": 169, "NOTE_OFF_64 VELOCITY_64 TIME_7": 170, "NOTE_OFF_65": 171, "NOTE_OFF_65 VELOCITY_64 TIME_0": 172, "NOTE_OFF_65 VELOCITY_64 TIME_1": 173, "NOTE_OFF_65 VELOCITY_64 TIME_2": 174, "NOTE_OFF_65 VELOCITY_64 TIME_3": 175, "NOTE_OFF_65 VELOCITY_64 TIME_4": 176, "NOTE_OFF_66": 177, "NOTE_OFF_66 VELOCITY_64 TIME_0": 178, "NOTE_OFF_66 VELOCITY_64 TIME_1": 179, "NOTE_OFF_66 VELOCITY_64 TIME_2": 180, "NOTE_OFF_66 VELOCITY_64 TIME_3": 181, "NOTE_OFF_66 VELOCITY_64 TIME_6": 182, "NOTE_OFF_67": 183, "NOTE_OFF_67 VELOCITY_64 TIME_0": 184, "NOTE_OFF_67 VELOCITY_64 TIME_1": 185, "NOTE_OFF_67 VELOCITY_64 TIME_2": 186, "NOTE_OFF_67 VELOCITY_64 TIME_3": 187, "NOTE_OFF_67 VELOCITY_64 TIME_4": 188, "NOTE_OFF_68": 189, "NOTE_OFF_68 VELOCITY_64 TIME_0": 190, "NOTE_OFF_68 VELOCITY_64 TIME_1": 191, "NOTE_OFF_68 VELOCITY_64 TIME_2": 192, "NOTE_OFF_68 VELOCITY_64 TIME_3": 193, "NOTE_OFF_68 VELOCITY_64 TIME_4": 194, "NOTE_OFF_69": 195, "NOTE_OFF_69 VELOCITY_64 TIME_0": 196, "NOTE_OFF_69 VELOCITY_64 TIME_1": 197, "NOTE_OFF_69 VELOCITY_64 TIME_10": 198, "NOTE_OFF_69 VELOCITY_64 TIME_12": 199, "NOTE_OFF_69 VELOCITY_64 TIME_19": 200, "NOTE_OFF_69 VELOCITY_64 TIME_2": 201, "NOTE_OFF_69 VELOCITY_64 TIME_3": 202, "NOTE_OFF_69 VELOCITY_64 TIME_4": 203, "NOTE_OFF_69 VELOCITY_64 TIME_5": 204, "NOTE_OFF_69 VELOCITY_64 TIME_6": 205, "NOTE_OFF_69 VELOCITY_64 TIME_7": 206, "NOTE_OFF_69 VELOCITY_64 TIME_8": 207, "NOTE_OFF_69 VELOCITY_64 TIME_9": 208, "NOTE_OFF_70": 209, "NOTE_OFF_70 VELOCITY_64 TIME_0": 210, "NOTE_OFF_70 VELOCITY_64 TIME_1": 211, "NOTE_OFF_70 VELOCITY_64 TIME_2": 212, "NOTE_OFF_70 VELOCITY_64 TIME_3": 213, "NOTE_OFF_70 VELOCITY_64 TIME_4": 214, "NOTE_OFF_70 VELOCITY_64 TIME_5": 215, "NOTE_OFF_71": 216, "NOTE_OFF_71 VELOCITY_64 TIME_0": 217, "NOTE_OFF_71 VELOCITY_64 TIME_1": 218, "NOTE_OFF_71 VELOCITY_64 TIME_2": 219, "NOTE_OFF_71 VELOCITY_64 TIME_3": 220, "NOTE_OFF_71 VELOCITY_64 TIME_4": 221, "NOTE_OFF_71 VELOCITY_64 TIME_5": 222, "NOTE_OFF_71 VELOCITY_64 TIME_6": 223, "NOTE_OFF_71 VELOCITY_64 TIME_8": 224, "NOTE_OFF_72": 225, "NOTE_OFF_72 VELOCITY_64 TIME_0": 226, "NOTE_OFF_72 VELOCITY_64 TIME_1": 227, "NOTE_OFF_72 VELOCITY_64 TIME_2": 228, "NOTE_OFF_72 VELOCITY_64 TIME_3": 229, "NOTE_OFF_72 VELOCITY_64 TIME_5": 230, "NOTE_OFF_72 VELOCITY_64 TIME_6": 231, "NOTE_OFF_72 VELOCITY_64 TIME_8": 232, "NOTE_OFF_73": 233, "NOTE_OFF_73 VELOCITY_64 TIME_0": 234, "NOTE_OFF_73 VELOCITY_64 TIME_1": 235, "NOTE_OFF_73 VELOCITY_64 TIME_2": 236, "NOTE_OFF_73 VELOCITY_64 TIME_3": 237, "NOTE_OFF_74": 238, "NOTE_OFF_74 VELOCITY_64 TIME_0": 239, "NOTE_OFF_74 VELOCITY_64 TIME_1": 240, "NOTE_OFF_74 VELOCITY_64 TIME_2": 241, "NOTE_OFF_74 VELOCITY_64 TIME_3": 242, "NOTE_OFF_74 VELOCITY_64 TIME_4": 243, "NOTE_OFF_74 VELOCITY_64 TIME_5": 244, "NOTE_OFF_75": 245, "NOTE_OFF_75 VELOCITY_64 TIME_0": 246, "NOTE_OFF_75 VELOCITY_64 TIME_1": 247, "NOTE_OFF_75 VELOCITY_64 TIME_2": 248, "NOTE_OFF_75 VELOCITY_64 TIME_3": 249, "NOTE_OFF_76": 250, "NOTE_OFF_76 VELOCITY_64 TIME_0": 251, "NOTE_OFF_76 VELOCITY_64 TIME_1": 252, "NOTE_OFF_76 VELOCITY_64 TIME_15": 253, "NOTE_OFF_76 VELOCITY_64 TIME_2": 254, "NOTE_OFF_76 VELOCITY_64 TIME_3": 255, "NOTE_OFF_76 VELOCITY_64 TIME_4": 256, "NOTE_OFF_76 VELOCITY_64 TIME_5": 257, "NOTE_OFF_76 VELOCITY_64 TIME_6": 258, "NOTE_OFF_76 VELOCITY_64 TIME_8": 259, "NOTE_OFF_77": 260, "NOTE_OFF_77 VELOCITY_64 TIME_0": 261, "NOTE_OFF_77 VELOCITY_64 TIME_1": 262, "NOTE_OFF_77 VELOCITY_64 TIME_2": 263, "NOTE_OFF_77 VELOCITY_64 TIME_3": 264, "NOTE_OFF_78": 265, "NOTE_OFF_78 VELOCITY_64 TIME_0": 266, "NOTE_OFF_78 VELOCITY_64 TIME_1": 267, "NOTE_OFF_78 VELOCITY_64 TIME_2": 268, "NOTE_OFF_78 VELOCITY_64 TIME_3": 269, "NOTE_OFF_78 VELOCITY_64 TIME_4": 270, "NOTE_OFF_78 VELOCITY_64 TIME_5": 271, "NOTE_OFF_79": 272, "NOTE_OFF_79 VELOCITY_64 TIME_0": 273, "NOTE_OFF_79 VELOCITY_64 TIME_1": 274, "NOTE_OFF_79 VELOCITY_64 TIME_2": 275, "NOTE_OFF_79 VELOCITY_64 TIME_3": 276, "NOTE_OFF_79 VELOCITY_64 TIME_4": 277, "NOTE_OFF_80": 278, "NOTE_OFF_80 VELOCITY_64 TIME_0": 279, "NOTE_OFF_80 VELOCITY_64 TIME_1": 280, "NOTE_OFF_80 VELOCITY_64 TIME_2": 281, "NOTE_OFF_80 VELOCITY_64 TIME_3": 282, "NOTE_OFF_80 VELOCITY_64 TIME_5": 283, "NOTE_OFF_81": 284, "NOTE_OFF_81 VELOCITY_64 TIME_0": 285, "NOTE_OFF_81 VELOCITY_64 TIME_1": 286, "NOTE_OFF_81 VELOCITY_64 TIME_2": 287, "NOTE_OFF_81 VELOCITY_64 TIME_3": 288, "NOTE_OFF_81 VELOCITY_64 TIME_4": 289, "NOTE_OFF_82": 290, "NOTE_OFF_82 VELOCITY_64 TIME_0": 291, "NOTE_OFF_82 VELOCITY_64 TIME_1": 292, "NOTE_OFF_82 VELOCITY_64 TIME_2": 293, "NOTE_OFF_82 VELOCITY_64 TIME_3": 294, "NOTE_OFF_83": 295, "NOTE_OFF_83 VELOCITY_64 TIME_0": 296, "NOTE_OFF_83 VELOCITY_64 TIME_1": 297, "NOTE_OFF_83 VELOCITY_64 TIME_2": 298, "NOTE_OFF_83 VELOCITY_64 TIME_3": 299, "NOTE_OFF_83 VELOCITY_64 TIME_4": 300, "NOTE_OFF_83 VELOCITY_64 TIME_8": 301, "NOTE_OFF_84": 302, "NOTE_OFF_84 VELOCITY_64 TIME_0": 303, "NOTE_OFF_84 VELOCITY_64 TIME_1": 304, "NOTE_OFF_84 VELOCITY_64 TIME_2": 305, "NOTE_OFF_84 VELOCITY_64 TIME_3": 306, "NOTE_OFF_85": 307, "NOTE_OFF_85 VELOCITY_64 TIME_0": 308, "NOTE_OFF_85 VELOCITY_64 TIME_1": 309, "NOTE_OFF_85 VELOCITY_64 TIME_2": 310, "NOTE_OFF_85 VELOCITY_64 TIME_3": 311, "NOTE_OFF_85 VELOCITY_64 TIME_4": 312, "NOTE_OFF_86": 313, "NOTE_OFF_86 VELOCITY_64 TIME_0": 314, "NOTE_OFF_86 VELOCITY_64 TIME_1": 315, "NOTE_OFF_86 VELOCITY_64 TIME_2": 316, "NOTE_OFF_87": 317, "NOTE_OFF_87 VELOCITY_64 TIME_0": 318, "NOTE_OFF_87 VELOCITY_64 TIME_1": 319, "NOTE_OFF_87 VELOCITY_64 TIME_3": 320, "NOTE_OFF_88": 321, "NOTE_OFF_88 VELOCITY_64 TIME_0": 322, "NOTE_OFF_88 VELOCITY_64 TIME_1": 323, "NOTE_OFF_89": 324, "NOTE_OFF_89 VELOCITY_64 TIME_0": 325, "NOTE_OFF_89 VELOCITY_64 TIME_1": 326, "NOTE_OFF_89 VELOCITY_64 TIME_2": 327, "NOTE_OFF_90": 328, "NOTE_OFF_90 VELOCITY_64 TIME_0": 329, "NOTE_OFF_90 VELOCITY_64 TIME_1": 330, "NOTE_OFF_90 VELOCITY_64 TIME_2": 331, "NOTE_OFF_90 VELOCITY_64 TIME_3": 332, "NOTE_OFF_90 VELOCITY_64 TIME_4": 333, "NOTE_OFF_91": 334, "NOTE_OFF_91 VELOCITY_64 TIME_0": 335, "NOTE_OFF_91 VELOCITY_64 TIME_1": 336, "NOTE_OFF_91 VELOCITY_64 TIME_2": 337, "NOTE_OFF_91 VELOCITY_64 TIME_3": 338, "NOTE_OFF_92": 339, "NOTE_OFF_92 VELOCITY_64 TIME_0": 340, "NOTE_OFF_92 VELOCITY_64 TIME_2": 341, "NOTE_OFF_93": 342, "NOTE_OFF_93 VELOCITY_64 TIME_0": 343, "NOTE_OFF_93 VELOCITY_64 TIME_5": 344, "NOTE_OFF_94": 345, "NOTE_OFF_94 VELOCITY_64 TIME_0": 346, "NOTE_OFF_94 VELOCITY_64 TIME_2": 347, "NOTE_OFF_95": 348, "NOTE_OFF_95 VELOCITY_64 TIME_0": 349, "NOTE_OFF_95 VELOCITY_64 TIME_1": 350, "NOTE_OFF_97": 351, "NOTE_OFF_97 VELOCITY_64 TIME_0": 352, "NOTE_OFF_97 VELOCITY_64 TIME_1": 353, "NOTE_OFF_97 VELOCITY_64 TIME_5": 354, "NOTE_OFF_98": 355, "NOTE_OFF_98 VELOCITY_64 TIME_0": 356, "NOTE_OFF_99": 357, "NOTE_OFF_99 VELOCITY_64 TIME_0": 358, "NOTE_OFF_99 VELOCITY_64 TIME_1": 359, "NOTE_OFF_99 VELOCITY_64 TIME_2": 360, "NOTE_ON_100": 361, "NOTE_ON_100 VELOCITY_10 TIME_0": 362, "NOTE_ON_100 VELOCITY_11 TIME_0": 363, "NOTE_ON_101": 364, "NOTE_ON_101 VELOCITY_11 TIME_0": 365, "NOTE_ON_102": 366, "NOTE_ON_102 VELOCITY_11 TIME_0": 367, "NOTE_ON_102 VELOCITY_11 TIME_1": 368, "NOTE_ON_102 VELOCITY_13 TIME_0": 369, "NOTE_ON_103": 370, "NOTE_ON_103 VELOCITY_11 TIME_0": 371, "NOTE_ON_103 VELOCITY_15 TIME_0": 372, "NOTE_ON_103 VELOCITY_16 TIME_0": 373, "NOTE_ON_43": 374, "NOTE_ON_43 VELOCITY_15 TIME_1": 375, "NOTE_ON_43 VELOCITY_17 TIME_2": 376, "NOTE_ON_44": 377, "NOTE_ON_44 VELOCITY_12 TIME_3": 378, "NOTE_ON_44 VELOCITY_13 TIME_5": 379, "NOTE_ON_44 VELOCITY_16 TIME_1": 380, "NOTE_ON_44 VELOCITY_18 TIME_1": 381, "NOTE_ON_44 VELOCITY_22 TIME_3": 382, "NOTE_ON_44 VELOCITY_9 TIME_2": 383, "NOTE_ON_45": 384, "NOTE_ON_45 VELOCITY_11 TIME_1": 385, "NOTE_ON_45 VELOCITY_12 TIME_1": 386, "NOTE_ON_45 VELOCITY_14 TIME_1": 387, "NOTE_ON_45 VELOCITY_15 TIME_2": 388, "NOTE_ON_45 VELOCITY_16 TIME_1": 389, "NOTE_ON_45 VELOCITY_16 TIME_2": 390, "NOTE_ON_45 VELOCITY_17 TIME_1": 391, "NOTE_ON_45 VELOCITY_19 TIME_1": 392, "NOTE_ON_45 VELOCITY_20 TIME_0": 393, "NOTE_ON_45 VELOCITY_21 TIME_0": 394, "NOTE_ON_45 VELOCITY_21 TIME_1": 395, "NOTE_ON_45 VELOCITY_23 TIME_0": 396, "NOTE_ON_45 VELOCITY_27 TIME_1": 397, "NOTE_ON_47": 398, "NOTE_ON_47 VELOCITY_13 TIME_1": 399, "NOTE_ON_47 VELOCITY_17 TIME_1": 400, "NOTE_ON_47 VELOCITY_19 TIME_2": 401, "NOTE_ON_47 VELOCITY_21 TIME_1": 402, "NOTE_ON_47 VELOCITY_32 TIME_1": 403, "NOTE_ON_48": 404, "NOTE_ON_48 VELOCITY_11 TIME_1": 405, "NOTE_ON_48 VELOCITY_12 TIME_1": 406, "NOTE_ON_48 VELOCITY_13 TIME_1": 407, "NOTE_ON_48 VELOCITY_13 TIME_2": 408, "NOTE_ON_48 VELOCITY_14 TIME_1": 409, "NOTE_ON_48 VELOCITY_15 TIME_1": 410, "NOTE_ON_48 VELOCITY_16 TIME_1": 411, "NOTE_ON_48 VELOCITY_16 TIME_2": 412, "NOTE_ON_48 VELOCITY_17 TIME_1": 413, "NOTE_ON_48 VELOCITY_17 TIME_14": 414, "NOTE_ON_48 VELOCITY_17 TIME_4": 415, "NOTE_ON_48 VELOCITY_17 TIME_5": 416, "NOTE_ON_48 VELOCITY_18 TIME_1": 417, "NOTE_ON_48 VELOCITY_18 TIME_3": 418, "NOTE_ON_48 VELOCITY_18 TIME_7": 419, "NOTE_ON_48 VELOCITY_19 TIME_1": 420, "NOTE_ON_48 VELOCITY_19 TIME_2": 421, "NOTE_ON_48 VELOCITY_20 TIME_1": 422, "NOTE_ON_48 VELOCITY_20 TIME_2": 423, "NOTE_ON_48 VELOCITY_20 TIME_3": 424, "NOTE_ON_48 VELOCITY_21 TIME_1": 425, "NOTE_ON_48 VELOCITY_22 TIME_1": 426, "NOTE_ON_48 VELOCITY_22 TIME_2": 427, "NOTE_ON_48 VELOCITY_23 TIME_1": 428, "NOTE_ON_48 VELOCITY_23 TIME_2": 429, "NOTE_ON_48 VELOCITY_23 TIME_3": 430, "NOTE_ON_48 VELOCITY_24 TIME_1": 431, "NOTE_ON_48 VELOCITY_24 TIME_15": 432, "NOTE_ON_48 VELOCITY_24 TIME_2": 433, "NOTE_ON_48 VELOCITY_25 TIME_1": 434, "NOTE_ON_48 VELOCITY_25 TIME_2": 435, "NOTE_ON_48 VELOCITY_26 TIME_0": 436, "NOTE_ON_48 VELOCITY_26 TIME_1": 437, "NOTE_ON_48 VELOCITY_26 TIME_2": 438, "NOTE_ON_48 VELOCITY_27 TIME_1": 439, "NOTE_ON_48 VELOCITY_27 TIME_2": 440, "NOTE_ON_48 VELOCITY_28 TIME_1": 441, "NOTE_ON_48 VELOCITY_28 TIME_2": 442, "NOTE_ON_48 VELOCITY_29 TIME_1": 443, "NOTE_ON_48 VELOCITY_29 TIME_2": 444, "NOTE_ON_48 VELOCITY_30 TIME_1": 445, "NOTE_ON_48 VELOCITY_30 TIME_2": 446, "NOTE_ON_48 VELOCITY_31 TIME_1": 447, "NOTE_ON_48 VELOCITY_31 TIME_2": 448, "NOTE_ON_48 VELOCITY_31 TIME_3": 449, "NOTE_ON_48 VELOCITY_32 TIME_1": 450, "NOTE_ON_48 VELOCITY_32 TIME_2": 451, "NOTE_ON_48 VELOCITY_33 TIME_1": 452, "NOTE_ON_48 VELOCITY_34 TIME_1": 453, "NOTE_ON_48 VELOCITY_35 TIME_1": 454, "NOTE_ON_48 VELOCITY_36 TIME_1": 455, "NOTE_ON_48 VELOCITY_38 TIME_1": 456, "NOTE_ON_48 VELOCITY_40 TIME_1": 457, "NOTE_ON_48 VELOCITY_41 TIME_3": 458, "NOTE_ON_48 VELOCITY_9 TIME_4": 459, "NOTE_ON_49": 460, "NOTE_ON_49 VELOCITY_10 TIME_6": 461, "NOTE_ON_49 VELOCITY_10 TIME_9": 462, "NOTE_ON_49 VELOCITY_12 TIME_3": 463, "NOTE_ON_49 VELOCITY_13 TIME_1": 464, "NOTE_ON_49 VELOCITY_14 TIME_1": 465, "NOTE_ON_49 VELOCITY_14 TIME_2": 466, "NOTE_ON_49 VELOCITY_14 TIME_4": 467, "NOTE_ON_49 VELOCITY_15 TIME_1": 468, "NOTE_ON_49 VELOCITY_15 TIME_2": 469, "NOTE_ON_49 VELOCITY_15 TIME_5": 470, "NOTE_ON_49 VELOCITY_16 TIME_1": 471, "NOTE_ON_49 VELOCITY_16 TIME_2": 472, "NOTE_ON_49 VELOCITY_17 TIME_1": 473, "NOTE_ON_49 VELOCITY_17 TIME_2": 474, "NOTE_ON_49 VELOCITY_18 TIME_0": 475, "NOTE_ON_49 VELOCITY_18 TIME_1": 476, "NOTE_ON_49 VELOCITY_18 TIME_2": 477, "NOTE_ON_49 VELOCITY_19 TIME_1": 478, "NOTE_ON_49 VELOCITY_19 TIME_3": 479, "NOTE_ON_49 VELOCITY_19 TIME_5": 480, "NOTE_ON_49 VELOCITY_20 TIME_0": 481, "NOTE_ON_49 VELOCITY_20 TIME_1": 482, "NOTE_ON_49 VELOCITY_20 TIME_3": 483, "NOTE_ON_49 VELOCITY_21 TIME_1": 484, "NOTE_ON_49 VELOCITY_21 TIME_2": 485, "NOTE_ON_49 VELOCITY_22 TIME_0": 486, "NOTE_ON_49 VELOCITY_22 TIME_1": 487, "NOTE_ON_49 VELOCITY_22 TIME_2": 488, "NOTE_ON_49 VELOCITY_22 TIME_3": 489, "NOTE_ON_49 VELOCITY_23 TIME_1": 490, "NOTE_ON_49 VELOCITY_23 TIME_2": 491, "NOTE_ON_49 VELOCITY_23 TIME_3": 492, "NOTE_ON_49 VELOCITY_23 TIME_4": 493, "NOTE_ON_49 VELOCITY_23 TIME_5": 494, "NOTE_ON_49 VELOCITY_24 TIME_0": 495, "NOTE_ON_49 VELOCITY_24 TIME_1": 496, "NOTE_ON_49 VELOCITY_24 TIME_2": 497, "NOTE_ON_49 VELOCITY_24 TIME_5": 498, "NOTE_ON_49 VELOCITY_25 TIME_1": 499, "NOTE_ON_49 VELOCITY_25 TIME_2": 500, "NOTE_ON_49 VELOCITY_25 TIME_3": 501, "NOTE_ON_49 VELOCITY_25 TIME_5": 502, "NOTE_ON_49 VELOCITY_26 TIME_1": 503, "NOTE_ON_49 VELOCITY_26 TIME_2": 504, "NOTE_ON_49 VELOCITY_27 TIME_1": 505, "NOTE_ON_49 VELOCITY_27 TIME_2": 506, "NOTE_ON_49 VELOCITY_28 TIME_1": 507, "NOTE_ON_49 VELOCITY_28 TIME_2": 508, "NOTE_ON_49 VELOCITY_29 TIME_0": 509, "NOTE_ON_49 VELOCITY_29 TIME_1": 510, "NOTE_ON_49 VELOCITY_29 TIME_2": 511, "NOTE_ON_49 VELOCITY_29 TIME_3": 512, "NOTE_ON_49 VELOCITY_29 TIME_6": 513, "NOTE_ON_49 VELOCITY_30 TIME_0": 514, "NOTE_ON_49 VELOCITY_30 TIME_1": 515, "NOTE_ON_49 VELOCITY_30 TIME_2": 516, "NOTE_ON_49 VELOCITY_31 TIME_0": 517, "NOTE_ON_49 VELOCITY_31 TIME_1": 518, "NOTE_ON_49 VELOCITY_31 TIME_2": 519, "NOTE_ON_49 VELOCITY_31 TIME_3": 520, "NOTE_ON_49 VELOCITY_32 TIME_0": 521, "NOTE_ON_49 VELOCITY_32 TIME_1": 522, "NOTE_ON_49 VELOCITY_32 TIME_2": 523, "NOTE_ON_49 VELOCITY_33 TIME_0": 524, "NOTE_ON_49 VELOCITY_33 TIME_1": 525, "NOTE_ON_49 VELOCITY_33 TIME_2": 526, "NOTE_ON_49 VELOCITY_34 TIME_1": 527, "NOTE_ON_49 VELOCITY_34 TIME_2": 528, "NOTE_ON_49 VELOCITY_34 TIME_4": 529, "NOTE_ON_49 VELOCITY_35 TIME_1": 530, "NOTE_ON_49 VELOCITY_36 TIME_0": 531, "NOTE_ON_49 VELOCITY_36 TIME_1": 532, "NOTE_ON_49 VELOCITY_36 TIME_2": 533, "NOTE_ON_49 VELOCITY_37 TIME_0": 534, "NOTE_ON_49 VELOCITY_37 TIME_1": 535, "NOTE_ON_49 VELOCITY_37 TIME_2": 536, "NOTE_ON_49 VELOCITY_38 TIME_1": 537, "NOTE_ON_49 VELOCITY_38 TIME_2": 538, "NOTE_ON_49 VELOCITY_38 TIME_3": 539, "NOTE_ON_49 VELOCITY_39 TIME_1": 540, "NOTE_ON_49 VELOCITY_39 TIME_3": 541, "NOTE_ON_49 VELOCITY_40 TIME_1": 542, "NOTE_ON_49 VELOCITY_41 TIME_1": 543, "NOTE_ON_49 VELOCITY_42 TIME_2": 544, "NOTE_ON_49 VELOCITY_46 TIME_1": 545, "NOTE_ON_49 VELOCITY_9 TIME_1": 546, "NOTE_ON_50": 547, "NOTE_ON_50 VELOCITY_10 TIME_1": 548, "NOTE_ON_50 VELOCITY_10 TIME_13": 549, "NOTE_ON_50 VELOCITY_10 TIME_26": 550, "NOTE_ON_50 VELOCITY_10 TIME_3": 551, "NOTE_ON_50 VELOCITY_10 TIME_4": 552, "NOTE_ON_50 VELOCITY_10 TIME_5": 553, "NOTE_ON_50 VELOCITY_11 TIME_1": 554, "NOTE_ON_50 VELOCITY_11 TIME_3": 555, "NOTE_ON_50 VELOCITY_11 TIME_4": 556, "NOTE_ON_50 VELOCITY_11 TIME_5": 557, "NOTE_ON_50 VELOCITY_12 TIME_0": 558, "NOTE_ON_50 VELOCITY_12 TIME_1": 559, "NOTE_ON_50 VELOCITY_12 TIME_11": 560, "NOTE_ON_50 VELOCITY_12 TIME_2": 561, "NOTE_ON_50 VELOCITY_12 TIME_3": 562, "NOTE_ON_50 VELOCITY_12 TIME_4": 563, "NOTE_ON_50 VELOCITY_12 TIME_5": 564, "NOTE_ON_50 VELOCITY_13 TIME_1": 565, "NOTE_ON_50 VELOCITY_13 TIME_2": 566, "NOTE_ON_50 VELOCITY_13 TIME_3": 567, "NOTE_ON_50 VELOCITY_14 TIME_1": 568, "NOTE_ON_50 VELOCITY_14 TIME_2": 569, "NOTE_ON_50 VELOCITY_14 TIME_3": 570, "NOTE_ON_50 VELOCITY_14 TIME_5": 571, "NOTE_ON_50 VELOCITY_15 TIME_0": 572, "NOTE_ON_50 VELOCITY_15 TIME_1": 573, "NOTE_ON_50 VELOCITY_15 TIME_2": 574, "NOTE_ON_50 VELOCITY_15 TIME_4": 575, "NOTE_ON_50 VELOCITY_16 TIME_0": 576, "NOTE_ON_50 VELOCITY_16 TIME_1": 577, "NOTE_ON_50 VELOCITY_16 TIME_2": 578, "NOTE_ON_50 VELOCITY_16 TIME_4": 579, "NOTE_ON_50 VELOCITY_17 TIME_0": 580, "NOTE_ON_50 VELOCITY_17 TIME_1": 581, "NOTE_ON_50 VELOCITY_17 TIME_2": 582, "NOTE_ON_50 VELOCITY_17 TIME_3": 583, "NOTE_ON_50 VELOCITY_17 TIME_4": 584, "NOTE_ON_50 VELOCITY_18 TIME_0": 585, "NOTE_ON_50 VELOCITY_18 TIME_1": 586, "NOTE_ON_50 VELOCITY_18 TIME_2": 587, "NOTE_ON_50 VELOCITY_18 TIME_3": 588, "NOTE_ON_50 VELOCITY_19 TIME_0": 589, "NOTE_ON_50 VELOCITY_19 TIME_1": 590, "NOTE_ON_50 VELOCITY_19 TIME_3": 591, "NOTE_ON_50 VELOCITY_19 TIME_5": 592, "NOTE_ON_50 VELOCITY_19 TIME_8": 593, "NOTE_ON_50 VELOCITY_20 TIME_1": 594, "NOTE_ON_50 VELOCITY_20 TIME_2": 595, "NOTE_ON_50 VELOCITY_20 TIME_3": 596, "NOTE_ON_50 VELOCITY_21 TIME_0": 597, "NOTE_ON_50 VELOCITY_21 TIME_1": 598, "NOTE_ON_50 VELOCITY_21 TIME_2": 599, "NOTE_ON_50 VELOCITY_21 TIME_3": 600, "NOTE_ON_50 VELOCITY_22 TIME_0": 601, "NOTE_ON_50 VELOCITY_22 TIME_1": 602, "NOTE_ON_50 VELOCITY_22 TIME_2": 603, "NOTE_ON_50 VELOCITY_22 TIME_3": 604, "NOTE_ON_50 VELOCITY_23 TIME_0": 605, "NOTE_ON_50 VELOCITY_23 TIME_1": 606, "NOTE_ON_50 VELOCITY_23 TIME_2": 607, "NOTE_ON_50 VELOCITY_23 TIME_4": 608, "NOTE_ON_50 VELOCITY_23 TIME_6": 609, "NOTE_ON_50 VELOCITY_24 TIME_0": 610, "NOTE_ON_50 VELOCITY_24 TIME_1": 611, "NOTE_ON_50 VELOCITY_24 TIME_2": 612, "NOTE_ON_50 VELOCITY_24 TIME_3": 613, "NOTE_ON_50 VELOCITY_24 TIME_5": 614, "NOTE_ON_50 VELOCITY_25 TIME_0": 615, "NOTE_ON_50 VELOCITY_25 TIME_1": 616, "NOTE_ON_50 VELOCITY_25 TIME_2": 617, "NOTE_ON_50 VELOCITY_25 TIME_3": 618, "NOTE_ON_50 VELOCITY_25 TIME_4": 619, "NOTE_ON_50 VELOCITY_26 TIME_0": 620, "NOTE_ON_50 VELOCITY_26 TIME_1": 621, "NOTE_ON_50 VELOCITY_26 TIME_2": 622, "NOTE_ON_50 VELOCITY_26 TIME_4": 623, "NOTE_ON_50 VELOCITY_26 TIME_5": 624, "NOTE_ON_50 VELOCITY_27 TIME_0": 625, "NOTE_ON_50 VELOCITY_27 TIME_1": 626, "NOTE_ON_50 VELOCITY_27 TIME_2": 627, "NOTE_ON_50 VELOCITY_27 TIME_4": 628, "NOTE_ON_50 VELOCITY_27 TIME_8": 629, "NOTE_ON_50 VELOCITY_28 TIME_0": 630, "NOTE_ON_50 VELOCITY_28 TIME_1": 631, "NOTE_ON_50 VELOCITY_28 TIME_2": 632, "NOTE_ON_50 VELOCITY_28 TIME_42": 633, "NOTE_ON_50 VELOCITY_29 TIME_0": 634, "NOTE_ON_50 VELOCITY_29 TIME_1": 635, "NOTE_ON_50 VELOCITY_29 TIME_2": 636, "NOTE_ON_50 VELOCITY_30 TIME_0": 637, "NOTE_ON_50 VELOCITY_30 TIME_1": 638, "NOTE_ON_50 VELOCITY_30 TIME_2": 639, "NOTE_ON_50 VELOCITY_30 TIME_3": 640, "NOTE_ON_50 VELOCITY_31 TIME_0": 641, "NOTE_ON_50 VELOCITY_31 TIME_1": 642, "NOTE_ON_50 VELOCITY_31 TIME_2": 643, "NOTE_ON_50 VELOCITY_31 TIME_3": 644, "NOTE_ON_50 VELOCITY_32 TIME_0": 645, "NOTE_ON_50 VELOCITY_32 TIME_1": 646, "NOTE_ON_50 VELOCITY_32 TIME_2": 647, "NOTE_ON_50 VELOCITY_32 TIME_3": 648, "NOTE_ON_50 VELOCITY_32 TIME_4": 649, "NOTE_ON_50 VELOCITY_33 TIME_0": 650, "NOTE_ON_50 VELOCITY_33 TIME_1": 651, "NOTE_ON_50 VELOCITY_33 TIME_2": 652, "NOTE_ON_50 VELOCITY_33 TIME_8": 653, "NOTE_ON_50 VELOCITY_34 TIME_0": 654, "NOTE_ON_50 VELOCITY_34 TIME_1": 655, "NOTE_ON_50 VELOCITY_34 TIME_2": 656, "NOTE_ON_50 VELOCITY_35 TIME_0": 657, "NOTE_ON_50 VELOCITY_35 TIME_1": 658, "NOTE_ON_50 VELOCITY_35 TIME_2": 659, "NOTE_ON_50 VELOCITY_35 TIME_3": 660, "NOTE_ON_50 VELOCITY_36 TIME_0": 661, "NOTE_ON_50 VELOCITY_36 TIME_1": 662, "NOTE_ON_50 VELOCITY_36 TIME_2": 663, "NOTE_ON_50 VELOCITY_37 TIME_0": 664, "NOTE_ON_50 VELOCITY_37 TIME_1": 665, "NOTE_ON_50 VELOCITY_38 TIME_0": 666, "NOTE_ON_50 VELOCITY_38 TIME_1": 667, "NOTE_ON_50 VELOCITY_38 TIME_2": 668, "NOTE_ON_50 VELOCITY_38 TIME_3": 669, "NOTE_ON_50 VELOCITY_39 TIME_0": 670, "NOTE_ON_50 VELOCITY_39 TIME_1": 671, "NOTE_ON_50 VELOCITY_39 TIME_2": 672, "NOTE_ON_50 VELOCITY_40 TIME_1": 673, "NOTE_ON_50 VELOCITY_40 TIME_3": 674, "NOTE_ON_50 VELOCITY_42 TIME_1": 675, "NOTE_ON_50 VELOCITY_43 TIME_0": 676, "NOTE_ON_50 VELOCITY_44 TIME_2": 677, "NOTE_ON_50 VELOCITY_9 TIME_1": 678, "NOTE_ON_50 VELOCITY_9 TIME_5": 679, "NOTE_ON_51": 680, "NOTE_ON_51 VELOCITY_10 TIME_0": 681, "NOTE_ON_51 VELOCITY_14 TIME_0": 682, "NOTE_ON_51 VELOCITY_15 TIME_1": 683, "NOTE_ON_51 VELOCITY_16 TIME_0": 684, "NOTE_ON_51 VELOCITY_16 TIME_1": 685, "NOTE_ON_51 VELOCITY_16 TIME_3": 686, "NOTE_ON_51 VELOCITY_17 TIME_0": 687, "NOTE_ON_51 VELOCITY_17 TIME_1": 688, "NOTE_ON_51 VELOCITY_18 TIME_1": 689, "NOTE_ON_51 VELOCITY_18 TIME_7": 690, "NOTE_ON_51 VELOCITY_19 TIME_0": 691, "NOTE_ON_51 VELOCITY_19 TIME_1": 692, "NOTE_ON_51 VELOCITY_20 TIME_0": 693, "NOTE_ON_51 VELOCITY_20 TIME_1": 694, "NOTE_ON_51 VELOCITY_21 TIME_0": 695, "NOTE_ON_51 VELOCITY_21 TIME_1": 696, "NOTE_ON_51 VELOCITY_22 TIME_1": 697, "NOTE_ON_51 VELOCITY_23 TIME_1": 698, "NOTE_ON_51 VELOCITY_23 TIME_2": 699, "NOTE_ON_51 VELOCITY_24 TIME_1": 700, "NOTE_ON_51 VELOCITY_25 TIME_0": 701, "NOTE_ON_51 VELOCITY_25 TIME_1": 702, "NOTE_ON_51 VELOCITY_25 TIME_2": 703, "NOTE_ON_51 VELOCITY_26 TIME_1": 704, "NOTE_ON_51 VELOCITY_27 TIME_0": 705, "NOTE_ON_51 VELOCITY_27 TIME_1": 706, "NOTE_ON_51 VELOCITY_27 TIME_3": 707, "NOTE_ON_51 VELOCITY_28 TIME_2": 708, "NOTE_ON_51 VELOCITY_29 TIME_0": 709, "NOTE_ON_51 VELOCITY_29 TIME_1": 710, "NOTE_ON_51 VELOCITY_29 TIME_2": 711, "NOTE_ON_51 VELOCITY_29 TIME_4": 712, "NOTE_ON_51 VELOCITY_30 TIME_0": 713, "NOTE_ON_51 VELOCITY_30 TIME_1": 714, "NOTE_ON_51 VELOCITY_30 TIME_2": 715, "NOTE_ON_51 VELOCITY_31 TIME_0": 716, "NOTE_ON_51 VELOCITY_31 TIME_1": 717, "NOTE_ON_51 VELOCITY_31 TIME_2": 718, "NOTE_ON_51 VELOCITY_31 TIME_3": 719, "NOTE_ON_51 VELOCITY_32 TIME_0": 720, "NOTE_ON_51 VELOCITY_32 TIME_1": 721, "NOTE_ON_51 VELOCITY_32 TIME_3": 722, "NOTE_ON_51 VELOCITY_33 TIME_0": 723, "NOTE_ON_51 VELOCITY_33 TIME_1": 724, "NOTE_ON_51 VELOCITY_33 TIME_2": 725, "NOTE_ON_51 VELOCITY_34 TIME_0": 726, "NOTE_ON_51 VELOCITY_34 TIME_1": 727, "NOTE_ON_51 VELOCITY_34 TIME_2": 728, "NOTE_ON_51 VELOCITY_35 TIME_1": 729, "NOTE_ON_51 VELOCITY_35 TIME_2": 730, "NOTE_ON_51 VELOCITY_35 TIME_3": 731, "NOTE_ON_51 VELOCITY_35 TIME_4": 732, "NOTE_ON_51 VELOCITY_36 TIME_0": 733, "NOTE_ON_51 VELOCITY_36 TIME_1": 734, "NOTE_ON_51 VELOCITY_36 TIME_3": 735, "NOTE_ON_51 VELOCITY_37 TIME_1": 736, "NOTE_ON_51 VELOCITY_37 TIME_2": 737, "NOTE_ON_51 VELOCITY_37 TIME_3": 738, "NOTE_ON_51 VELOCITY_38 TIME_1": 739, "NOTE_ON_51 VELOCITY_38 TIME_3": 740, "NOTE_ON_51 VELOCITY_39 TIME_0": 741, "NOTE_ON_51 VELOCITY_39 TIME_4": 742, "NOTE_ON_51 VELOCITY_39 TIME_5": 743, "NOTE_ON_51 VELOCITY_40 TIME_0": 744, "NOTE_ON_51 VELOCITY_40 TIME_1": 745, "NOTE_ON_51 VELOCITY_41 TIME_1": 746, "NOTE_ON_51 VELOCITY_41 TIME_2": 747, "NOTE_ON_51 VELOCITY_42 TIME_1": 748, "NOTE_ON_51 VELOCITY_42 TIME_2": 749, "NOTE_ON_51 VELOCITY_44 TIME_1": 750, "NOTE_ON_51 VELOCITY_44 TIME_2": 751, "NOTE_ON_51 VELOCITY_46 TIME_1": 752, "NOTE_ON_51 VELOCITY_48 TIME_1": 753, "NOTE_ON_51 VELOCITY_49 TIME_1": 754, "NOTE_ON_51 VELOCITY_51 TIME_2": 755, "NOTE_ON_52": 756, "NOTE_ON_52 VELOCITY_10 TIME_0": 757, "NOTE_ON_52 VELOCITY_12 TIME_1": 758, "NOTE_ON_52 VELOCITY_12 TIME_11": 759, "NOTE_ON_52 VELOCITY_12 TIME_2": 760, "NOTE_ON_52 VELOCITY_13 TIME_0": 761, "NOTE_ON_52 VELOCITY_14 TIME_0": 762, "NOTE_ON_52 VELOCITY_14 TIME_41": 763, "NOTE_ON_52 VELOCITY_15 TIME_1": 764, "NOTE_ON_52 VELOCITY_15 TIME_2": 765, "NOTE_ON_52 VELOCITY_16 TIME_1": 766, "NOTE_ON_52 VELOCITY_17 TIME_1": 767, "NOTE_ON_52 VELOCITY_18 TIME_1": 768, "NOTE_ON_52 VELOCITY_19 TIME_1": 769, "NOTE_ON_52 VELOCITY_19 TIME_2": 770, "NOTE_ON_52 VELOCITY_20 TIME_0": 771, "NOTE_ON_52 VELOCITY_20 TIME_2": 772, "NOTE_ON_52 VELOCITY_21 TIME_0": 773, "NOTE_ON_52 VELOCITY_21 TIME_1": 774, "NOTE_ON_52 VELOCITY_21 TIME_2": 775, "NOTE_ON_52 VELOCITY_22 TIME_0": 776, "NOTE_ON_52 VELOCITY_22 TIME_1": 777, "NOTE_ON_52 VELOCITY_23 TIME_0": 778, "NOTE_ON_52 VELOCITY_23 TIME_1": 779, "NOTE_ON_52 VELOCITY_23 TIME_2": 780, "NOTE_ON_52 VELOCITY_23 TIME_9": 781, "NOTE_ON_52 VELOCITY_24 TIME_0": 782, "NOTE_ON_52 VELOCITY_24 TIME_1": 783, "NOTE_ON_52 VELOCITY_25 TIME_0": 784, "NOTE_ON_52 VELOCITY_25 TIME_1": 785, "NOTE_ON_52 VELOCITY_25 TIME_3": 786, "NOTE_ON_52 VELOCITY_26 TIME_0": 787, "NOTE_ON_52 VELOCITY_26 TIME_1": 788, "NOTE_ON_52 VELOCITY_26 TIME_5": 789, "NOTE_ON_52 VELOCITY_27 TIME_0": 790, "NOTE_ON_52 VELOCITY_27 TIME_1": 791, "NOTE_ON_52 VELOCITY_27 TIME_28": 792, "NOTE_ON_52 VELOCITY_27 TIME_3": 793, "NOTE_ON_52 VELOCITY_28 TIME_0": 794, "NOTE_ON_52 VELOCITY_28 TIME_1": 795, "NOTE_ON_52 VELOCITY_28 TIME_17": 796, "NOTE_ON_52 VELOCITY_28 TIME_2": 797, "NOTE_ON_52 VELOCITY_29 TIME_0": 798, "NOTE_ON_52 VELOCITY_29 TIME_1": 799, "NOTE_ON_52 VELOCITY_29 TIME_2": 800, "NOTE_ON_52 VELOCITY_29 TIME_3": 801, "NOTE_ON_52 VELOCITY_30 TIME_0": 802, "NOTE_ON_52 VELOCITY_30 TIME_1": 803, "NOTE_ON_52 VELOCITY_30 TIME_2": 804, "NOTE_ON_52 VELOCITY_31 TIME_0": 805, "NOTE_ON_52 VELOCITY_31 TIME_1": 806, "NOTE_ON_52 VELOCITY_31 TIME_2": 807, "NOTE_ON_52 VELOCITY_32 TIME_0": 808, "NOTE_ON_52 VELOCITY_32 TIME_1": 809, "NOTE_ON_52 VELOCITY_32 TIME_2": 810, "NOTE_ON_52 VELOCITY_33 TIME_1": 811, "NOTE_ON_52 VELOCITY_33 TIME_2": 812, "NOTE_ON_52 VELOCITY_33 TIME_4": 813, "NOTE_ON_52 VELOCITY_34 TIME_0": 814, "NOTE_ON_52 VELOCITY_34 TIME_1": 815, "NOTE_ON_52 VELOCITY_34 TIME_2": 816, "NOTE_ON_52 VELOCITY_35 TIME_1": 817, "NOTE_ON_52 VELOCITY_36 TIME_0": 818, "NOTE_ON_52 VELOCITY_36 TIME_1": 819, "NOTE_ON_52 VELOCITY_36 TIME_2": 820, "NOTE_ON_52 VELOCITY_36 TIME_3": 821, "NOTE_ON_52 VELOCITY_36 TIME_4": 822, "NOTE_ON_52 VELOCITY_36 TIME_7": 823, "NOTE_ON_52 VELOCITY_37 TIME_0": 824, "NOTE_ON_52 VELOCITY_37 TIME_1": 825, "NOTE_ON_52 VELOCITY_37 TIME_2": 826, "NOTE_ON_52 VELOCITY_37 TIME_3": 827, "NOTE_ON_52 VELOCITY_37 TIME_5": 828, "NOTE_ON_52 VELOCITY_38 TIME_0": 829, "NOTE_ON_52 VELOCITY_38 TIME_1": 830, "NOTE_ON_52 VELOCITY_38 TIME_2": 831, "NOTE_ON_52 VELOCITY_39 TIME_0": 832, "NOTE_ON_52 VELOCITY_39 TIME_1": 833, "NOTE_ON_52 VELOCITY_39 TIME_5": 834, "NOTE_ON_52 VELOCITY_40 TIME_1": 835, "NOTE_ON_52 VELOCITY_40 TIME_2": 836, "NOTE_ON_52 VELOCITY_40 TIME_3": 837, "NOTE_ON_52 VELOCITY_41 TIME_0": 838, "NOTE_ON_52 VELOCITY_41 TIME_1": 839, "NOTE_ON_52 VELOCITY_41 TIME_2": 840, "NOTE_ON_52 VELOCITY_41 TIME_3": 841, "NOTE_ON_52 VELOCITY_41 TIME_4": 842, "NOTE_ON_52 VELOCITY_41 TIME_7": 843, "NOTE_ON_52 VELOCITY_42 TIME_0": 844, "NOTE_ON_52 VELOCITY_42 TIME_1": 845, "NOTE_ON_52 VELOCITY_42 TIME_2": 846, "NOTE_ON_52 VELOCITY_42 TIME_4": 847, "NOTE_ON_52 VELOCITY_43 TIME_0": 848, "NOTE_ON_52 VELOCITY_43 TIME_1": 849, "NOTE_ON_52 VELOCITY_43 TIME_2": 850, "NOTE_ON_52 VELOCITY_44 TIME_0": 851, "NOTE_ON_52 VELOCITY_44 TIME_1": 852, "NOTE_ON_52 VELOCITY_45 TIME_0": 853, "NOTE_ON_52 VELOCITY_45 TIME_1": 854, "NOTE_ON_52 VELOCITY_45 TIME_2": 855, "NOTE_ON_52 VELOCITY_45 TIME_3": 856, "NOTE_ON_52 VELOCITY_46 TIME_0": 857, "NOTE_ON_52 VELOCITY_46 TIME_1": 858, "NOTE_ON_52 VELOCITY_46 TIME_2": 859, "NOTE_ON_52 VELOCITY_47 TIME_0": 860, "NOTE_ON_52 VELOCITY_47 TIME_1": 861, "NOTE_ON_52 VELOCITY_47 TIME_2": 862, "NOTE_ON_52 VELOCITY_48 TIME_0": 863, "NOTE_ON_52 VELOCITY_48 TIME_1": 864, "NOTE_ON_52 VELOCITY_49 TIME_0": 865, "NOTE_ON_52 VELOCITY_49 TIME_1": 866, "NOTE_ON_52 VELOCITY_49 TIME_2": 867, "NOTE_ON_52 VELOCITY_49 TIME_3": 868, "NOTE_ON_52 VELOCITY_50 TIME_0": 869, "NOTE_ON_52 VELOCITY_50 TIME_1": 870, "NOTE_ON_52 VELOCITY_50 TIME_2": 871, "NOTE_ON_52 VELOCITY_51 TIME_0": 872, "NOTE_ON_52 VELOCITY_51 TIME_1": 873, "NOTE_ON_52 VELOCITY_51 TIME_2": 874, "NOTE_ON_52 VELOCITY_51 TIME_3": 875, "NOTE_ON_52 VELOCITY_52 TIME_0": 876, "NOTE_ON_52 VELOCITY_52 TIME_1": 877, "NOTE_ON_52 VELOCITY_52 TIME_2": 878, "NOTE_ON_52 VELOCITY_53 TIME_1": 879, "NOTE_ON_52 VELOCITY_53 TIME_10": 880, "NOTE_ON_52 VELOCITY_53 TIME_3": 881, "NOTE_ON_52 VELOCITY_54 TIME_1": 882, "NOTE_ON_52 VELOCITY_55 TIME_0": 883, "NOTE_ON_52 VELOCITY_55 TIME_1": 884, "NOTE_ON_52 VELOCITY_55 TIME_2": 885, "NOTE_ON_52 VELOCITY_56 TIME_0": 886, "NOTE_ON_52 VELOCITY_56 TIME_1": 887, "NOTE_ON_52 VELOCITY_57 TIME_1": 888, "NOTE_ON_52 VELOCITY_58 TIME_1": 889, "NOTE_ON_52 VELOCITY_58 TIME_2": 890, "NOTE_ON_52 VELOCITY_59 TIME_1": 891, "NOTE_ON_52 VELOCITY_60 TIME_1": 892, "NOTE_ON_53": 893, "NOTE_ON_53 VELOCITY_10 TIME_1": 894, "NOTE_ON_53 VELOCITY_10 TIME_3": 895, "NOTE_ON_53 VELOCITY_11 TIME_1": 896, "NOTE_ON_53 VELOCITY_12 TIME_1": 897, "NOTE_ON_53 VELOCITY_14 TIME_1": 898, "NOTE_ON_53 VELOCITY_15 TIME_1": 899, "NOTE_ON_53 VELOCITY_17 TIME_1": 900, "NOTE_ON_53 VELOCITY_17 TIME_2": 901, "NOTE_ON_53 VELOCITY_18 TIME_2": 902, "NOTE_ON_53 VELOCITY_19 TIME_15": 903, "NOTE_ON_53 VELOCITY_20 TIME_0": 904, "NOTE_ON_53 VELOCITY_21 TIME_1": 905, "NOTE_ON_53 VELOCITY_22 TIME_1": 906, "NOTE_ON_53 VELOCITY_23 TIME_1": 907, "NOTE_ON_53 VELOCITY_23 TIME_2": 908, "NOTE_ON_53 VELOCITY_23 TIME_5": 909, "NOTE_ON_53 VELOCITY_24 TIME_0": 910, "NOTE_ON_53 VELOCITY_25 TIME_0": 911, "NOTE_ON_53 VELOCITY_25 TIME_1": 912, "NOTE_ON_53 VELOCITY_26 TIME_0": 913, "NOTE_ON_53 VELOCITY_26 TIME_1": 914, "NOTE_ON_53 VELOCITY_26 TIME_2": 915, "NOTE_ON_53 VELOCITY_27 TIME_0": 916, "NOTE_ON_53 VELOCITY_27 TIME_1": 917, "NOTE_ON_53 VELOCITY_28 TIME_0": 918, "NOTE_ON_53 VELOCITY_28 TIME_1": 919, "NOTE_ON_53 VELOCITY_29 TIME_0": 920, "NOTE_ON_53 VELOCITY_29 TIME_1": 921, "NOTE_ON_53 VELOCITY_29 TIME_4": 922, "NOTE_ON_53 VELOCITY_30 TIME_0": 923, "NOTE_ON_53 VELOCITY_30 TIME_1": 924, "NOTE_ON_53 VELOCITY_31 TIME_0": 925, "NOTE_ON_53 VELOCITY_31 TIME_1": 926, "NOTE_ON_53 VELOCITY_31 TIME_11": 927, "NOTE_ON_53 VELOCITY_31 TIME_2": 928, "NOTE_ON_53 VELOCITY_31 TIME_8": 929, "NOTE_ON_53 VELOCITY_32 TIME_0": 930, "NOTE_ON_53 VELOCITY_32 TIME_1": 931, "NOTE_ON_53 VELOCITY_32 TIME_13": 932, "NOTE_ON_53 VELOCITY_32 TIME_2": 933, "NOTE_ON_53 VELOCITY_33 TIME_0": 934, "NOTE_ON_53 VELOCITY_33 TIME_1": 935, "NOTE_ON_53 VELOCITY_33 TIME_4": 936, "NOTE_ON_53 VELOCITY_34 TIME_0": 937, "NOTE_ON_53 VELOCITY_34 TIME_1": 938, "NOTE_ON_53 VELOCITY_34 TIME_2": 939, "NOTE_ON_53 VELOCITY_35 TIME_0": 940, "NOTE_ON_53 VELOCITY_35 TIME_1": 941, "NOTE_ON_53 VELOCITY_35 TIME_2": 942, "NOTE_ON_53 VELOCITY_36 TIME_0": 943, "NOTE_ON_53 VELOCITY_36 TIME_1": 944, "NOTE_ON_53 VELOCITY_36 TIME_2": 945, "NOTE_ON_53 VELOCITY_37 TIME_0": 946, "NOTE_ON_53 VELOCITY_37 TIME_1": 947, "NOTE_ON_53 VELOCITY_37 TIME_7": 948, "NOTE_ON_53 VELOCITY_38 TIME_0": 949, "NOTE_ON_53 VELOCITY_38 TIME_1": 950, "NOTE_ON_53 VELOCITY_38 TIME_2": 951, "NOTE_ON_53 VELOCITY_39 TIME_0": 952, "NOTE_ON_53 VELOCITY_39 TIME_1": 953, "NOTE_ON_53 VELOCITY_39 TIME_5": 954, "NOTE_ON_53 VELOCITY_40 TIME_0": 955, "NOTE_ON_53 VELOCITY_40 TIME_1": 956, "NOTE_ON_53 VELOCITY_40 TIME_2": 957, "NOTE_ON_53 VELOCITY_40 TIME_22": 958, "NOTE_ON_53 VELOCITY_40 TIME_44": 959, "NOTE_ON_53 VELOCITY_41 TIME_0": 960, "NOTE_ON_53 VELOCITY_41 TIME_1": 961, "NOTE_ON_53 VELOCITY_41 TIME_2": 962, "NOTE_ON_53 VELOCITY_42 TIME_0": 963, "NOTE_ON_53 VELOCITY_42 TIME_1": 964, "NOTE_ON_53 VELOCITY_42 TIME_2": 965, "NOTE_ON_53 VELOCITY_43 TIME_0": 966, "NOTE_ON_53 VELOCITY_43 TIME_1": 967, "NOTE_ON_53 VELOCITY_43 TIME_2": 968, "NOTE_ON_53 VELOCITY_43 TIME_5": 969, "NOTE_ON_53 VELOCITY_44 TIME_0": 970, "NOTE_ON_53 VELOCITY_44 TIME_1": 971, "NOTE_ON_53 VELOCITY_44 TIME_4": 972, "NOTE_ON_53 VELOCITY_45 TIME_0": 973, "NOTE_ON_53 VELOCITY_45 TIME_1": 974, "NOTE_ON_53 VELOCITY_45 TIME_5": 975, "NOTE_ON_53 VELOCITY_46 TIME_0": 976, "NOTE_ON_53 VELOCITY_46 TIME_1": 977, "NOTE_ON_53 VELOCITY_46 TIME_2": 978, "NOTE_ON_53 VELOCITY_46 TIME_4": 979, "NOTE_ON_53 VELOCITY_47 TIME_0": 980, "NOTE_ON_53 VELOCITY_47 TIME_1": 981, "NOTE_ON_53 VELOCITY_48 TIME_0": 982, "NOTE_ON_53 VELOCITY_48 TIME_1": 983, "NOTE_ON_53 VELOCITY_48 TIME_2": 984, "NOTE_ON_53 VELOCITY_48 TIME_5": 985, "NOTE_ON_53 VELOCITY_49 TIME_0": 986, "NOTE_ON_53 VELOCITY_49 TIME_1": 987, "NOTE_ON_53 VELOCITY_49 TIME_12": 988, "NOTE_ON_53 VELOCITY_49 TIME_2": 989, "NOTE_ON_53 VELOCITY_50 TIME_0": 990, "NOTE_ON_53 VELOCITY_50 TIME_1": 991, "NOTE_ON_53 VELOCITY_50 TIME_16": 992, "NOTE_ON_53 VELOCITY_50 TIME_4": 993, "NOTE_ON_53 VELOCITY_51 TIME_0": 994, "NOTE_ON_53 VELOCITY_51 TIME_1": 995, "NOTE_ON_53 VELOCITY_51 TIME_3": 996, "NOTE_ON_53 VELOCITY_52 TIME_0": 997, "NOTE_ON_53 VELOCITY_52 TIME_1": 998, "NOTE_ON_53 VELOCITY_52 TIME_2": 999, "NOTE_ON_53 VELOCITY_52 TIME_3": 1000, "NOTE_ON_53 VELOCITY_53 TIME_0": 1001, "NOTE_ON_53 VELOCITY_53 TIME_1": 1002, "NOTE_ON_53 VELOCITY_54 TIME_0": 1003, "NOTE_ON_53 VELOCITY_54 TIME_1": 1004, "NOTE_ON_53 VELOCITY_55 TIME_0": 1005, "NOTE_ON_53 VELOCITY_55 TIME_1": 1006, "NOTE_ON_53 VELOCITY_55 TIME_2": 1007, "NOTE_ON_53 VELOCITY_56 TIME_0": 1008, "NOTE_ON_53 VELOCITY_56 TIME_1": 1009, "NOTE_ON_53 VELOCITY_57 TIME_0": 1010, "NOTE_ON_53 VELOCITY_57 TIME_1": 1011, "NOTE_ON_53 VELOCITY_57 TIME_3": 1012, "NOTE_ON_53 VELOCITY_58 TIME_0": 1013, "NOTE_ON_53 VELOCITY_58 TIME_1": 1014, "NOTE_ON_53 VELOCITY_58 TIME_2": 1015, "NOTE_ON_53 VELOCITY_59 TIME_0": 1016, "NOTE_ON_53 VELOCITY_60 TIME_0": 1017, "NOTE_ON_53 VELOCITY_61 TIME_0": 1018, "NOTE_ON_53 VELOCITY_61 TIME_1": 1019, "NOTE_ON_53 VELOCITY_62 TIME_0": 1020, "NOTE_ON_53 VELOCITY_63 TIME_0": 1021, "NOTE_ON_53 VELOCITY_64 TIME_0": 1022, "NOTE_ON_53 VELOCITY_65 TIME_0": 1023, "NOTE_ON_53 VELOCITY_65 TIME_2": 1024, "NOTE_ON_53 VELOCITY_66 TIME_1": 1025, "NOTE_ON_54": 1026, "NOTE_ON_54 VELOCITY_18 TIME_1": 1027, "NOTE_ON_54 VELOCITY_19 TIME_1": 1028, "NOTE_ON_54 VELOCITY_21 TIME_0": 1029, "NOTE_ON_54 VELOCITY_22 TIME_1": 1030, "NOTE_ON_54 VELOCITY_23 TIME_1": 1031, "NOTE_ON_54 VELOCITY_27 TIME_1": 1032, "NOTE_ON_54 VELOCITY_28 TIME_1": 1033, "NOTE_ON_54 VELOCITY_29 TIME_0": 1034, "NOTE_ON_54 VELOCITY_29 TIME_1": 1035, "NOTE_ON_54 VELOCITY_31 TIME_0": 1036, "NOTE_ON_54 VELOCITY_31 TIME_1": 1037, "NOTE_ON_54 VELOCITY_32 TIME_0": 1038, "NOTE_ON_54 VELOCITY_32 TIME_1": 1039, "NOTE_ON_54 VELOCITY_33 TIME_1": 1040, "NOTE_ON_54 VELOCITY_33 TIME_2": 1041, "NOTE_ON_54 VELOCITY_34 TIME_0": 1042, "NOTE_ON_54 VELOCITY_34 TIME_1": 1043, "NOTE_ON_54 VELOCITY_36 TIME_1": 1044, "NOTE_ON_54 VELOCITY_37 TIME_0": 1045, "NOTE_ON_54 VELOCITY_37 TIME_1": 1046, "NOTE_ON_54 VELOCITY_38 TIME_1": 1047, "NOTE_ON_54 VELOCITY_38 TIME_3": 1048, "NOTE_ON_54 VELOCITY_40 TIME_1": 1049, "NOTE_ON_54 VELOCITY_41 TIME_0": 1050, "NOTE_ON_54 VELOCITY_41 TIME_1": 1051, "NOTE_ON_54 VELOCITY_41 TIME_2": 1052, "NOTE_ON_54 VELOCITY_42 TIME_2": 1053, "NOTE_ON_54 VELOCITY_43 TIME_1": 1054, "NOTE_ON_54 VELOCITY_44 TIME_0": 1055, "NOTE_ON_54 VELOCITY_49 TIME_2": 1056, "NOTE_ON_54 VELOCITY_57 TIME_1": 1057, "NOTE_ON_55": 1058, "NOTE_ON_55 VELOCITY_10 TIME_1": 1059, "NOTE_ON_55 VELOCITY_11 TIME_1": 1060, "NOTE_ON_55 VELOCITY_12 TIME_1": 1061, "NOTE_ON_55 VELOCITY_14 TIME_1": 1062, "NOTE_ON_55 VELOCITY_15 TIME_1": 1063, "NOTE_ON_55 VELOCITY_17 TIME_0": 1064, "NOTE_ON_55 VELOCITY_17 TIME_1": 1065, "NOTE_ON_55 VELOCITY_18 TIME_0": 1066, "NOTE_ON_55 VELOCITY_18 TIME_3": 1067, "NOTE_ON_55 VELOCITY_19 TIME_1": 1068, "NOTE_ON_55 VELOCITY_20 TIME_1": 1069, "NOTE_ON_55 VELOCITY_20 TIME_2": 1070, "NOTE_ON_55 VELOCITY_21 TIME_0": 1071, "NOTE_ON_55 VELOCITY_21 TIME_1": 1072, "NOTE_ON_55 VELOCITY_22 TIME_1": 1073, "NOTE_ON_55 VELOCITY_23 TIME_1": 1074, "NOTE_ON_55 VELOCITY_24 TIME_0": 1075, "NOTE_ON_55 VELOCITY_24 TIME_1": 1076, "NOTE_ON_55 VELOCITY_24 TIME_4": 1077, "NOTE_ON_55 VELOCITY_24 TIME_9": 1078, "NOTE_ON_55 VELOCITY_25 TIME_1": 1079, "NOTE_ON_55 VELOCITY_25 TIME_2": 1080, "NOTE_ON_55 VELOCITY_26 TIME_2": 1081, "NOTE_ON_55 VELOCITY_27 TIME_1": 1082, "NOTE_ON_55 VELOCITY_27 TIME_2": 1083, "NOTE_ON_55 VELOCITY_27 TIME_4": 1084, "NOTE_ON_55 VELOCITY_28 TIME_1": 1085, "NOTE_ON_55 VELOCITY_28 TIME_4": 1086, "NOTE_ON_55 VELOCITY_29 TIME_0": 1087, "NOTE_ON_55 VELOCITY_29 TIME_1": 1088, "NOTE_ON_55 VELOCITY_30 TIME_1": 1089, "NOTE_ON_55 VELOCITY_30 TIME_2": 1090, "NOTE_ON_55 VELOCITY_31 TIME_0": 1091, "NOTE_ON_55 VELOCITY_31 TIME_1": 1092, "NOTE_ON_55 VELOCITY_32 TIME_0": 1093, "NOTE_ON_55 VELOCITY_32 TIME_1": 1094, "NOTE_ON_55 VELOCITY_32 TIME_2": 1095, "NOTE_ON_55 VELOCITY_33 TIME_1": 1096, "NOTE_ON_55 VELOCITY_34 TIME_1": 1097, "NOTE_ON_55 VELOCITY_35 TIME_0": 1098, "NOTE_ON_55 VELOCITY_35 TIME_1": 1099, "NOTE_ON_55 VELOCITY_35 TIME_2": 1100, "NOTE_ON_55 VELOCITY_36 TIME_0": 1101, "NOTE_ON_55 VELOCITY_36 TIME_1": 1102, "NOTE_ON_55 VELOCITY_37 TIME_0": 1103, "NOTE_ON_55 VELOCITY_37 TIME_1": 1104, "NOTE_ON_55 VELOCITY_37 TIME_2": 1105, "NOTE_ON_55 VELOCITY_37 TIME_3": 1106, "NOTE_ON_55 VELOCITY_38 TIME_0": 1107, "NOTE_ON_55 VELOCITY_38 TIME_1": 1108, "NOTE_ON_55 VELOCITY_39 TIME_1": 1109, "NOTE_ON_55 VELOCITY_40 TIME_0": 1110, "NOTE_ON_55 VELOCITY_40 TIME_1": 1111, "NOTE_ON_55 VELOCITY_41 TIME_0": 1112, "NOTE_ON_55 VELOCITY_41 TIME_1": 1113, "NOTE_ON_55 VELOCITY_41 TIME_2": 1114, "NOTE_ON_55 VELOCITY_42 TIME_1": 1115, "NOTE_ON_55 VELOCITY_43 TIME_0": 1116, "NOTE_ON_55 VELOCITY_43 TIME_1": 1117, "NOTE_ON_55 VELOCITY_44 TIME_0": 1118, "NOTE_ON_55 VELOCITY_44 TIME_1": 1119, "NOTE_ON_55 VELOCITY_44 TIME_2": 1120, "NOTE_ON_55 VELOCITY_44 TIME_4": 1121, "NOTE_ON_55 VELOCITY_45 TIME_1": 1122, "NOTE_ON_55 VELOCITY_46 TIME_0": 1123, "NOTE_ON_55 VELOCITY_46 TIME_1": 1124, "NOTE_ON_55 VELOCITY_46 TIME_3": 1125, "NOTE_ON_55 VELOCITY_47 TIME_1": 1126, "NOTE_ON_55 VELOCITY_48 TIME_1": 1127, "NOTE_ON_55 VELOCITY_49 TIME_0": 1128, "NOTE_ON_55 VELOCITY_49 TIME_1": 1129, "NOTE_ON_55 VELOCITY_49 TIME_2": 1130, "NOTE_ON_55 VELOCITY_50 TIME_0": 1131, "NOTE_ON_55 VELOCITY_50 TIME_1": 1132, "NOTE_ON_55 VELOCITY_50 TIME_2": 1133, "NOTE_ON_55 VELOCITY_51 TIME_1": 1134, "NOTE_ON_55 VELOCITY_51 TIME_2": 1135, "NOTE_ON_55 VELOCITY_52 TIME_0": 1136, "NOTE_ON_55 VELOCITY_52 TIME_1": 1137, "NOTE_ON_55 VELOCITY_53 TIME_0": 1138, "NOTE_ON_55 VELOCITY_53 TIME_1": 1139, "NOTE_ON_55 VELOCITY_53 TIME_4": 1140, "NOTE_ON_55 VELOCITY_54 TIME_1": 1141, "NOTE_ON_55 VELOCITY_54 TIME_2": 1142, "NOTE_ON_55 VELOCITY_55 TIME_1": 1143, "NOTE_ON_55 VELOCITY_56 TIME_1": 1144, "NOTE_ON_55 VELOCITY_57 TIME_0": 1145, "NOTE_ON_55 VELOCITY_57 TIME_1": 1146, "NOTE_ON_55 VELOCITY_58 TIME_0": 1147, "NOTE_ON_55 VELOCITY_58 TIME_1": 1148, "NOTE_ON_55 VELOCITY_59 TIME_1": 1149, "NOTE_ON_55 VELOCITY_59 TIME_3": 1150, "NOTE_ON_55 VELOCITY_60 TIME_0": 1151, "NOTE_ON_55 VELOCITY_61 TIME_1": 1152, "NOTE_ON_55 VELOCITY_62 TIME_1": 1153, "NOTE_ON_55 VELOCITY_63 TIME_0": 1154, "NOTE_ON_55 VELOCITY_63 TIME_1": 1155, "NOTE_ON_55 VELOCITY_65 TIME_0": 1156, "NOTE_ON_56": 1157, "NOTE_ON_56 VELOCITY_11 TIME_2": 1158, "NOTE_ON_56 VELOCITY_12 TIME_0": 1159, "NOTE_ON_56 VELOCITY_12 TIME_1": 1160, "NOTE_ON_56 VELOCITY_13 TIME_0": 1161, "NOTE_ON_56 VELOCITY_13 TIME_1": 1162, "NOTE_ON_56 VELOCITY_13 TIME_2": 1163, "NOTE_ON_56 VELOCITY_14 TIME_1": 1164, "NOTE_ON_56 VELOCITY_14 TIME_3": 1165, "NOTE_ON_56 VELOCITY_15 TIME_1": 1166, "NOTE_ON_56 VELOCITY_16 TIME_1": 1167, "NOTE_ON_56 VELOCITY_17 TIME_1": 1168, "NOTE_ON_56 VELOCITY_18 TIME_2": 1169, "NOTE_ON_56 VELOCITY_19 TIME_1": 1170, "NOTE_ON_56 VELOCITY_20 TIME_1": 1171, "NOTE_ON_56 VELOCITY_21 TIME_1": 1172, "NOTE_ON_56 VELOCITY_22 TIME_4": 1173, "NOTE_ON_56 VELOCITY_23 TIME_0": 1174, "NOTE_ON_56 VELOCITY_23 TIME_1": 1175, "NOTE_ON_56 VELOCITY_24 TIME_1": 1176, "NOTE_ON_56 VELOCITY_24 TIME_2": 1177, "NOTE_ON_56 VELOCITY_25 TIME_1": 1178, "NOTE_ON_56 VELOCITY_25 TIME_2": 1179, "NOTE_ON_56 VELOCITY_26 TIME_1": 1180, "NOTE_ON_56 VELOCITY_27 TIME_1": 1181, "NOTE_ON_56 VELOCITY_28 TIME_1": 1182, "NOTE_ON_56 VELOCITY_29 TIME_0": 1183, "NOTE_ON_56 VELOCITY_29 TIME_1": 1184, "NOTE_ON_56 VELOCITY_30 TIME_13": 1185, "NOTE_ON_56 VELOCITY_30 TIME_2": 1186, "NOTE_ON_56 VELOCITY_30 TIME_3": 1187, "NOTE_ON_56 VELOCITY_31 TIME_0": 1188, "NOTE_ON_56 VELOCITY_31 TIME_1": 1189, "NOTE_ON_56 VELOCITY_32 TIME_1": 1190, "NOTE_ON_56 VELOCITY_32 TIME_2": 1191, "NOTE_ON_56 VELOCITY_32 TIME_3": 1192, "NOTE_ON_56 VELOCITY_32 TIME_9": 1193, "NOTE_ON_56 VELOCITY_33 TIME_0": 1194, "NOTE_ON_56 VELOCITY_33 TIME_1": 1195, "NOTE_ON_56 VELOCITY_34 TIME_0": 1196, "NOTE_ON_56 VELOCITY_35 TIME_1": 1197, "NOTE_ON_56 VELOCITY_35 TIME_3": 1198, "NOTE_ON_56 VELOCITY_35 TIME_4": 1199, "NOTE_ON_56 VELOCITY_36 TIME_1": 1200, "NOTE_ON_56 VELOCITY_36 TIME_2": 1201, "NOTE_ON_56 VELOCITY_36 TIME_3": 1202, "NOTE_ON_56 VELOCITY_37 TIME_1": 1203, "NOTE_ON_56 VELOCITY_37 TIME_2": 1204, "NOTE_ON_56 VELOCITY_37 TIME_32": 1205, "NOTE_ON_56 VELOCITY_38 TIME_0": 1206, "NOTE_ON_56 VELOCITY_38 TIME_1": 1207, "NOTE_ON_56 VELOCITY_38 TIME_13": 1208, "NOTE_ON_56 VELOCITY_38 TIME_2": 1209, "NOTE_ON_56 VELOCITY_38 TIME_5": 1210, "NOTE_ON_56 VELOCITY_39 TIME_1": 1211, "NOTE_ON_56 VELOCITY_40 TIME_1": 1212, "NOTE_ON_56 VELOCITY_41 TIME_0": 1213, "NOTE_ON_56 VELOCITY_41 TIME_1": 1214, "NOTE_ON_56 VELOCITY_41 TIME_3": 1215, "NOTE_ON_56 VELOCITY_42 TIME_1": 1216, "NOTE_ON_56 VELOCITY_42 TIME_2": 1217, "NOTE_ON_56 VELOCITY_42 TIME_3": 1218, "NOTE_ON_56 VELOCITY_43 TIME_0": 1219, "NOTE_ON_56 VELOCITY_43 TIME_1": 1220, "NOTE_ON_56 VELOCITY_43 TIME_2": 1221, "NOTE_ON_56 VELOCITY_44 TIME_1": 1222, "NOTE_ON_56 VELOCITY_45 TIME_0": 1223, "NOTE_ON_56 VELOCITY_45 TIME_1": 1224, "NOTE_ON_56 VELOCITY_45 TIME_2": 1225, "NOTE_ON_56 VELOCITY_45 TIME_6": 1226, "NOTE_ON_56 VELOCITY_48 TIME_0": 1227, "NOTE_ON_56 VELOCITY_48 TIME_1": 1228, "NOTE_ON_56 VELOCITY_49 TIME_0": 1229, "NOTE_ON_56 VELOCITY_50 TIME_1": 1230, "NOTE_ON_56 VELOCITY_50 TIME_5": 1231, "NOTE_ON_56 VELOCITY_51 TIME_1": 1232, "NOTE_ON_56 VELOCITY_51 TIME_19": 1233, "NOTE_ON_56 VELOCITY_53 TIME_2": 1234, "NOTE_ON_56 VELOCITY_55 TIME_1": 1235, "NOTE_ON_56 VELOCITY_9 TIME_1": 1236, "NOTE_ON_57": 1237, "NOTE_ON_57 VELOCITY_11 TIME_1": 1238, "NOTE_ON_57 VELOCITY_11 TIME_2": 1239, "NOTE_ON_57 VELOCITY_12 TIME_1": 1240, "NOTE_ON_57 VELOCITY_12 TIME_6": 1241, "NOTE_ON_57 VELOCITY_13 TIME_0": 1242, "NOTE_ON_57 VELOCITY_13 TIME_1": 1243, "NOTE_ON_57 VELOCITY_14 TIME_1": 1244, "NOTE_ON_57 VELOCITY_14 TIME_9": 1245, "NOTE_ON_57 VELOCITY_15 TIME_0": 1246, "NOTE_ON_57 VELOCITY_15 TIME_1": 1247, "NOTE_ON_57 VELOCITY_15 TIME_2": 1248, "NOTE_ON_57 VELOCITY_16 TIME_0": 1249, "NOTE_ON_57 VELOCITY_16 TIME_1": 1250, "NOTE_ON_57 VELOCITY_16 TIME_2": 1251, "NOTE_ON_57 VELOCITY_17 TIME_0": 1252, "NOTE_ON_57 VELOCITY_17 TIME_1": 1253, "NOTE_ON_57 VELOCITY_17 TIME_2": 1254, "NOTE_ON_57 VELOCITY_18 TIME_0": 1255, "NOTE_ON_57 VELOCITY_18 TIME_1": 1256, "NOTE_ON_57 VELOCITY_18 TIME_2": 1257, "NOTE_ON_57 VELOCITY_18 TIME_29": 1258, "NOTE_ON_57 VELOCITY_19 TIME_0": 1259, "NOTE_ON_57 VELOCITY_19 TIME_1": 1260, "NOTE_ON_57 VELOCITY_20 TIME_0": 1261, "NOTE_ON_57 VELOCITY_20 TIME_1": 1262, "NOTE_ON_57 VELOCITY_21 TIME_0": 1263, "NOTE_ON_57 VELOCITY_21 TIME_1": 1264, "NOTE_ON_57 VELOCITY_21 TIME_4": 1265, "NOTE_ON_57 VELOCITY_22 TIME_0": 1266, "NOTE_ON_57 VELOCITY_22 TIME_1": 1267, "NOTE_ON_57 VELOCITY_23 TIME_0": 1268, "NOTE_ON_57 VELOCITY_23 TIME_1": 1269, "NOTE_ON_57 VELOCITY_24 TIME_0": 1270, "NOTE_ON_57 VELOCITY_24 TIME_1": 1271, "NOTE_ON_57 VELOCITY_24 TIME_2": 1272, "NOTE_ON_57 VELOCITY_25 TIME_0": 1273, "NOTE_ON_57 VELOCITY_25 TIME_1": 1274, "NOTE_ON_57 VELOCITY_25 TIME_2": 1275, "NOTE_ON_57 VELOCITY_26 TIME_1": 1276, "NOTE_ON_57 VELOCITY_27 TIME_0": 1277, "NOTE_ON_57 VELOCITY_27 TIME_1": 1278, "NOTE_ON_57 VELOCITY_27 TIME_2": 1279, "NOTE_ON_57 VELOCITY_27 TIME_3": 1280, "NOTE_ON_57 VELOCITY_27 TIME_4": 1281, "NOTE_ON_57 VELOCITY_28 TIME_0": 1282, "NOTE_ON_57 VELOCITY_28 TIME_1": 1283, "NOTE_ON_57 VELOCITY_28 TIME_11": 1284, "NOTE_ON_57 VELOCITY_28 TIME_2": 1285, "NOTE_ON_57 VELOCITY_29 TIME_0": 1286, "NOTE_ON_57 VELOCITY_29 TIME_1": 1287, "NOTE_ON_57 VELOCITY_29 TIME_37": 1288, "NOTE_ON_57 VELOCITY_30 TIME_0": 1289, "NOTE_ON_57 VELOCITY_30 TIME_1": 1290, "NOTE_ON_57 VELOCITY_30 TIME_2": 1291, "NOTE_ON_57 VELOCITY_31 TIME_0": 1292, "NOTE_ON_57 VELOCITY_31 TIME_1": 1293, "NOTE_ON_57 VELOCITY_31 TIME_2": 1294, "NOTE_ON_57 VELOCITY_32 TIME_0": 1295, "NOTE_ON_57 VELOCITY_32 TIME_1": 1296, "NOTE_ON_57 VELOCITY_32 TIME_2": 1297, "NOTE_ON_57 VELOCITY_33 TIME_0": 1298, "NOTE_ON_57 VELOCITY_33 TIME_1": 1299, "NOTE_ON_57 VELOCITY_34 TIME_0": 1300, "NOTE_ON_57 VELOCITY_34 TIME_1": 1301, "NOTE_ON_57 VELOCITY_34 TIME_2": 1302, "NOTE_ON_57 VELOCITY_35 TIME_0": 1303, "NOTE_ON_57 VELOCITY_35 TIME_1": 1304, "NOTE_ON_57 VELOCITY_35 TIME_2": 1305, "NOTE_ON_57 VELOCITY_36 TIME_0": 1306, "NOTE_ON_57 VELOCITY_36 TIME_1": 1307, "NOTE_ON_57 VELOCITY_37 TIME_0": 1308, "NOTE_ON_57 VELOCITY_37 TIME_1": 1309, "NOTE_ON_57 VELOCITY_37 TIME_3": 1310, "NOTE_ON_57 VELOCITY_38 TIME_0": 1311, "NOTE_ON_57 VELOCITY_38 TIME_1": 1312, "NOTE_ON_57 VELOCITY_38 TIME_2": 1313, "NOTE_ON_57 VELOCITY_39 TIME_0": 1314, "NOTE_ON_57 VELOCITY_39 TIME_1": 1315, "NOTE_ON_57 VELOCITY_39 TIME_2": 1316, "NOTE_ON_57 VELOCITY_39 TIME_36": 1317, "NOTE_ON_57 VELOCITY_40 TIME_0": 1318, "NOTE_ON_57 VELOCITY_40 TIME_1": 1319, "NOTE_ON_57 VELOCITY_40 TIME_2": 1320, "NOTE_ON_57 VELOCITY_40 TIME_3": 1321, "NOTE_ON_57 VELOCITY_41 TIME_0": 1322, "NOTE_ON_57 VELOCITY_41 TIME_1": 1323, "NOTE_ON_57 VELOCITY_41 TIME_5": 1324, "NOTE_ON_57 VELOCITY_42 TIME_0": 1325, "NOTE_ON_57 VELOCITY_42 TIME_1": 1326, "NOTE_ON_57 VELOCITY_42 TIME_2": 1327, "NOTE_ON_57 VELOCITY_42 TIME_66": 1328, "NOTE_ON_57 VELOCITY_43 TIME_0": 1329, "NOTE_ON_57 VELOCITY_43 TIME_1": 1330, "NOTE_ON_57 VELOCITY_44 TIME_0": 1331, "NOTE_ON_57 VELOCITY_44 TIME_1": 1332, "NOTE_ON_57 VELOCITY_44 TIME_3": 1333, "NOTE_ON_57 VELOCITY_45 TIME_0": 1334, "NOTE_ON_57 VELOCITY_45 TIME_1": 1335, "NOTE_ON_57 VELOCITY_45 TIME_2": 1336, "NOTE_ON_57 VELOCITY_45 TIME_4": 1337, "NOTE_ON_57 VELOCITY_46 TIME_0": 1338, "NOTE_ON_57 VELOCITY_46 TIME_1": 1339, "NOTE_ON_57 VELOCITY_46 TIME_3": 1340, "NOTE_ON_57 VELOCITY_46 TIME_4": 1341, "NOTE_ON_57 VELOCITY_47 TIME_1": 1342, "NOTE_ON_57 VELOCITY_47 TIME_2": 1343, "NOTE_ON_57 VELOCITY_47 TIME_31": 1344, "NOTE_ON_57 VELOCITY_48 TIME_0": 1345, "NOTE_ON_57 VELOCITY_48 TIME_1": 1346, "NOTE_ON_57 VELOCITY_48 TIME_3": 1347, "NOTE_ON_57 VELOCITY_49 TIME_1": 1348, "NOTE_ON_57 VELOCITY_50 TIME_0": 1349, "NOTE_ON_57 VELOCITY_50 TIME_1": 1350, "NOTE_ON_57 VELOCITY_50 TIME_2": 1351, "NOTE_ON_57 VELOCITY_50 TIME_3": 1352, "NOTE_ON_57 VELOCITY_51 TIME_0": 1353, "NOTE_ON_57 VELOCITY_51 TIME_1": 1354, "NOTE_ON_57 VELOCITY_52 TIME_0": 1355, "NOTE_ON_57 VELOCITY_52 TIME_1": 1356, "NOTE_ON_57 VELOCITY_53 TIME_0": 1357, "NOTE_ON_57 VELOCITY_53 TIME_1": 1358, "NOTE_ON_57 VELOCITY_53 TIME_2": 1359, "NOTE_ON_57 VELOCITY_54 TIME_0": 1360, "NOTE_ON_57 VELOCITY_54 TIME_1": 1361, "NOTE_ON_57 VELOCITY_55 TIME_0": 1362, "NOTE_ON_57 VELOCITY_56 TIME_1": 1363, "NOTE_ON_57 VELOCITY_57 TIME_0": 1364, "NOTE_ON_57 VELOCITY_57 TIME_1": 1365, "NOTE_ON_57 VELOCITY_59 TIME_0": 1366, "NOTE_ON_57 VELOCITY_59 TIME_1": 1367, "NOTE_ON_57 VELOCITY_61 TIME_0": 1368, "NOTE_ON_57 VELOCITY_9 TIME_1": 1369, "NOTE_ON_58": 1370, "NOTE_ON_58 VELOCITY_11 TIME_1": 1371, "NOTE_ON_58 VELOCITY_13 TIME_0": 1372, "NOTE_ON_58 VELOCITY_13 TIME_1": 1373, "NOTE_ON_58 VELOCITY_14 TIME_1": 1374, "NOTE_ON_58 VELOCITY_15 TIME_1": 1375, "NOTE_ON_58 VELOCITY_16 TIME_2": 1376, "NOTE_ON_58 VELOCITY_16 TIME_23": 1377, "NOTE_ON_58 VELOCITY_17 TIME_0": 1378, "NOTE_ON_58 VELOCITY_17 TIME_1": 1379, "NOTE_ON_58 VELOCITY_18 TIME_1": 1380, "NOTE_ON_58 VELOCITY_19 TIME_1": 1381, "NOTE_ON_58 VELOCITY_19 TIME_2": 1382, "NOTE_ON_58 VELOCITY_20 TIME_0": 1383, "NOTE_ON_58 VELOCITY_20 TIME_1": 1384, "NOTE_ON_58 VELOCITY_21 TIME_1": 1385, "NOTE_ON_58 VELOCITY_21 TIME_3": 1386, "NOTE_ON_58 VELOCITY_23 TIME_0": 1387, "NOTE_ON_58 VELOCITY_24 TIME_0": 1388, "NOTE_ON_58 VELOCITY_24 TIME_1": 1389, "NOTE_ON_58 VELOCITY_26 TIME_0": 1390, "NOTE_ON_58 VELOCITY_26 TIME_2": 1391, "NOTE_ON_58 VELOCITY_26 TIME_23": 1392, "NOTE_ON_58 VELOCITY_27 TIME_2": 1393, "NOTE_ON_58 VELOCITY_29 TIME_0": 1394, "NOTE_ON_58 VELOCITY_29 TIME_1": 1395, "NOTE_ON_58 VELOCITY_30 TIME_1": 1396, "NOTE_ON_58 VELOCITY_31 TIME_0": 1397, "NOTE_ON_58 VELOCITY_32 TIME_0": 1398, "NOTE_ON_58 VELOCITY_32 TIME_1": 1399, "NOTE_ON_58 VELOCITY_33 TIME_0": 1400, "NOTE_ON_58 VELOCITY_33 TIME_1": 1401, "NOTE_ON_58 VELOCITY_33 TIME_2": 1402, "NOTE_ON_58 VELOCITY_34 TIME_1": 1403, "NOTE_ON_58 VELOCITY_34 TIME_17": 1404, "NOTE_ON_58 VELOCITY_35 TIME_1": 1405, "NOTE_ON_58 VELOCITY_35 TIME_2": 1406, "NOTE_ON_58 VELOCITY_36 TIME_0": 1407, "NOTE_ON_58 VELOCITY_36 TIME_1": 1408, "NOTE_ON_58 VELOCITY_36 TIME_2": 1409, "NOTE_ON_58 VELOCITY_37 TIME_0": 1410, "NOTE_ON_58 VELOCITY_37 TIME_1": 1411, "NOTE_ON_58 VELOCITY_37 TIME_2": 1412, "NOTE_ON_58 VELOCITY_38 TIME_1": 1413, "NOTE_ON_58 VELOCITY_39 TIME_0": 1414, "NOTE_ON_58 VELOCITY_40 TIME_17": 1415, "NOTE_ON_58 VELOCITY_42 TIME_1": 1416, "NOTE_ON_58 VELOCITY_42 TIME_11": 1417, "NOTE_ON_58 VELOCITY_43 TIME_1": 1418, "NOTE_ON_58 VELOCITY_45 TIME_0": 1419, "NOTE_ON_58 VELOCITY_45 TIME_2": 1420, "NOTE_ON_58 VELOCITY_46 TIME_1": 1421, "NOTE_ON_58 VELOCITY_47 TIME_1": 1422, "NOTE_ON_58 VELOCITY_48 TIME_1": 1423, "NOTE_ON_58 VELOCITY_50 TIME_1": 1424, "NOTE_ON_58 VELOCITY_52 TIME_0": 1425, "NOTE_ON_58 VELOCITY_54 TIME_1": 1426, "NOTE_ON_58 VELOCITY_9 TIME_2": 1427, "NOTE_ON_59": 1428, "NOTE_ON_59 VELOCITY_10 TIME_0": 1429, "NOTE_ON_59 VELOCITY_12 TIME_1": 1430, "NOTE_ON_59 VELOCITY_13 TIME_1": 1431, "NOTE_ON_59 VELOCITY_14 TIME_1": 1432, "NOTE_ON_59 VELOCITY_15 TIME_0": 1433, "NOTE_ON_59 VELOCITY_15 TIME_1": 1434, "NOTE_ON_59 VELOCITY_15 TIME_2": 1435, "NOTE_ON_59 VELOCITY_15 TIME_3": 1436, "NOTE_ON_59 VELOCITY_17 TIME_1": 1437, "NOTE_ON_59 VELOCITY_18 TIME_1": 1438, "NOTE_ON_59 VELOCITY_19 TIME_1": 1439, "NOTE_ON_59 VELOCITY_19 TIME_3": 1440, "NOTE_ON_59 VELOCITY_20 TIME_3": 1441, "NOTE_ON_59 VELOCITY_21 TIME_0": 1442, "NOTE_ON_59 VELOCITY_22 TIME_0": 1443, "NOTE_ON_59 VELOCITY_22 TIME_1": 1444, "NOTE_ON_59 VELOCITY_23 TIME_1": 1445, "NOTE_ON_59 VELOCITY_24 TIME_0": 1446, "NOTE_ON_59 VELOCITY_25 TIME_0": 1447, "NOTE_ON_59 VELOCITY_25 TIME_1": 1448, "NOTE_ON_59 VELOCITY_25 TIME_2": 1449, "NOTE_ON_59 VELOCITY_26 TIME_0": 1450, "NOTE_ON_59 VELOCITY_26 TIME_1": 1451, "NOTE_ON_59 VELOCITY_27 TIME_1": 1452, "NOTE_ON_59 VELOCITY_28 TIME_0": 1453, "NOTE_ON_59 VELOCITY_28 TIME_1": 1454, "NOTE_ON_59 VELOCITY_28 TIME_3": 1455, "NOTE_ON_59 VELOCITY_29 TIME_0": 1456, "NOTE_ON_59 VELOCITY_29 TIME_1": 1457, "NOTE_ON_59 VELOCITY_30 TIME_1": 1458, "NOTE_ON_59 VELOCITY_31 TIME_1": 1459, "NOTE_ON_59 VELOCITY_31 TIME_4": 1460, "NOTE_ON_59 VELOCITY_32 TIME_1": 1461, "NOTE_ON_59 VELOCITY_33 TIME_0": 1462, "NOTE_ON_59 VELOCITY_33 TIME_1": 1463, "NOTE_ON_59 VELOCITY_34 TIME_0": 1464, "NOTE_ON_59 VELOCITY_34 TIME_1": 1465, "NOTE_ON_59 VELOCITY_35 TIME_0": 1466, "NOTE_ON_59 VELOCITY_35 TIME_1": 1467, "NOTE_ON_59 VELOCITY_37 TIME_0": 1468, "NOTE_ON_59 VELOCITY_37 TIME_1": 1469, "NOTE_ON_59 VELOCITY_38 TIME_0": 1470, "NOTE_ON_59 VELOCITY_38 TIME_1": 1471, "NOTE_ON_59 VELOCITY_39 TIME_1": 1472, "NOTE_ON_59 VELOCITY_40 TIME_1": 1473, "NOTE_ON_59 VELOCITY_41 TIME_0": 1474, "NOTE_ON_59 VELOCITY_41 TIME_1": 1475, "NOTE_ON_59 VELOCITY_43 TIME_1": 1476, "NOTE_ON_59 VELOCITY_45 TIME_1": 1477, "NOTE_ON_59 VELOCITY_47 TIME_1": 1478, "NOTE_ON_59 VELOCITY_50 TIME_0": 1479, "NOTE_ON_59 VELOCITY_50 TIME_1": 1480, "NOTE_ON_59 VELOCITY_52 TIME_0": 1481, "NOTE_ON_59 VELOCITY_53 TIME_0": 1482, "NOTE_ON_59 VELOCITY_54 TIME_0": 1483, "NOTE_ON_59 VELOCITY_56 TIME_1": 1484, "NOTE_ON_60": 1485, "NOTE_ON_60 VELOCITY_10 TIME_1": 1486, "NOTE_ON_60 VELOCITY_11 TIME_0": 1487, "NOTE_ON_60 VELOCITY_11 TIME_1": 1488, "NOTE_ON_60 VELOCITY_11 TIME_2": 1489, "NOTE_ON_60 VELOCITY_12 TIME_1": 1490, "NOTE_ON_60 VELOCITY_12 TIME_2": 1491, "NOTE_ON_60 VELOCITY_12 TIME_3": 1492, "NOTE_ON_60 VELOCITY_13 TIME_0": 1493, "NOTE_ON_60 VELOCITY_13 TIME_1": 1494, "NOTE_ON_60 VELOCITY_13 TIME_2": 1495, "NOTE_ON_60 VELOCITY_14 TIME_0": 1496, "NOTE_ON_60 VELOCITY_14 TIME_1": 1497, "NOTE_ON_60 VELOCITY_14 TIME_2": 1498, "NOTE_ON_60 VELOCITY_15 TIME_0": 1499, "NOTE_ON_60 VELOCITY_15 TIME_1": 1500, "NOTE_ON_60 VELOCITY_16 TIME_0": 1501, "NOTE_ON_60 VELOCITY_16 TIME_1": 1502, "NOTE_ON_60 VELOCITY_17 TIME_1": 1503, "NOTE_ON_60 VELOCITY_17 TIME_2": 1504, "NOTE_ON_60 VELOCITY_18 TIME_0": 1505, "NOTE_ON_60 VELOCITY_18 TIME_1": 1506, "NOTE_ON_60 VELOCITY_19 TIME_0": 1507, "NOTE_ON_60 VELOCITY_19 TIME_1": 1508, "NOTE_ON_60 VELOCITY_20 TIME_0": 1509, "NOTE_ON_60 VELOCITY_20 TIME_1": 1510, "NOTE_ON_60 VELOCITY_20 TIME_3": 1511, "NOTE_ON_60 VELOCITY_21 TIME_0": 1512, "NOTE_ON_60 VELOCITY_21 TIME_1": 1513, "NOTE_ON_60 VELOCITY_22 TIME_0": 1514, "NOTE_ON_60 VELOCITY_22 TIME_1": 1515, "NOTE_ON_60 VELOCITY_22 TIME_3": 1516, "NOTE_ON_60 VELOCITY_23 TIME_1": 1517, "NOTE_ON_60 VELOCITY_23 TIME_2": 1518, "NOTE_ON_60 VELOCITY_24 TIME_0": 1519, "NOTE_ON_60 VELOCITY_24 TIME_1": 1520, "NOTE_ON_60 VELOCITY_25 TIME_0": 1521, "NOTE_ON_60 VELOCITY_25 TIME_1": 1522, "NOTE_ON_60 VELOCITY_25 TIME_3": 1523, "NOTE_ON_60 VELOCITY_25 TIME_4": 1524, "NOTE_ON_60 VELOCITY_26 TIME_0": 1525, "NOTE_ON_60 VELOCITY_26 TIME_1": 1526, "NOTE_ON_60 VELOCITY_26 TIME_2": 1527, "NOTE_ON_60 VELOCITY_26 TIME_3": 1528, "NOTE_ON_60 VELOCITY_27 TIME_0": 1529, "NOTE_ON_60 VELOCITY_27 TIME_1": 1530, "NOTE_ON_60 VELOCITY_27 TIME_2": 1531, "NOTE_ON_60 VELOCITY_28 TIME_1": 1532, "NOTE_ON_60 VELOCITY_29 TIME_0": 1533, "NOTE_ON_60 VELOCITY_29 TIME_1": 1534, "NOTE_ON_60 VELOCITY_30 TIME_0": 1535, "NOTE_ON_60 VELOCITY_30 TIME_1": 1536, "NOTE_ON_60 VELOCITY_30 TIME_2": 1537, "NOTE_ON_60 VELOCITY_30 TIME_4": 1538, "NOTE_ON_60 VELOCITY_31 TIME_0": 1539, "NOTE_ON_60 VELOCITY_31 TIME_1": 1540, "NOTE_ON_60 VELOCITY_32 TIME_0": 1541, "NOTE_ON_60 VELOCITY_32 TIME_1": 1542, "NOTE_ON_60 VELOCITY_32 TIME_2": 1543, "NOTE_ON_60 VELOCITY_32 TIME_3": 1544, "NOTE_ON_60 VELOCITY_33 TIME_0": 1545, "NOTE_ON_60 VELOCITY_33 TIME_1": 1546, "NOTE_ON_60 VELOCITY_33 TIME_2": 1547, "NOTE_ON_60 VELOCITY_34 TIME_0": 1548, "NOTE_ON_60 VELOCITY_34 TIME_1": 1549, "NOTE_ON_60 VELOCITY_35 TIME_0": 1550, "NOTE_ON_60 VELOCITY_35 TIME_1": 1551, "NOTE_ON_60 VELOCITY_35 TIME_2": 1552, "NOTE_ON_60 VELOCITY_35 TIME_3": 1553, "NOTE_ON_60 VELOCITY_36 TIME_0": 1554, "NOTE_ON_60 VELOCITY_36 TIME_1": 1555, "NOTE_ON_60 VELOCITY_36 TIME_2": 1556, "NOTE_ON_60 VELOCITY_36 TIME_3": 1557, "NOTE_ON_60 VELOCITY_37 TIME_1": 1558, "NOTE_ON_60 VELOCITY_38 TIME_1": 1559, "NOTE_ON_60 VELOCITY_39 TIME_0": 1560, "NOTE_ON_60 VELOCITY_39 TIME_1": 1561, "NOTE_ON_60 VELOCITY_39 TIME_2": 1562, "NOTE_ON_60 VELOCITY_40 TIME_1": 1563, "NOTE_ON_60 VELOCITY_40 TIME_2": 1564, "NOTE_ON_60 VELOCITY_41 TIME_0": 1565, "NOTE_ON_60 VELOCITY_41 TIME_1": 1566, "NOTE_ON_60 VELOCITY_41 TIME_2": 1567, "NOTE_ON_60 VELOCITY_42 TIME_0": 1568, "NOTE_ON_60 VELOCITY_42 TIME_1": 1569, "NOTE_ON_60 VELOCITY_43 TIME_0": 1570, "NOTE_ON_60 VELOCITY_43 TIME_1": 1571, "NOTE_ON_60 VELOCITY_44 TIME_1": 1572, "NOTE_ON_60 VELOCITY_45 TIME_0": 1573, "NOTE_ON_60 VELOCITY_45 TIME_1": 1574, "NOTE_ON_60 VELOCITY_48 TIME_0": 1575, "NOTE_ON_60 VELOCITY_48 TIME_1": 1576, "NOTE_ON_60 VELOCITY_49 TIME_0": 1577, "NOTE_ON_60 VELOCITY_51 TIME_0": 1578, "NOTE_ON_60 VELOCITY_52 TIME_1": 1579, "NOTE_ON_60 VELOCITY_54 TIME_1": 1580, "NOTE_ON_60 VELOCITY_55 TIME_1": 1581, "NOTE_ON_60 VELOCITY_55 TIME_2": 1582, "NOTE_ON_60 VELOCITY_58 TIME_1": 1583, "NOTE_ON_60 VELOCITY_58 TIME_2": 1584, "NOTE_ON_60 VELOCITY_62 TIME_1": 1585, "NOTE_ON_60 VELOCITY_9 TIME_1": 1586, "NOTE_ON_61": 1587, "NOTE_ON_61 VELOCITY_10 TIME_0": 1588, "NOTE_ON_61 VELOCITY_10 TIME_3": 1589, "NOTE_ON_61 VELOCITY_11 TIME_0": 1590, "NOTE_ON_61 VELOCITY_11 TIME_1": 1591, "NOTE_ON_61 VELOCITY_11 TIME_2": 1592, "NOTE_ON_61 VELOCITY_11 TIME_3": 1593, "NOTE_ON_61 VELOCITY_12 TIME_0": 1594, "NOTE_ON_61 VELOCITY_12 TIME_1": 1595, "NOTE_ON_61 VELOCITY_12 TIME_2": 1596, "NOTE_ON_61 VELOCITY_13 TIME_1": 1597, "NOTE_ON_61 VELOCITY_13 TIME_3": 1598, "NOTE_ON_61 VELOCITY_14 TIME_1": 1599, "NOTE_ON_61 VELOCITY_14 TIME_2": 1600, "NOTE_ON_61 VELOCITY_15 TIME_0": 1601, "NOTE_ON_61 VELOCITY_15 TIME_1": 1602, "NOTE_ON_61 VELOCITY_15 TIME_5": 1603, "NOTE_ON_61 VELOCITY_15 TIME_6": 1604, "NOTE_ON_61 VELOCITY_16 TIME_1": 1605, "NOTE_ON_61 VELOCITY_17 TIME_1": 1606, "NOTE_ON_61 VELOCITY_17 TIME_2": 1607, "NOTE_ON_61 VELOCITY_18 TIME_0": 1608, "NOTE_ON_61 VELOCITY_18 TIME_1": 1609, "NOTE_ON_61 VELOCITY_18 TIME_5": 1610, "NOTE_ON_61 VELOCITY_19 TIME_0": 1611, "NOTE_ON_61 VELOCITY_19 TIME_1": 1612, "NOTE_ON_61 VELOCITY_20 TIME_0": 1613, "NOTE_ON_61 VELOCITY_20 TIME_1": 1614, "NOTE_ON_61 VELOCITY_21 TIME_1": 1615, "NOTE_ON_61 VELOCITY_22 TIME_0": 1616, "NOTE_ON_61 VELOCITY_22 TIME_1": 1617, "NOTE_ON_61 VELOCITY_22 TIME_3": 1618, "NOTE_ON_61 VELOCITY_23 TIME_0": 1619, "NOTE_ON_61 VELOCITY_23 TIME_1": 1620, "NOTE_ON_61 VELOCITY_24 TIME_0": 1621, "NOTE_ON_61 VELOCITY_24 TIME_1": 1622, "NOTE_ON_61 VELOCITY_25 TIME_0": 1623, "NOTE_ON_61 VELOCITY_25 TIME_1": 1624, "NOTE_ON_61 VELOCITY_25 TIME_2": 1625, "NOTE_ON_61 VELOCITY_26 TIME_0": 1626, "NOTE_ON_61 VELOCITY_26 TIME_1": 1627, "NOTE_ON_61 VELOCITY_26 TIME_3": 1628, "NOTE_ON_61 VELOCITY_27 TIME_0": 1629, "NOTE_ON_61 VELOCITY_27 TIME_1": 1630, "NOTE_ON_61 VELOCITY_27 TIME_2": 1631, "NOTE_ON_61 VELOCITY_28 TIME_0": 1632, "NOTE_ON_61 VELOCITY_28 TIME_1": 1633, "NOTE_ON_61 VELOCITY_28 TIME_2": 1634, "NOTE_ON_61 VELOCITY_29 TIME_0": 1635, "NOTE_ON_61 VELOCITY_29 TIME_1": 1636, "NOTE_ON_61 VELOCITY_29 TIME_4": 1637, "NOTE_ON_61 VELOCITY_30 TIME_0": 1638, "NOTE_ON_61 VELOCITY_30 TIME_1": 1639, "NOTE_ON_61 VELOCITY_30 TIME_2": 1640, "NOTE_ON_61 VELOCITY_30 TIME_3": 1641, "NOTE_ON_61 VELOCITY_31 TIME_0": 1642, "NOTE_ON_61 VELOCITY_31 TIME_1": 1643, "NOTE_ON_61 VELOCITY_31 TIME_3": 1644, "NOTE_ON_61 VELOCITY_32 TIME_0": 1645, "NOTE_ON_61 VELOCITY_32 TIME_1": 1646, "NOTE_ON_61 VELOCITY_32 TIME_17": 1647, "NOTE_ON_61 VELOCITY_32 TIME_3": 1648, "NOTE_ON_61 VELOCITY_32 TIME_5": 1649, "NOTE_ON_61 VELOCITY_33 TIME_0": 1650, "NOTE_ON_61 VELOCITY_33 TIME_1": 1651, "NOTE_ON_61 VELOCITY_33 TIME_2": 1652, "NOTE_ON_61 VELOCITY_33 TIME_3": 1653, "NOTE_ON_61 VELOCITY_34 TIME_0": 1654, "NOTE_ON_61 VELOCITY_34 TIME_1": 1655, "NOTE_ON_61 VELOCITY_35 TIME_0": 1656, "NOTE_ON_61 VELOCITY_35 TIME_1": 1657, "NOTE_ON_61 VELOCITY_36 TIME_0": 1658, "NOTE_ON_61 VELOCITY_36 TIME_1": 1659, "NOTE_ON_61 VELOCITY_36 TIME_2": 1660, "NOTE_ON_61 VELOCITY_37 TIME_1": 1661, "NOTE_ON_61 VELOCITY_37 TIME_2": 1662, "NOTE_ON_61 VELOCITY_38 TIME_0": 1663, "NOTE_ON_61 VELOCITY_38 TIME_1": 1664, "NOTE_ON_61 VELOCITY_38 TIME_2": 1665, "NOTE_ON_61 VELOCITY_39 TIME_0": 1666, "NOTE_ON_61 VELOCITY_39 TIME_1": 1667, "NOTE_ON_61 VELOCITY_39 TIME_2": 1668, "NOTE_ON_61 VELOCITY_40 TIME_0": 1669, "NOTE_ON_61 VELOCITY_40 TIME_1": 1670, "NOTE_ON_61 VELOCITY_40 TIME_2": 1671, "NOTE_ON_61 VELOCITY_40 TIME_3": 1672, "NOTE_ON_61 VELOCITY_41 TIME_1": 1673, "NOTE_ON_61 VELOCITY_42 TIME_1": 1674, "NOTE_ON_61 VELOCITY_42 TIME_2": 1675, "NOTE_ON_61 VELOCITY_43 TIME_1": 1676, "NOTE_ON_61 VELOCITY_44 TIME_1": 1677, "NOTE_ON_61 VELOCITY_44 TIME_2": 1678, "NOTE_ON_61 VELOCITY_9 TIME_1": 1679, "NOTE_ON_61 VELOCITY_9 TIME_2": 1680, "NOTE_ON_62": 1681, "NOTE_ON_62 VELOCITY_10 TIME_0": 1682, "NOTE_ON_62 VELOCITY_10 TIME_1": 1683, "NOTE_ON_62 VELOCITY_10 TIME_2": 1684, "NOTE_ON_62 VELOCITY_10 TIME_6": 1685, "NOTE_ON_62 VELOCITY_11 TIME_0": 1686, "NOTE_ON_62 VELOCITY_11 TIME_1": 1687, "NOTE_ON_62 VELOCITY_11 TIME_2": 1688, "NOTE_ON_62 VELOCITY_11 TIME_3": 1689, "NOTE_ON_62 VELOCITY_11 TIME_7": 1690, "NOTE_ON_62 VELOCITY_12 TIME_0": 1691, "NOTE_ON_62 VELOCITY_12 TIME_1": 1692, "NOTE_ON_62 VELOCITY_12 TIME_2": 1693, "NOTE_ON_62 VELOCITY_13 TIME_0": 1694, "NOTE_ON_62 VELOCITY_13 TIME_1": 1695, "NOTE_ON_62 VELOCITY_13 TIME_2": 1696, "NOTE_ON_62 VELOCITY_14 TIME_1": 1697, "NOTE_ON_62 VELOCITY_14 TIME_3": 1698, "NOTE_ON_62 VELOCITY_15 TIME_0": 1699, "NOTE_ON_62 VELOCITY_15 TIME_1": 1700, "NOTE_ON_62 VELOCITY_15 TIME_3": 1701, "NOTE_ON_62 VELOCITY_15 TIME_8": 1702, "NOTE_ON_62 VELOCITY_16 TIME_0": 1703, "NOTE_ON_62 VELOCITY_16 TIME_1": 1704, "NOTE_ON_62 VELOCITY_16 TIME_2": 1705, "NOTE_ON_62 VELOCITY_17 TIME_0": 1706, "NOTE_ON_62 VELOCITY_17 TIME_1": 1707, "NOTE_ON_62 VELOCITY_17 TIME_2": 1708, "NOTE_ON_62 VELOCITY_17 TIME_4": 1709, "NOTE_ON_62 VELOCITY_18 TIME_0": 1710, "NOTE_ON_62 VELOCITY_18 TIME_1": 1711, "NOTE_ON_62 VELOCITY_18 TIME_2": 1712, "NOTE_ON_62 VELOCITY_18 TIME_7": 1713, "NOTE_ON_62 VELOCITY_19 TIME_0": 1714, "NOTE_ON_62 VELOCITY_19 TIME_1": 1715, "NOTE_ON_62 VELOCITY_19 TIME_2": 1716, "NOTE_ON_62 VELOCITY_20 TIME_0": 1717, "NOTE_ON_62 VELOCITY_20 TIME_1": 1718, "NOTE_ON_62 VELOCITY_20 TIME_3": 1719, "NOTE_ON_62 VELOCITY_21 TIME_0": 1720, "NOTE_ON_62 VELOCITY_21 TIME_1": 1721, "NOTE_ON_62 VELOCITY_21 TIME_2": 1722, "NOTE_ON_62 VELOCITY_21 TIME_3": 1723, "NOTE_ON_62 VELOCITY_21 TIME_5": 1724, "NOTE_ON_62 VELOCITY_22 TIME_0": 1725, "NOTE_ON_62 VELOCITY_22 TIME_1": 1726, "NOTE_ON_62 VELOCITY_22 TIME_2": 1727, "NOTE_ON_62 VELOCITY_22 TIME_3": 1728, "NOTE_ON_62 VELOCITY_22 TIME_7": 1729, "NOTE_ON_62 VELOCITY_23 TIME_0": 1730, "NOTE_ON_62 VELOCITY_23 TIME_1": 1731, "NOTE_ON_62 VELOCITY_23 TIME_2": 1732, "NOTE_ON_62 VELOCITY_23 TIME_3": 1733, "NOTE_ON_62 VELOCITY_24 TIME_0": 1734, "NOTE_ON_62 VELOCITY_24 TIME_1": 1735, "NOTE_ON_62 VELOCITY_24 TIME_2": 1736, "NOTE_ON_62 VELOCITY_25 TIME_0": 1737, "NOTE_ON_62 VELOCITY_25 TIME_1": 1738, "NOTE_ON_62 VELOCITY_25 TIME_2": 1739, "NOTE_ON_62 VELOCITY_25 TIME_3": 1740, "NOTE_ON_62 VELOCITY_26 TIME_0": 1741, "NOTE_ON_62 VELOCITY_26 TIME_1": 1742, "NOTE_ON_62 VELOCITY_26 TIME_3": 1743, "NOTE_ON_62 VELOCITY_27 TIME_0": 1744, "NOTE_ON_62 VELOCITY_27 TIME_1": 1745, "NOTE_ON_62 VELOCITY_27 TIME_3": 1746, "NOTE_ON_62 VELOCITY_28 TIME_0": 1747, "NOTE_ON_62 VELOCITY_28 TIME_1": 1748, "NOTE_ON_62 VELOCITY_28 TIME_2": 1749, "NOTE_ON_62 VELOCITY_29 TIME_0": 1750, "NOTE_ON_62 VELOCITY_29 TIME_1": 1751, "NOTE_ON_62 VELOCITY_30 TIME_0": 1752, "NOTE_ON_62 VELOCITY_30 TIME_1": 1753, "NOTE_ON_62 VELOCITY_30 TIME_2": 1754, "NOTE_ON_62 VELOCITY_30 TIME_3": 1755, "NOTE_ON_62 VELOCITY_31 TIME_0": 1756, "NOTE_ON_62 VELOCITY_31 TIME_1": 1757, "NOTE_ON_62 VELOCITY_31 TIME_2": 1758, "NOTE_ON_62 VELOCITY_31 TIME_4": 1759, "NOTE_ON_62 VELOCITY_32 TIME_0": 1760, "NOTE_ON_62 VELOCITY_32 TIME_1": 1761, "NOTE_ON_62 VELOCITY_33 TIME_0": 1762, "NOTE_ON_62 VELOCITY_33 TIME_1": 1763, "NOTE_ON_62 VELOCITY_34 TIME_0": 1764, "NOTE_ON_62 VELOCITY_34 TIME_1": 1765, "NOTE_ON_62 VELOCITY_34 TIME_2": 1766, "NOTE_ON_62 VELOCITY_34 TIME_5": 1767, "NOTE_ON_62 VELOCITY_35 TIME_0": 1768, "NOTE_ON_62 VELOCITY_35 TIME_1": 1769, "NOTE_ON_62 VELOCITY_35 TIME_2": 1770, "NOTE_ON_62 VELOCITY_36 TIME_0": 1771, "NOTE_ON_62 VELOCITY_36 TIME_1": 1772, "NOTE_ON_62 VELOCITY_36 TIME_2": 1773, "NOTE_ON_62 VELOCITY_37 TIME_0": 1774, "NOTE_ON_62 VELOCITY_37 TIME_1": 1775, "NOTE_ON_62 VELOCITY_37 TIME_2": 1776, "NOTE_ON_62 VELOCITY_38 TIME_0": 1777, "NOTE_ON_62 VELOCITY_38 TIME_1": 1778, "NOTE_ON_62 VELOCITY_38 TIME_2": 1779, "NOTE_ON_62 VELOCITY_39 TIME_0": 1780, "NOTE_ON_62 VELOCITY_39 TIME_1": 1781, "NOTE_ON_62 VELOCITY_39 TIME_2": 1782, "NOTE_ON_62 VELOCITY_39 TIME_5": 1783, "NOTE_ON_62 VELOCITY_40 TIME_0": 1784, "NOTE_ON_62 VELOCITY_40 TIME_1": 1785, "NOTE_ON_62 VELOCITY_40 TIME_2": 1786, "NOTE_ON_62 VELOCITY_40 TIME_5": 1787, "NOTE_ON_62 VELOCITY_41 TIME_0": 1788, "NOTE_ON_62 VELOCITY_41 TIME_1": 1789, "NOTE_ON_62 VELOCITY_41 TIME_2": 1790, "NOTE_ON_62 VELOCITY_42 TIME_0": 1791, "NOTE_ON_62 VELOCITY_42 TIME_1": 1792, "NOTE_ON_62 VELOCITY_43 TIME_0": 1793, "NOTE_ON_62 VELOCITY_43 TIME_1": 1794, "NOTE_ON_62 VELOCITY_43 TIME_2": 1795, "NOTE_ON_62 VELOCITY_44 TIME_0": 1796, "NOTE_ON_62 VELOCITY_44 TIME_1": 1797, "NOTE_ON_62 VELOCITY_45 TIME_0": 1798, "NOTE_ON_62 VELOCITY_45 TIME_1": 1799, "NOTE_ON_62 VELOCITY_45 TIME_3": 1800, "NOTE_ON_62 VELOCITY_46 TIME_0": 1801, "NOTE_ON_62 VELOCITY_46 TIME_1": 1802, "NOTE_ON_62 VELOCITY_47 TIME_0": 1803, "NOTE_ON_62 VELOCITY_47 TIME_1": 1804, "NOTE_ON_62 VELOCITY_47 TIME_3": 1805, "NOTE_ON_62 VELOCITY_47 TIME_7": 1806, "NOTE_ON_62 VELOCITY_48 TIME_0": 1807, "NOTE_ON_62 VELOCITY_48 TIME_1": 1808, "NOTE_ON_62 VELOCITY_48 TIME_2": 1809, "NOTE_ON_62 VELOCITY_49 TIME_1": 1810, "NOTE_ON_62 VELOCITY_50 TIME_0": 1811, "NOTE_ON_62 VELOCITY_51 TIME_0": 1812, "NOTE_ON_62 VELOCITY_51 TIME_1": 1813, "NOTE_ON_62 VELOCITY_54 TIME_0": 1814, "NOTE_ON_62 VELOCITY_54 TIME_1": 1815, "NOTE_ON_62 VELOCITY_9 TIME_0": 1816, "NOTE_ON_62 VELOCITY_9 TIME_1": 1817, "NOTE_ON_62 VELOCITY_9 TIME_12": 1818, "NOTE_ON_62 VELOCITY_9 TIME_3": 1819, "NOTE_ON_62 VELOCITY_9 TIME_7": 1820, "NOTE_ON_63": 1821, "NOTE_ON_63 VELOCITY_10 TIME_1": 1822, "NOTE_ON_63 VELOCITY_13 TIME_0": 1823, "NOTE_ON_63 VELOCITY_13 TIME_1": 1824, "NOTE_ON_63 VELOCITY_14 TIME_0": 1825, "NOTE_ON_63 VELOCITY_14 TIME_1": 1826, "NOTE_ON_63 VELOCITY_14 TIME_2": 1827, "NOTE_ON_63 VELOCITY_15 TIME_0": 1828, "NOTE_ON_63 VELOCITY_15 TIME_1": 1829, "NOTE_ON_63 VELOCITY_16 TIME_0": 1830, "NOTE_ON_63 VELOCITY_16 TIME_1": 1831, "NOTE_ON_63 VELOCITY_16 TIME_2": 1832, "NOTE_ON_63 VELOCITY_18 TIME_0": 1833, "NOTE_ON_63 VELOCITY_19 TIME_0": 1834, "NOTE_ON_63 VELOCITY_19 TIME_1": 1835, "NOTE_ON_63 VELOCITY_21 TIME_1": 1836, "NOTE_ON_63 VELOCITY_23 TIME_0": 1837, "NOTE_ON_63 VELOCITY_24 TIME_0": 1838, "NOTE_ON_63 VELOCITY_24 TIME_2": 1839, "NOTE_ON_63 VELOCITY_25 TIME_0": 1840, "NOTE_ON_63 VELOCITY_26 TIME_1": 1841, "NOTE_ON_63 VELOCITY_27 TIME_0": 1842, "NOTE_ON_63 VELOCITY_27 TIME_1": 1843, "NOTE_ON_63 VELOCITY_29 TIME_1": 1844, "NOTE_ON_63 VELOCITY_30 TIME_1": 1845, "NOTE_ON_63 VELOCITY_31 TIME_1": 1846, "NOTE_ON_63 VELOCITY_32 TIME_0": 1847, "NOTE_ON_63 VELOCITY_32 TIME_1": 1848, "NOTE_ON_63 VELOCITY_35 TIME_1": 1849, "NOTE_ON_63 VELOCITY_37 TIME_2": 1850, "NOTE_ON_64": 1851, "NOTE_ON_64 VELOCITY_10 TIME_1": 1852, "NOTE_ON_64 VELOCITY_11 TIME_1": 1853, "NOTE_ON_64 VELOCITY_11 TIME_3": 1854, "NOTE_ON_64 VELOCITY_12 TIME_0": 1855, "NOTE_ON_64 VELOCITY_12 TIME_1": 1856, "NOTE_ON_64 VELOCITY_12 TIME_2": 1857, "NOTE_ON_64 VELOCITY_13 TIME_0": 1858, "NOTE_ON_64 VELOCITY_13 TIME_1": 1859, "NOTE_ON_64 VELOCITY_14 TIME_0": 1860, "NOTE_ON_64 VELOCITY_14 TIME_1": 1861, "NOTE_ON_64 VELOCITY_15 TIME_0": 1862, "NOTE_ON_64 VELOCITY_15 TIME_1": 1863, "NOTE_ON_64 VELOCITY_15 TIME_2": 1864, "NOTE_ON_64 VELOCITY_16 TIME_0": 1865, "NOTE_ON_64 VELOCITY_16 TIME_1": 1866, "NOTE_ON_64 VELOCITY_17 TIME_0": 1867, "NOTE_ON_64 VELOCITY_17 TIME_1": 1868, "NOTE_ON_64 VELOCITY_17 TIME_3": 1869, "NOTE_ON_64 VELOCITY_18 TIME_0": 1870, "NOTE_ON_64 VELOCITY_18 TIME_1": 1871, "NOTE_ON_64 VELOCITY_19 TIME_0": 1872, "NOTE_ON_64 VELOCITY_19 TIME_1": 1873, "NOTE_ON_64 VELOCITY_19 TIME_13": 1874, "NOTE_ON_64 VELOCITY_20 TIME_0": 1875, "NOTE_ON_64 VELOCITY_20 TIME_1": 1876, "NOTE_ON_64 VELOCITY_20 TIME_5": 1877, "NOTE_ON_64 VELOCITY_21 TIME_0": 1878, "NOTE_ON_64 VELOCITY_21 TIME_1": 1879, "NOTE_ON_64 VELOCITY_22 TIME_0": 1880, "NOTE_ON_64 VELOCITY_22 TIME_1": 1881, "NOTE_ON_64 VELOCITY_22 TIME_2": 1882, "NOTE_ON_64 VELOCITY_23 TIME_0": 1883, "NOTE_ON_64 VELOCITY_23 TIME_1": 1884, "NOTE_ON_64 VELOCITY_23 TIME_2": 1885, "NOTE_ON_64 VELOCITY_24 TIME_0": 1886, "NOTE_ON_64 VELOCITY_24 TIME_1": 1887, "NOTE_ON_64 VELOCITY_24 TIME_2": 1888, "NOTE_ON_64 VELOCITY_25 TIME_0": 1889, "NOTE_ON_64 VELOCITY_25 TIME_1": 1890, "NOTE_ON_64 VELOCITY_25 TIME_2": 1891, "NOTE_ON_64 VELOCITY_26 TIME_0": 1892, "NOTE_ON_64 VELOCITY_26 TIME_1": 1893, "NOTE_ON_64 VELOCITY_27 TIME_1": 1894, "NOTE_ON_64 VELOCITY_27 TIME_2": 1895, "NOTE_ON_64 VELOCITY_27 TIME_3": 1896, "NOTE_ON_64 VELOCITY_28 TIME_0": 1897, "NOTE_ON_64 VELOCITY_28 TIME_1": 1898, "NOTE_ON_64 VELOCITY_28 TIME_2": 1899, "NOTE_ON_64 VELOCITY_29 TIME_0": 1900, "NOTE_ON_64 VELOCITY_29 TIME_1": 1901, "NOTE_ON_64 VELOCITY_30 TIME_0": 1902, "NOTE_ON_64 VELOCITY_30 TIME_1": 1903, "NOTE_ON_64 VELOCITY_30 TIME_3": 1904, "NOTE_ON_64 VELOCITY_31 TIME_0": 1905, "NOTE_ON_64 VELOCITY_31 TIME_1": 1906, "NOTE_ON_64 VELOCITY_31 TIME_3": 1907, "NOTE_ON_64 VELOCITY_31 TIME_4": 1908, "NOTE_ON_64 VELOCITY_32 TIME_0": 1909, "NOTE_ON_64 VELOCITY_32 TIME_1": 1910, "NOTE_ON_64 VELOCITY_32 TIME_2": 1911, "NOTE_ON_64 VELOCITY_32 TIME_3": 1912, "NOTE_ON_64 VELOCITY_33 TIME_0": 1913, "NOTE_ON_64 VELOCITY_33 TIME_1": 1914, "NOTE_ON_64 VELOCITY_33 TIME_2": 1915, "NOTE_ON_64 VELOCITY_33 TIME_3": 1916, "NOTE_ON_64 VELOCITY_34 TIME_0": 1917, "NOTE_ON_64 VELOCITY_34 TIME_1": 1918, "NOTE_ON_64 VELOCITY_34 TIME_2": 1919, "NOTE_ON_64 VELOCITY_34 TIME_3": 1920, "NOTE_ON_64 VELOCITY_35 TIME_0": 1921, "NOTE_ON_64 VELOCITY_35 TIME_1": 1922, "NOTE_ON_64 VELOCITY_35 TIME_2": 1923, "NOTE_ON_64 VELOCITY_36 TIME_0": 1924, "NOTE_ON_64 VELOCITY_36 TIME_1": 1925, "NOTE_ON_64 VELOCITY_37 TIME_0": 1926, "NOTE_ON_64 VELOCITY_37 TIME_1": 1927, "NOTE_ON_64 VELOCITY_38 TIME_0": 1928, "NOTE_ON_64 VELOCITY_38 TIME_1": 1929, "NOTE_ON_64 VELOCITY_38 TIME_2": 1930, "NOTE_ON_64 VELOCITY_39 TIME_0": 1931, "NOTE_ON_64 VELOCITY_39 TIME_1": 1932, "NOTE_ON_64 VELOCITY_39 TIME_2": 1933, "NOTE_ON_64 VELOCITY_40 TIME_1": 1934, "NOTE_ON_64 VELOCITY_40 TIME_5": 1935, "NOTE_ON_64 VELOCITY_41 TIME_0": 1936, "NOTE_ON_64 VELOCITY_41 TIME_1": 1937, "NOTE_ON_64 VELOCITY_42 TIME_0": 1938, "NOTE_ON_64 VELOCITY_42 TIME_1": 1939, "NOTE_ON_64 VELOCITY_43 TIME_1": 1940, "NOTE_ON_64 VELOCITY_44 TIME_0": 1941, "NOTE_ON_64 VELOCITY_44 TIME_1": 1942, "NOTE_ON_64 VELOCITY_44 TIME_2": 1943, "NOTE_ON_64 VELOCITY_45 TIME_1": 1944, "NOTE_ON_64 VELOCITY_45 TIME_6": 1945, "NOTE_ON_64 VELOCITY_46 TIME_0": 1946, "NOTE_ON_64 VELOCITY_46 TIME_1": 1947, "NOTE_ON_64 VELOCITY_47 TIME_0": 1948, "NOTE_ON_64 VELOCITY_47 TIME_1": 1949, "NOTE_ON_64 VELOCITY_48 TIME_0": 1950, "NOTE_ON_64 VELOCITY_48 TIME_1": 1951, "NOTE_ON_64 VELOCITY_48 TIME_2": 1952, "NOTE_ON_64 VELOCITY_49 TIME_0": 1953, "NOTE_ON_64 VELOCITY_49 TIME_1": 1954, "NOTE_ON_64 VELOCITY_50 TIME_0": 1955, "NOTE_ON_64 VELOCITY_51 TIME_0": 1956, "NOTE_ON_64 VELOCITY_52 TIME_1": 1957, "NOTE_ON_64 VELOCITY_53 TIME_0": 1958, "NOTE_ON_64 VELOCITY_55 TIME_1": 1959, "NOTE_ON_64 VELOCITY_58 TIME_1": 1960, "NOTE_ON_64 VELOCITY_9 TIME_0": 1961, "NOTE_ON_64 VELOCITY_9 TIME_1": 1962, "NOTE_ON_65": 1963, "NOTE_ON_65 VELOCITY_10 TIME_0": 1964, "NOTE_ON_65 VELOCITY_11 TIME_0": 1965, "NOTE_ON_65 VELOCITY_11 TIME_1": 1966, "NOTE_ON_65 VELOCITY_12 TIME_1": 1967, "NOTE_ON_65 VELOCITY_13 TIME_0": 1968, "NOTE_ON_65 VELOCITY_13 TIME_1": 1969, "NOTE_ON_65 VELOCITY_13 TIME_3": 1970, "NOTE_ON_65 VELOCITY_13 TIME_5": 1971, "NOTE_ON_65 VELOCITY_14 TIME_0": 1972, "NOTE_ON_65 VELOCITY_15 TIME_0": 1973, "NOTE_ON_65 VELOCITY_15 TIME_1": 1974, "NOTE_ON_65 VELOCITY_16 TIME_1": 1975, "NOTE_ON_65 VELOCITY_16 TIME_2": 1976, "NOTE_ON_65 VELOCITY_17 TIME_0": 1977, "NOTE_ON_65 VELOCITY_17 TIME_1": 1978, "NOTE_ON_65 VELOCITY_18 TIME_0": 1979, "NOTE_ON_65 VELOCITY_18 TIME_1": 1980, "NOTE_ON_65 VELOCITY_18 TIME_2": 1981, "NOTE_ON_65 VELOCITY_19 TIME_0": 1982, "NOTE_ON_65 VELOCITY_19 TIME_1": 1983, "NOTE_ON_65 VELOCITY_19 TIME_2": 1984, "NOTE_ON_65 VELOCITY_20 TIME_0": 1985, "NOTE_ON_65 VELOCITY_20 TIME_2": 1986, "NOTE_ON_65 VELOCITY_21 TIME_0": 1987, "NOTE_ON_65 VELOCITY_21 TIME_1": 1988, "NOTE_ON_65 VELOCITY_22 TIME_0": 1989, "NOTE_ON_65 VELOCITY_22 TIME_1": 1990, "NOTE_ON_65 VELOCITY_22 TIME_2": 1991, "NOTE_ON_65 VELOCITY_22 TIME_3": 1992, "NOTE_ON_65 VELOCITY_23 TIME_0": 1993, "NOTE_ON_65 VELOCITY_23 TIME_1": 1994, "NOTE_ON_65 VELOCITY_23 TIME_2": 1995, "NOTE_ON_65 VELOCITY_24 TIME_0": 1996, "NOTE_ON_65 VELOCITY_24 TIME_1": 1997, "NOTE_ON_65 VELOCITY_24 TIME_3": 1998, "NOTE_ON_65 VELOCITY_25 TIME_0": 1999, "NOTE_ON_65 VELOCITY_25 TIME_1": 2000, "NOTE_ON_65 VELOCITY_26 TIME_0": 2001, "NOTE_ON_65 VELOCITY_27 TIME_0": 2002, "NOTE_ON_65 VELOCITY_27 TIME_1": 2003, "NOTE_ON_65 VELOCITY_27 TIME_4": 2004, "NOTE_ON_65 VELOCITY_28 TIME_0": 2005, "NOTE_ON_65 VELOCITY_28 TIME_1": 2006, "NOTE_ON_65 VELOCITY_28 TIME_3": 2007, "NOTE_ON_65 VELOCITY_29 TIME_0": 2008, "NOTE_ON_65 VELOCITY_29 TIME_1": 2009, "NOTE_ON_65 VELOCITY_29 TIME_2": 2010, "NOTE_ON_65 VELOCITY_30 TIME_0": 2011, "NOTE_ON_65 VELOCITY_30 TIME_1": 2012, "NOTE_ON_65 VELOCITY_31 TIME_0": 2013, "NOTE_ON_65 VELOCITY_31 TIME_1": 2014, "NOTE_ON_65 VELOCITY_31 TIME_4": 2015, "NOTE_ON_65 VELOCITY_32 TIME_0": 2016, "NOTE_ON_65 VELOCITY_32 TIME_1": 2017, "NOTE_ON_65 VELOCITY_33 TIME_0": 2018, "NOTE_ON_65 VELOCITY_33 TIME_1": 2019, "NOTE_ON_65 VELOCITY_33 TIME_2": 2020, "NOTE_ON_65 VELOCITY_34 TIME_0": 2021, "NOTE_ON_65 VELOCITY_34 TIME_1": 2022, "NOTE_ON_65 VELOCITY_34 TIME_2": 2023, "NOTE_ON_65 VELOCITY_35 TIME_0": 2024, "NOTE_ON_65 VELOCITY_35 TIME_1": 2025, "NOTE_ON_65 VELOCITY_35 TIME_2": 2026, "NOTE_ON_65 VELOCITY_36 TIME_0": 2027, "NOTE_ON_65 VELOCITY_36 TIME_1": 2028, "NOTE_ON_65 VELOCITY_37 TIME_0": 2029, "NOTE_ON_65 VELOCITY_37 TIME_1": 2030, "NOTE_ON_65 VELOCITY_38 TIME_0": 2031, "NOTE_ON_65 VELOCITY_38 TIME_1": 2032, "NOTE_ON_65 VELOCITY_39 TIME_0": 2033, "NOTE_ON_65 VELOCITY_39 TIME_1": 2034, "NOTE_ON_65 VELOCITY_40 TIME_1": 2035, "NOTE_ON_65 VELOCITY_42 TIME_1": 2036, "NOTE_ON_65 VELOCITY_44 TIME_0": 2037, "NOTE_ON_65 VELOCITY_44 TIME_3": 2038, "NOTE_ON_65 VELOCITY_45 TIME_1": 2039, "NOTE_ON_65 VELOCITY_46 TIME_0": 2040, "NOTE_ON_65 VELOCITY_47 TIME_0": 2041, "NOTE_ON_65 VELOCITY_47 TIME_1": 2042, "NOTE_ON_65 VELOCITY_50 TIME_0": 2043, "NOTE_ON_65 VELOCITY_50 TIME_2": 2044, "NOTE_ON_65 VELOCITY_51 TIME_0": 2045, "NOTE_ON_65 VELOCITY_53 TIME_0": 2046, "NOTE_ON_65 VELOCITY_53 TIME_1": 2047, "NOTE_ON_65 VELOCITY_59 TIME_5": 2048, "NOTE_ON_65 VELOCITY_9 TIME_0": 2049, "NOTE_ON_66": 2050, "NOTE_ON_66 VELOCITY_10 TIME_0": 2051, "NOTE_ON_66 VELOCITY_10 TIME_2": 2052, "NOTE_ON_66 VELOCITY_11 TIME_0": 2053, "NOTE_ON_66 VELOCITY_11 TIME_1": 2054, "NOTE_ON_66 VELOCITY_12 TIME_0": 2055, "NOTE_ON_66 VELOCITY_12 TIME_1": 2056, "NOTE_ON_66 VELOCITY_12 TIME_3": 2057, "NOTE_ON_66 VELOCITY_13 TIME_0": 2058, "NOTE_ON_66 VELOCITY_13 TIME_1": 2059, "NOTE_ON_66 VELOCITY_14 TIME_0": 2060, "NOTE_ON_66 VELOCITY_14 TIME_1": 2061, "NOTE_ON_66 VELOCITY_14 TIME_2": 2062, "NOTE_ON_66 VELOCITY_14 TIME_3": 2063, "NOTE_ON_66 VELOCITY_15 TIME_0": 2064, "NOTE_ON_66 VELOCITY_15 TIME_1": 2065, "NOTE_ON_66 VELOCITY_15 TIME_2": 2066, "NOTE_ON_66 VELOCITY_16 TIME_0": 2067, "NOTE_ON_66 VELOCITY_16 TIME_1": 2068, "NOTE_ON_66 VELOCITY_16 TIME_2": 2069, "NOTE_ON_66 VELOCITY_17 TIME_0": 2070, "NOTE_ON_66 VELOCITY_17 TIME_1": 2071, "NOTE_ON_66 VELOCITY_18 TIME_0": 2072, "NOTE_ON_66 VELOCITY_18 TIME_1": 2073, "NOTE_ON_66 VELOCITY_18 TIME_3": 2074, "NOTE_ON_66 VELOCITY_19 TIME_0": 2075, "NOTE_ON_66 VELOCITY_19 TIME_1": 2076, "NOTE_ON_66 VELOCITY_20 TIME_0": 2077, "NOTE_ON_66 VELOCITY_20 TIME_1": 2078, "NOTE_ON_66 VELOCITY_21 TIME_0": 2079, "NOTE_ON_66 VELOCITY_21 TIME_1": 2080, "NOTE_ON_66 VELOCITY_22 TIME_0": 2081, "NOTE_ON_66 VELOCITY_22 TIME_1": 2082, "NOTE_ON_66 VELOCITY_22 TIME_2": 2083, "NOTE_ON_66 VELOCITY_22 TIME_5": 2084, "NOTE_ON_66 VELOCITY_23 TIME_0": 2085, "NOTE_ON_66 VELOCITY_23 TIME_1": 2086, "NOTE_ON_66 VELOCITY_24 TIME_0": 2087, "NOTE_ON_66 VELOCITY_24 TIME_1": 2088, "NOTE_ON_66 VELOCITY_24 TIME_3": 2089, "NOTE_ON_66 VELOCITY_24 TIME_5": 2090, "NOTE_ON_66 VELOCITY_25 TIME_0": 2091, "NOTE_ON_66 VELOCITY_25 TIME_1": 2092, "NOTE_ON_66 VELOCITY_25 TIME_2": 2093, "NOTE_ON_66 VELOCITY_26 TIME_0": 2094, "NOTE_ON_66 VELOCITY_26 TIME_1": 2095, "NOTE_ON_66 VELOCITY_26 TIME_2": 2096, "NOTE_ON_66 VELOCITY_27 TIME_0": 2097, "NOTE_ON_66 VELOCITY_27 TIME_1": 2098, "NOTE_ON_66 VELOCITY_28 TIME_0": 2099, "NOTE_ON_66 VELOCITY_28 TIME_1": 2100, "NOTE_ON_66 VELOCITY_28 TIME_2": 2101, "NOTE_ON_66 VELOCITY_29 TIME_0": 2102, "NOTE_ON_66 VELOCITY_29 TIME_1": 2103, "NOTE_ON_66 VELOCITY_30 TIME_1": 2104, "NOTE_ON_66 VELOCITY_30 TIME_2": 2105, "NOTE_ON_66 VELOCITY_31 TIME_1": 2106, "NOTE_ON_66 VELOCITY_31 TIME_2": 2107, "NOTE_ON_66 VELOCITY_31 TIME_3": 2108, "NOTE_ON_66 VELOCITY_32 TIME_0": 2109, "NOTE_ON_66 VELOCITY_32 TIME_1": 2110, "NOTE_ON_66 VELOCITY_32 TIME_2": 2111, "NOTE_ON_66 VELOCITY_33 TIME_0": 2112, "NOTE_ON_66 VELOCITY_33 TIME_1": 2113, "NOTE_ON_66 VELOCITY_33 TIME_2": 2114, "NOTE_ON_66 VELOCITY_33 TIME_4": 2115, "NOTE_ON_66 VELOCITY_34 TIME_0": 2116, "NOTE_ON_66 VELOCITY_34 TIME_1": 2117, "NOTE_ON_66 VELOCITY_34 TIME_2": 2118, "NOTE_ON_66 VELOCITY_34 TIME_3": 2119, "NOTE_ON_66 VELOCITY_35 TIME_0": 2120, "NOTE_ON_66 VELOCITY_35 TIME_1": 2121, "NOTE_ON_66 VELOCITY_35 TIME_2": 2122, "NOTE_ON_66 VELOCITY_36 TIME_0": 2123, "NOTE_ON_66 VELOCITY_36 TIME_1": 2124, "NOTE_ON_66 VELOCITY_37 TIME_0": 2125, "NOTE_ON_66 VELOCITY_37 TIME_1": 2126, "NOTE_ON_66 VELOCITY_38 TIME_0": 2127, "NOTE_ON_66 VELOCITY_38 TIME_1": 2128, "NOTE_ON_66 VELOCITY_39 TIME_0": 2129, "NOTE_ON_66 VELOCITY_39 TIME_1": 2130, "NOTE_ON_66 VELOCITY_39 TIME_2": 2131, "NOTE_ON_66 VELOCITY_39 TIME_3": 2132, "NOTE_ON_66 VELOCITY_41 TIME_1": 2133, "NOTE_ON_66 VELOCITY_43 TIME_0": 2134, "NOTE_ON_66 VELOCITY_44 TIME_0": 2135, "NOTE_ON_66 VELOCITY_44 TIME_1": 2136, "NOTE_ON_66 VELOCITY_45 TIME_1": 2137, "NOTE_ON_66 VELOCITY_46 TIME_0": 2138, "NOTE_ON_66 VELOCITY_48 TIME_0": 2139, "NOTE_ON_66 VELOCITY_9 TIME_0": 2140, "NOTE_ON_66 VELOCITY_9 TIME_1": 2141, "NOTE_ON_67": 2142, "NOTE_ON_67 VELOCITY_10 TIME_1": 2143, "NOTE_ON_67 VELOCITY_11 TIME_0": 2144, "NOTE_ON_67 VELOCITY_11 TIME_1": 2145, "NOTE_ON_67 VELOCITY_11 TIME_2": 2146, "NOTE_ON_67 VELOCITY_12 TIME_0": 2147, "NOTE_ON_67 VELOCITY_12 TIME_1": 2148, "NOTE_ON_67 VELOCITY_12 TIME_2": 2149, "NOTE_ON_67 VELOCITY_12 TIME_3": 2150, "NOTE_ON_67 VELOCITY_13 TIME_0": 2151, "NOTE_ON_67 VELOCITY_13 TIME_1": 2152, "NOTE_ON_67 VELOCITY_13 TIME_2": 2153, "NOTE_ON_67 VELOCITY_13 TIME_20": 2154, "NOTE_ON_67 VELOCITY_14 TIME_0": 2155, "NOTE_ON_67 VELOCITY_14 TIME_1": 2156, "NOTE_ON_67 VELOCITY_15 TIME_0": 2157, "NOTE_ON_67 VELOCITY_15 TIME_1": 2158, "NOTE_ON_67 VELOCITY_16 TIME_0": 2159, "NOTE_ON_67 VELOCITY_16 TIME_1": 2160, "NOTE_ON_67 VELOCITY_16 TIME_2": 2161, "NOTE_ON_67 VELOCITY_17 TIME_0": 2162, "NOTE_ON_67 VELOCITY_17 TIME_1": 2163, "NOTE_ON_67 VELOCITY_18 TIME_0": 2164, "NOTE_ON_67 VELOCITY_18 TIME_1": 2165, "NOTE_ON_67 VELOCITY_18 TIME_2": 2166, "NOTE_ON_67 VELOCITY_19 TIME_0": 2167, "NOTE_ON_67 VELOCITY_19 TIME_1": 2168, "NOTE_ON_67 VELOCITY_20 TIME_0": 2169, "NOTE_ON_67 VELOCITY_20 TIME_1": 2170, "NOTE_ON_67 VELOCITY_21 TIME_0": 2171, "NOTE_ON_67 VELOCITY_21 TIME_1": 2172, "NOTE_ON_67 VELOCITY_22 TIME_0": 2173, "NOTE_ON_67 VELOCITY_22 TIME_1": 2174, "NOTE_ON_67 VELOCITY_23 TIME_0": 2175, "NOTE_ON_67 VELOCITY_23 TIME_1": 2176, "NOTE_ON_67 VELOCITY_24 TIME_0": 2177, "NOTE_ON_67 VELOCITY_24 TIME_1": 2178, "NOTE_ON_67 VELOCITY_25 TIME_0": 2179, "NOTE_ON_67 VELOCITY_26 TIME_0": 2180, "NOTE_ON_67 VELOCITY_27 TIME_0": 2181, "NOTE_ON_67 VELOCITY_27 TIME_1": 2182, "NOTE_ON_67 VELOCITY_27 TIME_3": 2183, "NOTE_ON_67 VELOCITY_28 TIME_0": 2184, "NOTE_ON_67 VELOCITY_28 TIME_1": 2185, "NOTE_ON_67 VELOCITY_29 TIME_0": 2186, "NOTE_ON_67 VELOCITY_29 TIME_1": 2187, "NOTE_ON_67 VELOCITY_29 TIME_2": 2188, "NOTE_ON_67 VELOCITY_30 TIME_0": 2189, "NOTE_ON_67 VELOCITY_30 TIME_1": 2190, "NOTE_ON_67 VELOCITY_31 TIME_0": 2191, "NOTE_ON_67 VELOCITY_31 TIME_1": 2192, "NOTE_ON_67 VELOCITY_31 TIME_3": 2193, "NOTE_ON_67 VELOCITY_32 TIME_0": 2194, "NOTE_ON_67 VELOCITY_32 TIME_1": 2195, "NOTE_ON_67 VELOCITY_33 TIME_0": 2196, "NOTE_ON_67 VELOCITY_33 TIME_1": 2197, "NOTE_ON_67 VELOCITY_33 TIME_2": 2198, "NOTE_ON_67 VELOCITY_34 TIME_0": 2199, "NOTE_ON_67 VELOCITY_34 TIME_2": 2200, "NOTE_ON_67 VELOCITY_35 TIME_0": 2201, "NOTE_ON_67 VELOCITY_36 TIME_0": 2202, "NOTE_ON_67 VELOCITY_36 TIME_3": 2203, "NOTE_ON_67 VELOCITY_37 TIME_0": 2204, "NOTE_ON_67 VELOCITY_38 TIME_0": 2205, "NOTE_ON_67 VELOCITY_38 TIME_1": 2206, "NOTE_ON_67 VELOCITY_39 TIME_0": 2207, "NOTE_ON_67 VELOCITY_40 TIME_0": 2208, "NOTE_ON_67 VELOCITY_41 TIME_0": 2209, "NOTE_ON_67 VELOCITY_41 TIME_1": 2210, "NOTE_ON_67 VELOCITY_42 TIME_0": 2211, "NOTE_ON_67 VELOCITY_42 TIME_1": 2212, "NOTE_ON_67 VELOCITY_44 TIME_0": 2213, "NOTE_ON_67 VELOCITY_46 TIME_0": 2214, "NOTE_ON_67 VELOCITY_48 TIME_0": 2215, "NOTE_ON_67 VELOCITY_48 TIME_1": 2216, "NOTE_ON_67 VELOCITY_50 TIME_0": 2217, "NOTE_ON_67 VELOCITY_50 TIME_1": 2218, "NOTE_ON_67 VELOCITY_51 TIME_1": 2219, "NOTE_ON_67 VELOCITY_53 TIME_2": 2220, "NOTE_ON_67 VELOCITY_9 TIME_0": 2221, "NOTE_ON_67 VELOCITY_9 TIME_2": 2222, "NOTE_ON_68": 2223, "NOTE_ON_68 VELOCITY_11 TIME_0": 2224, "NOTE_ON_68 VELOCITY_11 TIME_1": 2225, "NOTE_ON_68 VELOCITY_11 TIME_6": 2226, "NOTE_ON_68 VELOCITY_13 TIME_1": 2227, "NOTE_ON_68 VELOCITY_14 TIME_0": 2228, "NOTE_ON_68 VELOCITY_15 TIME_0": 2229, "NOTE_ON_68 VELOCITY_15 TIME_1": 2230, "NOTE_ON_68 VELOCITY_16 TIME_0": 2231, "NOTE_ON_68 VELOCITY_17 TIME_0": 2232, "NOTE_ON_68 VELOCITY_17 TIME_1": 2233, "NOTE_ON_68 VELOCITY_18 TIME_0": 2234, "NOTE_ON_68 VELOCITY_18 TIME_1": 2235, "NOTE_ON_68 VELOCITY_19 TIME_0": 2236, "NOTE_ON_68 VELOCITY_19 TIME_1": 2237, "NOTE_ON_68 VELOCITY_19 TIME_2": 2238, "NOTE_ON_68 VELOCITY_20 TIME_0": 2239, "NOTE_ON_68 VELOCITY_20 TIME_1": 2240, "NOTE_ON_68 VELOCITY_20 TIME_5": 2241, "NOTE_ON_68 VELOCITY_21 TIME_0": 2242, "NOTE_ON_68 VELOCITY_21 TIME_1": 2243, "NOTE_ON_68 VELOCITY_21 TIME_2": 2244, "NOTE_ON_68 VELOCITY_22 TIME_0": 2245, "NOTE_ON_68 VELOCITY_22 TIME_1": 2246, "NOTE_ON_68 VELOCITY_23 TIME_0": 2247, "NOTE_ON_68 VELOCITY_23 TIME_1": 2248, "NOTE_ON_68 VELOCITY_24 TIME_1": 2249, "NOTE_ON_68 VELOCITY_25 TIME_0": 2250, "NOTE_ON_68 VELOCITY_25 TIME_1": 2251, "NOTE_ON_68 VELOCITY_26 TIME_0": 2252, "NOTE_ON_68 VELOCITY_26 TIME_1": 2253, "NOTE_ON_68 VELOCITY_27 TIME_1": 2254, "NOTE_ON_68 VELOCITY_28 TIME_0": 2255, "NOTE_ON_68 VELOCITY_28 TIME_1": 2256, "NOTE_ON_68 VELOCITY_29 TIME_0": 2257, "NOTE_ON_68 VELOCITY_29 TIME_1": 2258, "NOTE_ON_68 VELOCITY_29 TIME_2": 2259, "NOTE_ON_68 VELOCITY_29 TIME_4": 2260, "NOTE_ON_68 VELOCITY_30 TIME_0": 2261, "NOTE_ON_68 VELOCITY_30 TIME_1": 2262, "NOTE_ON_68 VELOCITY_31 TIME_0": 2263, "NOTE_ON_68 VELOCITY_31 TIME_1": 2264, "NOTE_ON_68 VELOCITY_31 TIME_2": 2265, "NOTE_ON_68 VELOCITY_31 TIME_3": 2266, "NOTE_ON_68 VELOCITY_32 TIME_0": 2267, "NOTE_ON_68 VELOCITY_32 TIME_1": 2268, "NOTE_ON_68 VELOCITY_32 TIME_2": 2269, "NOTE_ON_68 VELOCITY_33 TIME_0": 2270, "NOTE_ON_68 VELOCITY_33 TIME_1": 2271, "NOTE_ON_68 VELOCITY_33 TIME_2": 2272, "NOTE_ON_68 VELOCITY_34 TIME_0": 2273, "NOTE_ON_68 VELOCITY_34 TIME_1": 2274, "NOTE_ON_68 VELOCITY_35 TIME_0": 2275, "NOTE_ON_68 VELOCITY_35 TIME_1": 2276, "NOTE_ON_68 VELOCITY_36 TIME_0": 2277, "NOTE_ON_68 VELOCITY_36 TIME_1": 2278, "NOTE_ON_68 VELOCITY_36 TIME_2": 2279, "NOTE_ON_68 VELOCITY_37 TIME_0": 2280, "NOTE_ON_68 VELOCITY_37 TIME_1": 2281, "NOTE_ON_68 VELOCITY_38 TIME_1": 2282, "NOTE_ON_68 VELOCITY_38 TIME_2": 2283, "NOTE_ON_68 VELOCITY_38 TIME_3": 2284, "NOTE_ON_68 VELOCITY_39 TIME_0": 2285, "NOTE_ON_68 VELOCITY_39 TIME_1": 2286, "NOTE_ON_68 VELOCITY_39 TIME_2": 2287, "NOTE_ON_68 VELOCITY_39 TIME_3": 2288, "NOTE_ON_68 VELOCITY_40 TIME_0": 2289, "NOTE_ON_68 VELOCITY_40 TIME_1": 2290, "NOTE_ON_68 VELOCITY_41 TIME_0": 2291, "NOTE_ON_68 VELOCITY_41 TIME_1": 2292, "NOTE_ON_68 VELOCITY_42 TIME_0": 2293, "NOTE_ON_68 VELOCITY_42 TIME_1": 2294, "NOTE_ON_68 VELOCITY_43 TIME_0": 2295, "NOTE_ON_68 VELOCITY_43 TIME_1": 2296, "NOTE_ON_68 VELOCITY_44 TIME_0": 2297, "NOTE_ON_68 VELOCITY_44 TIME_1": 2298, "NOTE_ON_68 VELOCITY_44 TIME_2": 2299, "NOTE_ON_68 VELOCITY_45 TIME_1": 2300, "NOTE_ON_68 VELOCITY_46 TIME_0": 2301, "NOTE_ON_68 VELOCITY_47 TIME_0": 2302, "NOTE_ON_68 VELOCITY_47 TIME_3": 2303, "NOTE_ON_68 VELOCITY_48 TIME_1": 2304, "NOTE_ON_68 VELOCITY_50 TIME_0": 2305, "NOTE_ON_68 VELOCITY_50 TIME_1": 2306, "NOTE_ON_68 VELOCITY_53 TIME_2": 2307, "NOTE_ON_68 VELOCITY_54 TIME_0": 2308, "NOTE_ON_68 VELOCITY_9 TIME_0": 2309, "NOTE_ON_68 VELOCITY_9 TIME_1": 2310, "NOTE_ON_69": 2311, "NOTE_ON_69 VELOCITY_10 TIME_0": 2312, "NOTE_ON_69 VELOCITY_10 TIME_1": 2313, "NOTE_ON_69 VELOCITY_10 TIME_3": 2314, "NOTE_ON_69 VELOCITY_11 TIME_0": 2315, "NOTE_ON_69 VELOCITY_11 TIME_1": 2316, "NOTE_ON_69 VELOCITY_11 TIME_12": 2317, "NOTE_ON_69 VELOCITY_11 TIME_4": 2318, "NOTE_ON_69 VELOCITY_11 TIME_6": 2319, "NOTE_ON_69 VELOCITY_12 TIME_0": 2320, "NOTE_ON_69 VELOCITY_12 TIME_1": 2321, "NOTE_ON_69 VELOCITY_12 TIME_3": 2322, "NOTE_ON_69 VELOCITY_13 TIME_0": 2323, "NOTE_ON_69 VELOCITY_13 TIME_1": 2324, "NOTE_ON_69 VELOCITY_13 TIME_2": 2325, "NOTE_ON_69 VELOCITY_13 TIME_3": 2326, "NOTE_ON_69 VELOCITY_14 TIME_0": 2327, "NOTE_ON_69 VELOCITY_14 TIME_1": 2328, "NOTE_ON_69 VELOCITY_14 TIME_2": 2329, "NOTE_ON_69 VELOCITY_15 TIME_0": 2330, "NOTE_ON_69 VELOCITY_15 TIME_1": 2331, "NOTE_ON_69 VELOCITY_15 TIME_4": 2332, "NOTE_ON_69 VELOCITY_16 TIME_0": 2333, "NOTE_ON_69 VELOCITY_16 TIME_1": 2334, "NOTE_ON_69 VELOCITY_16 TIME_2": 2335, "NOTE_ON_69 VELOCITY_17 TIME_0": 2336, "NOTE_ON_69 VELOCITY_17 TIME_1": 2337, "NOTE_ON_69 VELOCITY_17 TIME_2": 2338, "NOTE_ON_69 VELOCITY_17 TIME_3": 2339, "NOTE_ON_69 VELOCITY_18 TIME_0": 2340, "NOTE_ON_69 VELOCITY_18 TIME_1": 2341, "NOTE_ON_69 VELOCITY_18 TIME_3": 2342, "NOTE_ON_69 VELOCITY_19 TIME_0": 2343, "NOTE_ON_69 VELOCITY_19 TIME_1": 2344, "NOTE_ON_69 VELOCITY_19 TIME_3": 2345, "NOTE_ON_69 VELOCITY_19 TIME_4": 2346, "NOTE_ON_69 VELOCITY_19 TIME_5": 2347, "NOTE_ON_69 VELOCITY_20 TIME_0": 2348, "NOTE_ON_69 VELOCITY_20 TIME_1": 2349, "NOTE_ON_69 VELOCITY_20 TIME_3": 2350, "NOTE_ON_69 VELOCITY_20 TIME_5": 2351, "NOTE_ON_69 VELOCITY_20 TIME_6": 2352, "NOTE_ON_69 VELOCITY_21 TIME_0": 2353, "NOTE_ON_69 VELOCITY_21 TIME_1": 2354, "NOTE_ON_69 VELOCITY_21 TIME_3": 2355, "NOTE_ON_69 VELOCITY_21 TIME_4": 2356, "NOTE_ON_69 VELOCITY_22 TIME_0": 2357, "NOTE_ON_69 VELOCITY_22 TIME_1": 2358, "NOTE_ON_69 VELOCITY_23 TIME_0": 2359, "NOTE_ON_69 VELOCITY_23 TIME_1": 2360, "NOTE_ON_69 VELOCITY_24 TIME_0": 2361, "NOTE_ON_69 VELOCITY_24 TIME_1": 2362, "NOTE_ON_69 VELOCITY_24 TIME_2": 2363, "NOTE_ON_69 VELOCITY_25 TIME_0": 2364, "NOTE_ON_69 VELOCITY_25 TIME_1": 2365, "NOTE_ON_69 VELOCITY_25 TIME_2": 2366, "NOTE_ON_69 VELOCITY_26 TIME_0": 2367, "NOTE_ON_69 VELOCITY_26 TIME_1": 2368, "NOTE_ON_69 VELOCITY_26 TIME_2": 2369, "NOTE_ON_69 VELOCITY_26 TIME_7": 2370, "NOTE_ON_69 VELOCITY_27 TIME_0": 2371, "NOTE_ON_69 VELOCITY_27 TIME_1": 2372, "NOTE_ON_69 VELOCITY_28 TIME_0": 2373, "NOTE_ON_69 VELOCITY_28 TIME_1": 2374, "NOTE_ON_69 VELOCITY_29 TIME_0": 2375, "NOTE_ON_69 VELOCITY_29 TIME_1": 2376, "NOTE_ON_69 VELOCITY_29 TIME_3": 2377, "NOTE_ON_69 VELOCITY_30 TIME_0": 2378, "NOTE_ON_69 VELOCITY_30 TIME_1": 2379, "NOTE_ON_69 VELOCITY_30 TIME_2": 2380, "NOTE_ON_69 VELOCITY_31 TIME_0": 2381, "NOTE_ON_69 VELOCITY_31 TIME_1": 2382, "NOTE_ON_69 VELOCITY_31 TIME_2": 2383, "NOTE_ON_69 VELOCITY_31 TIME_7": 2384, "NOTE_ON_69 VELOCITY_32 TIME_0": 2385, "NOTE_ON_69 VELOCITY_32 TIME_1": 2386, "NOTE_ON_69 VELOCITY_32 TIME_3": 2387, "NOTE_ON_69 VELOCITY_33 TIME_0": 2388, "NOTE_ON_69 VELOCITY_33 TIME_1": 2389, "NOTE_ON_69 VELOCITY_33 TIME_2": 2390, "NOTE_ON_69 VELOCITY_34 TIME_0": 2391, "NOTE_ON_69 VELOCITY_34 TIME_1": 2392, "NOTE_ON_69 VELOCITY_34 TIME_2": 2393, "NOTE_ON_69 VELOCITY_35 TIME_0": 2394, "NOTE_ON_69 VELOCITY_35 TIME_1": 2395, "NOTE_ON_69 VELOCITY_35 TIME_2": 2396, "NOTE_ON_69 VELOCITY_35 TIME_4": 2397, "NOTE_ON_69 VELOCITY_36 TIME_0": 2398, "NOTE_ON_69 VELOCITY_36 TIME_1": 2399, "NOTE_ON_69 VELOCITY_36 TIME_2": 2400, "NOTE_ON_69 VELOCITY_37 TIME_0": 2401, "NOTE_ON_69 VELOCITY_37 TIME_1": 2402, "NOTE_ON_69 VELOCITY_37 TIME_3": 2403, "NOTE_ON_69 VELOCITY_38 TIME_0": 2404, "NOTE_ON_69 VELOCITY_38 TIME_1": 2405, "NOTE_ON_69 VELOCITY_38 TIME_2": 2406, "NOTE_ON_69 VELOCITY_39 TIME_0": 2407, "NOTE_ON_69 VELOCITY_39 TIME_1": 2408, "NOTE_ON_69 VELOCITY_39 TIME_2": 2409, "NOTE_ON_69 VELOCITY_40 TIME_0": 2410, "NOTE_ON_69 VELOCITY_40 TIME_1": 2411, "NOTE_ON_69 VELOCITY_40 TIME_2": 2412, "NOTE_ON_69 VELOCITY_41 TIME_0": 2413, "NOTE_ON_69 VELOCITY_41 TIME_1": 2414, "NOTE_ON_69 VELOCITY_42 TIME_0": 2415, "NOTE_ON_69 VELOCITY_42 TIME_1": 2416, "NOTE_ON_69 VELOCITY_42 TIME_2": 2417, "NOTE_ON_69 VELOCITY_43 TIME_0": 2418, "NOTE_ON_69 VELOCITY_43 TIME_1": 2419, "NOTE_ON_69 VELOCITY_44 TIME_0": 2420, "NOTE_ON_69 VELOCITY_44 TIME_1": 2421, "NOTE_ON_69 VELOCITY_44 TIME_2": 2422, "NOTE_ON_69 VELOCITY_45 TIME_0": 2423, "NOTE_ON_69 VELOCITY_45 TIME_1": 2424, "NOTE_ON_69 VELOCITY_46 TIME_0": 2425, "NOTE_ON_69 VELOCITY_46 TIME_1": 2426, "NOTE_ON_69 VELOCITY_46 TIME_2": 2427, "NOTE_ON_69 VELOCITY_47 TIME_0": 2428, "NOTE_ON_69 VELOCITY_47 TIME_1": 2429, "NOTE_ON_69 VELOCITY_48 TIME_0": 2430, "NOTE_ON_69 VELOCITY_48 TIME_1": 2431, "NOTE_ON_69 VELOCITY_48 TIME_2": 2432, "NOTE_ON_69 VELOCITY_48 TIME_3": 2433, "NOTE_ON_69 VELOCITY_49 TIME_0": 2434, "NOTE_ON_69 VELOCITY_49 TIME_1": 2435, "NOTE_ON_69 VELOCITY_49 TIME_2": 2436, "NOTE_ON_69 VELOCITY_50 TIME_0": 2437, "NOTE_ON_69 VELOCITY_50 TIME_1": 2438, "NOTE_ON_69 VELOCITY_51 TIME_0": 2439, "NOTE_ON_69 VELOCITY_51 TIME_1": 2440, "NOTE_ON_69 VELOCITY_52 TIME_0": 2441, "NOTE_ON_69 VELOCITY_52 TIME_1": 2442, "NOTE_ON_69 VELOCITY_53 TIME_0": 2443, "NOTE_ON_69 VELOCITY_53 TIME_1": 2444, "NOTE_ON_69 VELOCITY_54 TIME_0": 2445, "NOTE_ON_69 VELOCITY_54 TIME_1": 2446, "NOTE_ON_69 VELOCITY_55 TIME_0": 2447, "NOTE_ON_69 VELOCITY_56 TIME_0": 2448, "NOTE_ON_69 VELOCITY_56 TIME_1": 2449, "NOTE_ON_69 VELOCITY_56 TIME_5": 2450, "NOTE_ON_69 VELOCITY_57 TIME_1": 2451, "NOTE_ON_69 VELOCITY_58 TIME_0": 2452, "NOTE_ON_69 VELOCITY_58 TIME_1": 2453, "NOTE_ON_69 VELOCITY_58 TIME_4": 2454, "NOTE_ON_69 VELOCITY_59 TIME_0": 2455, "NOTE_ON_69 VELOCITY_59 TIME_2": 2456, "NOTE_ON_69 VELOCITY_60 TIME_0": 2457, "NOTE_ON_69 VELOCITY_60 TIME_1": 2458, "NOTE_ON_69 VELOCITY_61 TIME_1": 2459, "NOTE_ON_69 VELOCITY_62 TIME_2": 2460, "NOTE_ON_69 VELOCITY_63 TIME_0": 2461, "NOTE_ON_69 VELOCITY_64 TIME_0": 2462, "NOTE_ON_69 VELOCITY_65 TIME_1": 2463, "NOTE_ON_69 VELOCITY_67 TIME_2": 2464, "NOTE_ON_69 VELOCITY_68 TIME_0": 2465, "NOTE_ON_69 VELOCITY_9 TIME_0": 2466, "NOTE_ON_69 VELOCITY_9 TIME_1": 2467, "NOTE_ON_69 VELOCITY_9 TIME_4": 2468, "NOTE_ON_70": 2469, "NOTE_ON_70 VELOCITY_10 TIME_0": 2470, "NOTE_ON_70 VELOCITY_10 TIME_1": 2471, "NOTE_ON_70 VELOCITY_10 TIME_3": 2472, "NOTE_ON_70 VELOCITY_11 TIME_0": 2473, "NOTE_ON_70 VELOCITY_11 TIME_1": 2474, "NOTE_ON_70 VELOCITY_12 TIME_0": 2475, "NOTE_ON_70 VELOCITY_13 TIME_0": 2476, "NOTE_ON_70 VELOCITY_13 TIME_2": 2477, "NOTE_ON_70 VELOCITY_14 TIME_0": 2478, "NOTE_ON_70 VELOCITY_14 TIME_1": 2479, "NOTE_ON_70 VELOCITY_14 TIME_2": 2480, "NOTE_ON_70 VELOCITY_15 TIME_0": 2481, "NOTE_ON_70 VELOCITY_15 TIME_1": 2482, "NOTE_ON_70 VELOCITY_16 TIME_0": 2483, "NOTE_ON_70 VELOCITY_16 TIME_1": 2484, "NOTE_ON_70 VELOCITY_16 TIME_2": 2485, "NOTE_ON_70 VELOCITY_17 TIME_0": 2486, "NOTE_ON_70 VELOCITY_17 TIME_1": 2487, "NOTE_ON_70 VELOCITY_18 TIME_0": 2488, "NOTE_ON_70 VELOCITY_18 TIME_1": 2489, "NOTE_ON_70 VELOCITY_18 TIME_3": 2490, "NOTE_ON_70 VELOCITY_19 TIME_1": 2491, "NOTE_ON_70 VELOCITY_19 TIME_2": 2492, "NOTE_ON_70 VELOCITY_20 TIME_0": 2493, "NOTE_ON_70 VELOCITY_20 TIME_1": 2494, "NOTE_ON_70 VELOCITY_21 TIME_0": 2495, "NOTE_ON_70 VELOCITY_21 TIME_1": 2496, "NOTE_ON_70 VELOCITY_21 TIME_2": 2497, "NOTE_ON_70 VELOCITY_22 TIME_0": 2498, "NOTE_ON_70 VELOCITY_22 TIME_1": 2499, "NOTE_ON_70 VELOCITY_23 TIME_0": 2500, "NOTE_ON_70 VELOCITY_23 TIME_1": 2501, "NOTE_ON_70 VELOCITY_23 TIME_3": 2502, "NOTE_ON_70 VELOCITY_24 TIME_0": 2503, "NOTE_ON_70 VELOCITY_24 TIME_1": 2504, "NOTE_ON_70 VELOCITY_25 TIME_0": 2505, "NOTE_ON_70 VELOCITY_25 TIME_1": 2506, "NOTE_ON_70 VELOCITY_25 TIME_3": 2507, "NOTE_ON_70 VELOCITY_26 TIME_0": 2508, "NOTE_ON_70 VELOCITY_26 TIME_1": 2509, "NOTE_ON_70 VELOCITY_27 TIME_0": 2510, "NOTE_ON_70 VELOCITY_27 TIME_1": 2511, "NOTE_ON_70 VELOCITY_28 TIME_0": 2512, "NOTE_ON_70 VELOCITY_28 TIME_1": 2513, "NOTE_ON_70 VELOCITY_29 TIME_0": 2514, "NOTE_ON_70 VELOCITY_29 TIME_1": 2515, "NOTE_ON_70 VELOCITY_29 TIME_3": 2516, "NOTE_ON_70 VELOCITY_30 TIME_0": 2517, "NOTE_ON_70 VELOCITY_30 TIME_1": 2518, "NOTE_ON_70 VELOCITY_30 TIME_2": 2519, "NOTE_ON_70 VELOCITY_31 TIME_0": 2520, "NOTE_ON_70 VELOCITY_31 TIME_1": 2521, "NOTE_ON_70 VELOCITY_31 TIME_2": 2522, "NOTE_ON_70 VELOCITY_32 TIME_0": 2523, "NOTE_ON_70 VELOCITY_32 TIME_1": 2524, "NOTE_ON_70 VELOCITY_33 TIME_0": 2525, "NOTE_ON_70 VELOCITY_33 TIME_1": 2526, "NOTE_ON_70 VELOCITY_33 TIME_2": 2527, "NOTE_ON_70 VELOCITY_34 TIME_0": 2528, "NOTE_ON_70 VELOCITY_34 TIME_1": 2529, "NOTE_ON_70 VELOCITY_35 TIME_0": 2530, "NOTE_ON_70 VELOCITY_35 TIME_1": 2531, "NOTE_ON_70 VELOCITY_35 TIME_2": 2532, "NOTE_ON_70 VELOCITY_36 TIME_0": 2533, "NOTE_ON_70 VELOCITY_36 TIME_1": 2534, "NOTE_ON_70 VELOCITY_37 TIME_0": 2535, "NOTE_ON_70 VELOCITY_37 TIME_1": 2536, "NOTE_ON_70 VELOCITY_37 TIME_2": 2537, "NOTE_ON_70 VELOCITY_37 TIME_3": 2538, "NOTE_ON_70 VELOCITY_38 TIME_0": 2539, "NOTE_ON_70 VELOCITY_38 TIME_1": 2540, "NOTE_ON_70 VELOCITY_39 TIME_0": 2541, "NOTE_ON_70 VELOCITY_39 TIME_1": 2542, "NOTE_ON_70 VELOCITY_40 TIME_0": 2543, "NOTE_ON_70 VELOCITY_41 TIME_0": 2544, "NOTE_ON_70 VELOCITY_41 TIME_1": 2545, "NOTE_ON_70 VELOCITY_41 TIME_2": 2546, "NOTE_ON_70 VELOCITY_42 TIME_0": 2547, "NOTE_ON_70 VELOCITY_42 TIME_2": 2548, "NOTE_ON_70 VELOCITY_43 TIME_0": 2549, "NOTE_ON_70 VELOCITY_43 TIME_1": 2550, "NOTE_ON_70 VELOCITY_44 TIME_0": 2551, "NOTE_ON_70 VELOCITY_45 TIME_0": 2552, "NOTE_ON_70 VELOCITY_45 TIME_1": 2553, "NOTE_ON_70 VELOCITY_46 TIME_0": 2554, "NOTE_ON_70 VELOCITY_47 TIME_0": 2555, "NOTE_ON_70 VELOCITY_48 TIME_1": 2556, "NOTE_ON_70 VELOCITY_50 TIME_0": 2557, "NOTE_ON_70 VELOCITY_50 TIME_1": 2558, "NOTE_ON_70 VELOCITY_51 TIME_0": 2559, "NOTE_ON_70 VELOCITY_52 TIME_0": 2560, "NOTE_ON_70 VELOCITY_53 TIME_1": 2561, "NOTE_ON_70 VELOCITY_54 TIME_3": 2562, "NOTE_ON_70 VELOCITY_56 TIME_1": 2563, "NOTE_ON_70 VELOCITY_57 TIME_1": 2564, "NOTE_ON_71": 2565, "NOTE_ON_71 VELOCITY_10 TIME_0": 2566, "NOTE_ON_71 VELOCITY_10 TIME_1": 2567, "NOTE_ON_71 VELOCITY_10 TIME_4": 2568, "NOTE_ON_71 VELOCITY_11 TIME_0": 2569, "NOTE_ON_71 VELOCITY_11 TIME_1": 2570, "NOTE_ON_71 VELOCITY_12 TIME_0": 2571, "NOTE_ON_71 VELOCITY_12 TIME_1": 2572, "NOTE_ON_71 VELOCITY_13 TIME_0": 2573, "NOTE_ON_71 VELOCITY_13 TIME_1": 2574, "NOTE_ON_71 VELOCITY_13 TIME_2": 2575, "NOTE_ON_71 VELOCITY_14 TIME_0": 2576, "NOTE_ON_71 VELOCITY_14 TIME_1": 2577, "NOTE_ON_71 VELOCITY_14 TIME_2": 2578, "NOTE_ON_71 VELOCITY_14 TIME_4": 2579, "NOTE_ON_71 VELOCITY_15 TIME_0": 2580, "NOTE_ON_71 VELOCITY_15 TIME_1": 2581, "NOTE_ON_71 VELOCITY_15 TIME_2": 2582, "NOTE_ON_71 VELOCITY_15 TIME_3": 2583, "NOTE_ON_71 VELOCITY_15 TIME_4": 2584, "NOTE_ON_71 VELOCITY_16 TIME_0": 2585, "NOTE_ON_71 VELOCITY_16 TIME_1": 2586, "NOTE_ON_71 VELOCITY_16 TIME_2": 2587, "NOTE_ON_71 VELOCITY_17 TIME_0": 2588, "NOTE_ON_71 VELOCITY_17 TIME_1": 2589, "NOTE_ON_71 VELOCITY_18 TIME_0": 2590, "NOTE_ON_71 VELOCITY_18 TIME_1": 2591, "NOTE_ON_71 VELOCITY_19 TIME_0": 2592, "NOTE_ON_71 VELOCITY_19 TIME_1": 2593, "NOTE_ON_71 VELOCITY_19 TIME_2": 2594, "NOTE_ON_71 VELOCITY_20 TIME_0": 2595, "NOTE_ON_71 VELOCITY_20 TIME_1": 2596, "NOTE_ON_71 VELOCITY_20 TIME_2": 2597, "NOTE_ON_71 VELOCITY_21 TIME_0": 2598, "NOTE_ON_71 VELOCITY_21 TIME_1": 2599, "NOTE_ON_71 VELOCITY_21 TIME_2": 2600, "NOTE_ON_71 VELOCITY_21 TIME_3": 2601, "NOTE_ON_71 VELOCITY_22 TIME_0": 2602, "NOTE_ON_71 VELOCITY_22 TIME_1": 2603, "NOTE_ON_71 VELOCITY_23 TIME_0": 2604, "NOTE_ON_71 VELOCITY_23 TIME_1": 2605, "NOTE_ON_71 VELOCITY_23 TIME_2": 2606, "NOTE_ON_71 VELOCITY_24 TIME_0": 2607, "NOTE_ON_71 VELOCITY_24 TIME_1": 2608, "NOTE_ON_71 VELOCITY_24 TIME_2": 2609, "NOTE_ON_71 VELOCITY_24 TIME_4": 2610, "NOTE_ON_71 VELOCITY_25 TIME_0": 2611, "NOTE_ON_71 VELOCITY_25 TIME_1": 2612, "NOTE_ON_71 VELOCITY_26 TIME_0": 2613, "NOTE_ON_71 VELOCITY_26 TIME_1": 2614, "NOTE_ON_71 VELOCITY_26 TIME_2": 2615, "NOTE_ON_71 VELOCITY_27 TIME_0": 2616, "NOTE_ON_71 VELOCITY_27 TIME_1": 2617, "NOTE_ON_71 VELOCITY_27 TIME_2": 2618, "NOTE_ON_71 VELOCITY_28 TIME_0": 2619, "NOTE_ON_71 VELOCITY_28 TIME_1": 2620, "NOTE_ON_71 VELOCITY_28 TIME_2": 2621, "NOTE_ON_71 VELOCITY_29 TIME_0": 2622, "NOTE_ON_71 VELOCITY_29 TIME_1": 2623, "NOTE_ON_71 VELOCITY_29 TIME_2": 2624, "NOTE_ON_71 VELOCITY_29 TIME_3": 2625, "NOTE_ON_71 VELOCITY_30 TIME_0": 2626, "NOTE_ON_71 VELOCITY_30 TIME_1": 2627, "NOTE_ON_71 VELOCITY_30 TIME_2": 2628, "NOTE_ON_71 VELOCITY_30 TIME_3": 2629, "NOTE_ON_71 VELOCITY_31 TIME_0": 2630, "NOTE_ON_71 VELOCITY_31 TIME_1": 2631, "NOTE_ON_71 VELOCITY_32 TIME_0": 2632, "NOTE_ON_71 VELOCITY_32 TIME_1": 2633, "NOTE_ON_71 VELOCITY_32 TIME_2": 2634, "NOTE_ON_71 VELOCITY_32 TIME_3": 2635, "NOTE_ON_71 VELOCITY_33 TIME_0": 2636, "NOTE_ON_71 VELOCITY_33 TIME_1": 2637, "NOTE_ON_71 VELOCITY_33 TIME_2": 2638, "NOTE_ON_71 VELOCITY_34 TIME_0": 2639, "NOTE_ON_71 VELOCITY_34 TIME_1": 2640, "NOTE_ON_71 VELOCITY_34 TIME_2": 2641, "NOTE_ON_71 VELOCITY_35 TIME_0": 2642, "NOTE_ON_71 VELOCITY_35 TIME_1": 2643, "NOTE_ON_71 VELOCITY_35 TIME_2": 2644, "NOTE_ON_71 VELOCITY_35 TIME_3": 2645, "NOTE_ON_71 VELOCITY_36 TIME_0": 2646, "NOTE_ON_71 VELOCITY_36 TIME_1": 2647, "NOTE_ON_71 VELOCITY_36 TIME_2": 2648, "NOTE_ON_71 VELOCITY_37 TIME_0": 2649, "NOTE_ON_71 VELOCITY_37 TIME_1": 2650, "NOTE_ON_71 VELOCITY_38 TIME_0": 2651, "NOTE_ON_71 VELOCITY_38 TIME_1": 2652, "NOTE_ON_71 VELOCITY_39 TIME_0": 2653, "NOTE_ON_71 VELOCITY_39 TIME_1": 2654, "NOTE_ON_71 VELOCITY_40 TIME_0": 2655, "NOTE_ON_71 VELOCITY_40 TIME_1": 2656, "NOTE_ON_71 VELOCITY_41 TIME_0": 2657, "NOTE_ON_71 VELOCITY_41 TIME_1": 2658, "NOTE_ON_71 VELOCITY_41 TIME_10": 2659, "NOTE_ON_71 VELOCITY_41 TIME_2": 2660, "NOTE_ON_71 VELOCITY_41 TIME_20": 2661, "NOTE_ON_71 VELOCITY_42 TIME_0": 2662, "NOTE_ON_71 VELOCITY_42 TIME_1": 2663, "NOTE_ON_71 VELOCITY_43 TIME_0": 2664, "NOTE_ON_71 VELOCITY_43 TIME_1": 2665, "NOTE_ON_71 VELOCITY_44 TIME_0": 2666, "NOTE_ON_71 VELOCITY_44 TIME_1": 2667, "NOTE_ON_71 VELOCITY_45 TIME_0": 2668, "NOTE_ON_71 VELOCITY_45 TIME_1": 2669, "NOTE_ON_71 VELOCITY_46 TIME_0": 2670, "NOTE_ON_71 VELOCITY_46 TIME_1": 2671, "NOTE_ON_71 VELOCITY_47 TIME_0": 2672, "NOTE_ON_71 VELOCITY_48 TIME_0": 2673, "NOTE_ON_71 VELOCITY_48 TIME_1": 2674, "NOTE_ON_71 VELOCITY_49 TIME_0": 2675, "NOTE_ON_71 VELOCITY_49 TIME_1": 2676, "NOTE_ON_71 VELOCITY_50 TIME_0": 2677, "NOTE_ON_71 VELOCITY_50 TIME_1": 2678, "NOTE_ON_71 VELOCITY_50 TIME_2": 2679, "NOTE_ON_71 VELOCITY_51 TIME_0": 2680, "NOTE_ON_71 VELOCITY_51 TIME_1": 2681, "NOTE_ON_71 VELOCITY_52 TIME_0": 2682, "NOTE_ON_71 VELOCITY_52 TIME_1": 2683, "NOTE_ON_71 VELOCITY_52 TIME_2": 2684, "NOTE_ON_71 VELOCITY_53 TIME_1": 2685, "NOTE_ON_71 VELOCITY_53 TIME_4": 2686, "NOTE_ON_71 VELOCITY_54 TIME_0": 2687, "NOTE_ON_71 VELOCITY_55 TIME_1": 2688, "NOTE_ON_71 VELOCITY_55 TIME_2": 2689, "NOTE_ON_71 VELOCITY_56 TIME_1": 2690, "NOTE_ON_71 VELOCITY_57 TIME_0": 2691, "NOTE_ON_71 VELOCITY_57 TIME_2": 2692, "NOTE_ON_71 VELOCITY_58 TIME_1": 2693, "NOTE_ON_71 VELOCITY_62 TIME_1": 2694, "NOTE_ON_71 VELOCITY_9 TIME_0": 2695, "NOTE_ON_71 VELOCITY_9 TIME_1": 2696, "NOTE_ON_71 VELOCITY_9 TIME_3": 2697, "NOTE_ON_72": 2698, "NOTE_ON_72 VELOCITY_10 TIME_0": 2699, "NOTE_ON_72 VELOCITY_10 TIME_1": 2700, "NOTE_ON_72 VELOCITY_11 TIME_0": 2701, "NOTE_ON_72 VELOCITY_12 TIME_0": 2702, "NOTE_ON_72 VELOCITY_12 TIME_1": 2703, "NOTE_ON_72 VELOCITY_12 TIME_2": 2704, "NOTE_ON_72 VELOCITY_13 TIME_0": 2705, "NOTE_ON_72 VELOCITY_13 TIME_1": 2706, "NOTE_ON_72 VELOCITY_13 TIME_2": 2707, "NOTE_ON_72 VELOCITY_14 TIME_0": 2708, "NOTE_ON_72 VELOCITY_14 TIME_1": 2709, "NOTE_ON_72 VELOCITY_14 TIME_2": 2710, "NOTE_ON_72 VELOCITY_15 TIME_0": 2711, "NOTE_ON_72 VELOCITY_15 TIME_1": 2712, "NOTE_ON_72 VELOCITY_15 TIME_65": 2713, "NOTE_ON_72 VELOCITY_16 TIME_0": 2714, "NOTE_ON_72 VELOCITY_16 TIME_1": 2715, "NOTE_ON_72 VELOCITY_16 TIME_2": 2716, "NOTE_ON_72 VELOCITY_17 TIME_0": 2717, "NOTE_ON_72 VELOCITY_17 TIME_1": 2718, "NOTE_ON_72 VELOCITY_18 TIME_0": 2719, "NOTE_ON_72 VELOCITY_18 TIME_1": 2720, "NOTE_ON_72 VELOCITY_18 TIME_2": 2721, "NOTE_ON_72 VELOCITY_19 TIME_0": 2722, "NOTE_ON_72 VELOCITY_19 TIME_1": 2723, "NOTE_ON_72 VELOCITY_19 TIME_2": 2724, "NOTE_ON_72 VELOCITY_19 TIME_3": 2725, "NOTE_ON_72 VELOCITY_20 TIME_0": 2726, "NOTE_ON_72 VELOCITY_20 TIME_1": 2727, "NOTE_ON_72 VELOCITY_20 TIME_2": 2728, "NOTE_ON_72 VELOCITY_21 TIME_0": 2729, "NOTE_ON_72 VELOCITY_21 TIME_1": 2730, "NOTE_ON_72 VELOCITY_22 TIME_0": 2731, "NOTE_ON_72 VELOCITY_22 TIME_1": 2732, "NOTE_ON_72 VELOCITY_22 TIME_2": 2733, "NOTE_ON_72 VELOCITY_22 TIME_3": 2734, "NOTE_ON_72 VELOCITY_23 TIME_0": 2735, "NOTE_ON_72 VELOCITY_23 TIME_1": 2736, "NOTE_ON_72 VELOCITY_24 TIME_0": 2737, "NOTE_ON_72 VELOCITY_24 TIME_1": 2738, "NOTE_ON_72 VELOCITY_24 TIME_2": 2739, "NOTE_ON_72 VELOCITY_25 TIME_0": 2740, "NOTE_ON_72 VELOCITY_25 TIME_1": 2741, "NOTE_ON_72 VELOCITY_26 TIME_0": 2742, "NOTE_ON_72 VELOCITY_26 TIME_1": 2743, "NOTE_ON_72 VELOCITY_26 TIME_2": 2744, "NOTE_ON_72 VELOCITY_27 TIME_0": 2745, "NOTE_ON_72 VELOCITY_27 TIME_1": 2746, "NOTE_ON_72 VELOCITY_27 TIME_2": 2747, "NOTE_ON_72 VELOCITY_28 TIME_0": 2748, "NOTE_ON_72 VELOCITY_28 TIME_1": 2749, "NOTE_ON_72 VELOCITY_28 TIME_2": 2750, "NOTE_ON_72 VELOCITY_29 TIME_0": 2751, "NOTE_ON_72 VELOCITY_29 TIME_1": 2752, "NOTE_ON_72 VELOCITY_29 TIME_2": 2753, "NOTE_ON_72 VELOCITY_30 TIME_0": 2754, "NOTE_ON_72 VELOCITY_30 TIME_1": 2755, "NOTE_ON_72 VELOCITY_30 TIME_2": 2756, "NOTE_ON_72 VELOCITY_31 TIME_0": 2757, "NOTE_ON_72 VELOCITY_31 TIME_1": 2758, "NOTE_ON_72 VELOCITY_31 TIME_2": 2759, "NOTE_ON_72 VELOCITY_32 TIME_0": 2760, "NOTE_ON_72 VELOCITY_32 TIME_1": 2761, "NOTE_ON_72 VELOCITY_33 TIME_0": 2762, "NOTE_ON_72 VELOCITY_33 TIME_1": 2763, "NOTE_ON_72 VELOCITY_33 TIME_2": 2764, "NOTE_ON_72 VELOCITY_34 TIME_0": 2765, "NOTE_ON_72 VELOCITY_34 TIME_1": 2766, "NOTE_ON_72 VELOCITY_35 TIME_0": 2767, "NOTE_ON_72 VELOCITY_35 TIME_1": 2768, "NOTE_ON_72 VELOCITY_35 TIME_2": 2769, "NOTE_ON_72 VELOCITY_36 TIME_0": 2770, "NOTE_ON_72 VELOCITY_36 TIME_1": 2771, "NOTE_ON_72 VELOCITY_37 TIME_0": 2772, "NOTE_ON_72 VELOCITY_37 TIME_1": 2773, "NOTE_ON_72 VELOCITY_37 TIME_2": 2774, "NOTE_ON_72 VELOCITY_38 TIME_0": 2775, "NOTE_ON_72 VELOCITY_38 TIME_1": 2776, "NOTE_ON_72 VELOCITY_38 TIME_2": 2777, "NOTE_ON_72 VELOCITY_39 TIME_0": 2778, "NOTE_ON_72 VELOCITY_39 TIME_1": 2779, "NOTE_ON_72 VELOCITY_40 TIME_0": 2780, "NOTE_ON_72 VELOCITY_40 TIME_1": 2781, "NOTE_ON_72 VELOCITY_41 TIME_1": 2782, "NOTE_ON_72 VELOCITY_41 TIME_4": 2783, "NOTE_ON_72 VELOCITY_42 TIME_0": 2784, "NOTE_ON_72 VELOCITY_42 TIME_1": 2785, "NOTE_ON_72 VELOCITY_43 TIME_0": 2786, "NOTE_ON_72 VELOCITY_43 TIME_1": 2787, "NOTE_ON_72 VELOCITY_43 TIME_2": 2788, "NOTE_ON_72 VELOCITY_44 TIME_0": 2789, "NOTE_ON_72 VELOCITY_44 TIME_1": 2790, "NOTE_ON_72 VELOCITY_45 TIME_0": 2791, "NOTE_ON_72 VELOCITY_45 TIME_1": 2792, "NOTE_ON_72 VELOCITY_46 TIME_0": 2793, "NOTE_ON_72 VELOCITY_46 TIME_1": 2794, "NOTE_ON_72 VELOCITY_47 TIME_1": 2795, "NOTE_ON_72 VELOCITY_48 TIME_1": 2796, "NOTE_ON_72 VELOCITY_49 TIME_0": 2797, "NOTE_ON_72 VELOCITY_50 TIME_0": 2798, "NOTE_ON_72 VELOCITY_52 TIME_1": 2799, "NOTE_ON_72 VELOCITY_53 TIME_1": 2800, "NOTE_ON_72 VELOCITY_55 TIME_1": 2801, "NOTE_ON_72 VELOCITY_56 TIME_0": 2802, "NOTE_ON_72 VELOCITY_60 TIME_0": 2803, "NOTE_ON_72 VELOCITY_9 TIME_0": 2804, "NOTE_ON_73": 2805, "NOTE_ON_73 VELOCITY_10 TIME_0": 2806, "NOTE_ON_73 VELOCITY_10 TIME_1": 2807, "NOTE_ON_73 VELOCITY_11 TIME_0": 2808, "NOTE_ON_73 VELOCITY_11 TIME_3": 2809, "NOTE_ON_73 VELOCITY_12 TIME_0": 2810, "NOTE_ON_73 VELOCITY_12 TIME_1": 2811, "NOTE_ON_73 VELOCITY_13 TIME_0": 2812, "NOTE_ON_73 VELOCITY_13 TIME_4": 2813, "NOTE_ON_73 VELOCITY_14 TIME_0": 2814, "NOTE_ON_73 VELOCITY_14 TIME_1": 2815, "NOTE_ON_73 VELOCITY_15 TIME_0": 2816, "NOTE_ON_73 VELOCITY_15 TIME_1": 2817, "NOTE_ON_73 VELOCITY_15 TIME_3": 2818, "NOTE_ON_73 VELOCITY_16 TIME_0": 2819, "NOTE_ON_73 VELOCITY_16 TIME_1": 2820, "NOTE_ON_73 VELOCITY_16 TIME_2": 2821, "NOTE_ON_73 VELOCITY_17 TIME_0": 2822, "NOTE_ON_73 VELOCITY_17 TIME_1": 2823, "NOTE_ON_73 VELOCITY_18 TIME_0": 2824, "NOTE_ON_73 VELOCITY_18 TIME_1": 2825, "NOTE_ON_73 VELOCITY_19 TIME_0": 2826, "NOTE_ON_73 VELOCITY_19 TIME_1": 2827, "NOTE_ON_73 VELOCITY_19 TIME_2": 2828, "NOTE_ON_73 VELOCITY_19 TIME_3": 2829, "NOTE_ON_73 VELOCITY_20 TIME_0": 2830, "NOTE_ON_73 VELOCITY_20 TIME_2": 2831, "NOTE_ON_73 VELOCITY_20 TIME_3": 2832, "NOTE_ON_73 VELOCITY_21 TIME_0": 2833, "NOTE_ON_73 VELOCITY_21 TIME_1": 2834, "NOTE_ON_73 VELOCITY_21 TIME_2": 2835, "NOTE_ON_73 VELOCITY_22 TIME_0": 2836, "NOTE_ON_73 VELOCITY_22 TIME_1": 2837, "NOTE_ON_73 VELOCITY_22 TIME_2": 2838, "NOTE_ON_73 VELOCITY_23 TIME_0": 2839, "NOTE_ON_73 VELOCITY_23 TIME_1": 2840, "NOTE_ON_73 VELOCITY_24 TIME_0": 2841, "NOTE_ON_73 VELOCITY_24 TIME_1": 2842, "NOTE_ON_73 VELOCITY_25 TIME_0": 2843, "NOTE_ON_73 VELOCITY_25 TIME_1": 2844, "NOTE_ON_73 VELOCITY_26 TIME_0": 2845, "NOTE_ON_73 VELOCITY_26 TIME_1": 2846, "NOTE_ON_73 VELOCITY_27 TIME_0": 2847, "NOTE_ON_73 VELOCITY_27 TIME_1": 2848, "NOTE_ON_73 VELOCITY_27 TIME_2": 2849, "NOTE_ON_73 VELOCITY_28 TIME_0": 2850, "NOTE_ON_73 VELOCITY_28 TIME_1": 2851, "NOTE_ON_73 VELOCITY_29 TIME_0": 2852, "NOTE_ON_73 VELOCITY_29 TIME_1": 2853, "NOTE_ON_73 VELOCITY_29 TIME_2": 2854, "NOTE_ON_73 VELOCITY_30 TIME_0": 2855, "NOTE_ON_73 VELOCITY_30 TIME_1": 2856, "NOTE_ON_73 VELOCITY_31 TIME_0": 2857, "NOTE_ON_73 VELOCITY_31 TIME_1": 2858, "NOTE_ON_73 VELOCITY_31 TIME_2": 2859, "NOTE_ON_73 VELOCITY_31 TIME_3": 2860, "NOTE_ON_73 VELOCITY_32 TIME_0": 2861, "NOTE_ON_73 VELOCITY_32 TIME_1": 2862, "NOTE_ON_73 VELOCITY_33 TIME_0": 2863, "NOTE_ON_73 VELOCITY_33 TIME_1": 2864, "NOTE_ON_73 VELOCITY_33 TIME_2": 2865, "NOTE_ON_73 VELOCITY_33 TIME_3": 2866, "NOTE_ON_73 VELOCITY_34 TIME_0": 2867, "NOTE_ON_73 VELOCITY_34 TIME_1": 2868, "NOTE_ON_73 VELOCITY_35 TIME_0": 2869, "NOTE_ON_73 VELOCITY_35 TIME_1": 2870, "NOTE_ON_73 VELOCITY_36 TIME_0": 2871, "NOTE_ON_73 VELOCITY_36 TIME_1": 2872, "NOTE_ON_73 VELOCITY_37 TIME_0": 2873, "NOTE_ON_73 VELOCITY_37 TIME_1": 2874, "NOTE_ON_73 VELOCITY_38 TIME_0": 2875, "NOTE_ON_73 VELOCITY_38 TIME_1": 2876, "NOTE_ON_73 VELOCITY_38 TIME_2": 2877, "NOTE_ON_73 VELOCITY_39 TIME_0": 2878, "NOTE_ON_73 VELOCITY_39 TIME_1": 2879, "NOTE_ON_73 VELOCITY_40 TIME_0": 2880, "NOTE_ON_73 VELOCITY_40 TIME_1": 2881, "NOTE_ON_73 VELOCITY_40 TIME_3": 2882, "NOTE_ON_73 VELOCITY_41 TIME_1": 2883, "NOTE_ON_73 VELOCITY_42 TIME_0": 2884, "NOTE_ON_73 VELOCITY_42 TIME_1": 2885, "NOTE_ON_73 VELOCITY_43 TIME_0": 2886, "NOTE_ON_73 VELOCITY_44 TIME_0": 2887, "NOTE_ON_73 VELOCITY_44 TIME_1": 2888, "NOTE_ON_73 VELOCITY_45 TIME_0": 2889, "NOTE_ON_73 VELOCITY_46 TIME_0": 2890, "NOTE_ON_73 VELOCITY_46 TIME_1": 2891, "NOTE_ON_73 VELOCITY_47 TIME_0": 2892, "NOTE_ON_73 VELOCITY_47 TIME_2": 2893, "NOTE_ON_73 VELOCITY_48 TIME_1": 2894, "NOTE_ON_73 VELOCITY_49 TIME_1": 2895, "NOTE_ON_73 VELOCITY_50 TIME_0": 2896, "NOTE_ON_73 VELOCITY_52 TIME_0": 2897, "NOTE_ON_73 VELOCITY_52 TIME_1": 2898, "NOTE_ON_73 VELOCITY_53 TIME_1": 2899, "NOTE_ON_73 VELOCITY_9 TIME_0": 2900, "NOTE_ON_74": 2901, "NOTE_ON_74 VELOCITY_10 TIME_0": 2902, "NOTE_ON_74 VELOCITY_10 TIME_1": 2903, "NOTE_ON_74 VELOCITY_11 TIME_0": 2904, "NOTE_ON_74 VELOCITY_11 TIME_1": 2905, "NOTE_ON_74 VELOCITY_12 TIME_0": 2906, "NOTE_ON_74 VELOCITY_12 TIME_1": 2907, "NOTE_ON_74 VELOCITY_12 TIME_4": 2908, "NOTE_ON_74 VELOCITY_13 TIME_0": 2909, "NOTE_ON_74 VELOCITY_13 TIME_1": 2910, "NOTE_ON_74 VELOCITY_13 TIME_3": 2911, "NOTE_ON_74 VELOCITY_14 TIME_0": 2912, "NOTE_ON_74 VELOCITY_14 TIME_1": 2913, "NOTE_ON_74 VELOCITY_15 TIME_0": 2914, "NOTE_ON_74 VELOCITY_15 TIME_1": 2915, "NOTE_ON_74 VELOCITY_15 TIME_3": 2916, "NOTE_ON_74 VELOCITY_16 TIME_0": 2917, "NOTE_ON_74 VELOCITY_16 TIME_1": 2918, "NOTE_ON_74 VELOCITY_17 TIME_0": 2919, "NOTE_ON_74 VELOCITY_17 TIME_1": 2920, "NOTE_ON_74 VELOCITY_17 TIME_2": 2921, "NOTE_ON_74 VELOCITY_17 TIME_3": 2922, "NOTE_ON_74 VELOCITY_18 TIME_0": 2923, "NOTE_ON_74 VELOCITY_18 TIME_1": 2924, "NOTE_ON_74 VELOCITY_18 TIME_2": 2925, "NOTE_ON_74 VELOCITY_18 TIME_3": 2926, "NOTE_ON_74 VELOCITY_19 TIME_0": 2927, "NOTE_ON_74 VELOCITY_19 TIME_1": 2928, "NOTE_ON_74 VELOCITY_20 TIME_0": 2929, "NOTE_ON_74 VELOCITY_20 TIME_1": 2930, "NOTE_ON_74 VELOCITY_20 TIME_3": 2931, "NOTE_ON_74 VELOCITY_21 TIME_0": 2932, "NOTE_ON_74 VELOCITY_21 TIME_1": 2933, "NOTE_ON_74 VELOCITY_21 TIME_2": 2934, "NOTE_ON_74 VELOCITY_22 TIME_0": 2935, "NOTE_ON_74 VELOCITY_22 TIME_1": 2936, "NOTE_ON_74 VELOCITY_22 TIME_2": 2937, "NOTE_ON_74 VELOCITY_23 TIME_0": 2938, "NOTE_ON_74 VELOCITY_23 TIME_1": 2939, "NOTE_ON_74 VELOCITY_24 TIME_0": 2940, "NOTE_ON_74 VELOCITY_24 TIME_1": 2941, "NOTE_ON_74 VELOCITY_24 TIME_2": 2942, "NOTE_ON_74 VELOCITY_25 TIME_0": 2943, "NOTE_ON_74 VELOCITY_25 TIME_1": 2944, "NOTE_ON_74 VELOCITY_25 TIME_3": 2945, "NOTE_ON_74 VELOCITY_26 TIME_0": 2946, "NOTE_ON_74 VELOCITY_26 TIME_1": 2947, "NOTE_ON_74 VELOCITY_26 TIME_2": 2948, "NOTE_ON_74 VELOCITY_27 TIME_0": 2949, "NOTE_ON_74 VELOCITY_27 TIME_1": 2950, "NOTE_ON_74 VELOCITY_27 TIME_2": 2951, "NOTE_ON_74 VELOCITY_28 TIME_0": 2952, "NOTE_ON_74 VELOCITY_28 TIME_1": 2953, "NOTE_ON_74 VELOCITY_28 TIME_2": 2954, "NOTE_ON_74 VELOCITY_29 TIME_0": 2955, "NOTE_ON_74 VELOCITY_29 TIME_1": 2956, "NOTE_ON_74 VELOCITY_30 TIME_0": 2957, "NOTE_ON_74 VELOCITY_30 TIME_2": 2958, "NOTE_ON_74 VELOCITY_31 TIME_0": 2959, "NOTE_ON_74 VELOCITY_31 TIME_1": 2960, "NOTE_ON_74 VELOCITY_32 TIME_0": 2961, "NOTE_ON_74 VELOCITY_32 TIME_1": 2962, "NOTE_ON_74 VELOCITY_33 TIME_0": 2963, "NOTE_ON_74 VELOCITY_33 TIME_1": 2964, "NOTE_ON_74 VELOCITY_33 TIME_2": 2965, "NOTE_ON_74 VELOCITY_34 TIME_0": 2966, "NOTE_ON_74 VELOCITY_34 TIME_1": 2967, "NOTE_ON_74 VELOCITY_34 TIME_4": 2968, "NOTE_ON_74 VELOCITY_35 TIME_0": 2969, "NOTE_ON_74 VELOCITY_35 TIME_1": 2970, "NOTE_ON_74 VELOCITY_36 TIME_0": 2971, "NOTE_ON_74 VELOCITY_36 TIME_1": 2972, "NOTE_ON_74 VELOCITY_37 TIME_0": 2973, "NOTE_ON_74 VELOCITY_37 TIME_1": 2974, "NOTE_ON_74 VELOCITY_38 TIME_0": 2975, "NOTE_ON_74 VELOCITY_38 TIME_1": 2976, "NOTE_ON_74 VELOCITY_38 TIME_2": 2977, "NOTE_ON_74 VELOCITY_39 TIME_0": 2978, "NOTE_ON_74 VELOCITY_39 TIME_1": 2979, "NOTE_ON_74 VELOCITY_40 TIME_0": 2980, "NOTE_ON_74 VELOCITY_40 TIME_1": 2981, "NOTE_ON_74 VELOCITY_41 TIME_0": 2982, "NOTE_ON_74 VELOCITY_41 TIME_1": 2983, "NOTE_ON_74 VELOCITY_42 TIME_0": 2984, "NOTE_ON_74 VELOCITY_42 TIME_1": 2985, "NOTE_ON_74 VELOCITY_42 TIME_3": 2986, "NOTE_ON_74 VELOCITY_43 TIME_0": 2987, "NOTE_ON_74 VELOCITY_43 TIME_1": 2988, "NOTE_ON_74 VELOCITY_44 TIME_0": 2989, "NOTE_ON_74 VELOCITY_44 TIME_1": 2990, "NOTE_ON_74 VELOCITY_45 TIME_0": 2991, "NOTE_ON_74 VELOCITY_45 TIME_1": 2992, "NOTE_ON_74 VELOCITY_46 TIME_0": 2993, "NOTE_ON_74 VELOCITY_46 TIME_1": 2994, "NOTE_ON_74 VELOCITY_47 TIME_0": 2995, "NOTE_ON_74 VELOCITY_47 TIME_1": 2996, "NOTE_ON_74 VELOCITY_48 TIME_0": 2997, "NOTE_ON_74 VELOCITY_48 TIME_1": 2998, "NOTE_ON_74 VELOCITY_49 TIME_0": 2999, "NOTE_ON_74 VELOCITY_49 TIME_1": 3000, "NOTE_ON_74 VELOCITY_49 TIME_2": 3001, "NOTE_ON_74 VELOCITY_50 TIME_0": 3002, "NOTE_ON_74 VELOCITY_50 TIME_1": 3003, "NOTE_ON_74 VELOCITY_51 TIME_0": 3004, "NOTE_ON_74 VELOCITY_51 TIME_1": 3005, "NOTE_ON_74 VELOCITY_52 TIME_0": 3006, "NOTE_ON_74 VELOCITY_53 TIME_0": 3007, "NOTE_ON_74 VELOCITY_54 TIME_0": 3008, "NOTE_ON_74 VELOCITY_55 TIME_0": 3009, "NOTE_ON_74 VELOCITY_55 TIME_1": 3010, "NOTE_ON_74 VELOCITY_56 TIME_0": 3011, "NOTE_ON_74 VELOCITY_9 TIME_0": 3012, "NOTE_ON_75": 3013, "NOTE_ON_75 VELOCITY_10 TIME_0": 3014, "NOTE_ON_75 VELOCITY_10 TIME_1": 3015, "NOTE_ON_75 VELOCITY_11 TIME_0": 3016, "NOTE_ON_75 VELOCITY_11 TIME_1": 3017, "NOTE_ON_75 VELOCITY_11 TIME_2": 3018, "NOTE_ON_75 VELOCITY_11 TIME_5": 3019, "NOTE_ON_75 VELOCITY_12 TIME_0": 3020, "NOTE_ON_75 VELOCITY_12 TIME_1": 3021, "NOTE_ON_75 VELOCITY_12 TIME_2": 3022, "NOTE_ON_75 VELOCITY_13 TIME_0": 3023, "NOTE_ON_75 VELOCITY_13 TIME_1": 3024, "NOTE_ON_75 VELOCITY_13 TIME_2": 3025, "NOTE_ON_75 VELOCITY_13 TIME_3": 3026, "NOTE_ON_75 VELOCITY_14 TIME_0": 3027, "NOTE_ON_75 VELOCITY_14 TIME_1": 3028, "NOTE_ON_75 VELOCITY_15 TIME_0": 3029, "NOTE_ON_75 VELOCITY_15 TIME_1": 3030, "NOTE_ON_75 VELOCITY_16 TIME_0": 3031, "NOTE_ON_75 VELOCITY_16 TIME_1": 3032, "NOTE_ON_75 VELOCITY_16 TIME_2": 3033, "NOTE_ON_75 VELOCITY_17 TIME_0": 3034, "NOTE_ON_75 VELOCITY_17 TIME_1": 3035, "NOTE_ON_75 VELOCITY_17 TIME_3": 3036, "NOTE_ON_75 VELOCITY_18 TIME_0": 3037, "NOTE_ON_75 VELOCITY_18 TIME_2": 3038, "NOTE_ON_75 VELOCITY_19 TIME_0": 3039, "NOTE_ON_75 VELOCITY_19 TIME_1": 3040, "NOTE_ON_75 VELOCITY_19 TIME_2": 3041, "NOTE_ON_75 VELOCITY_19 TIME_3": 3042, "NOTE_ON_75 VELOCITY_20 TIME_0": 3043, "NOTE_ON_75 VELOCITY_20 TIME_1": 3044, "NOTE_ON_75 VELOCITY_20 TIME_2": 3045, "NOTE_ON_75 VELOCITY_21 TIME_0": 3046, "NOTE_ON_75 VELOCITY_21 TIME_1": 3047, "NOTE_ON_75 VELOCITY_22 TIME_0": 3048, "NOTE_ON_75 VELOCITY_22 TIME_1": 3049, "NOTE_ON_75 VELOCITY_23 TIME_0": 3050, "NOTE_ON_75 VELOCITY_23 TIME_1": 3051, "NOTE_ON_75 VELOCITY_23 TIME_2": 3052, "NOTE_ON_75 VELOCITY_24 TIME_0": 3053, "NOTE_ON_75 VELOCITY_24 TIME_1": 3054, "NOTE_ON_75 VELOCITY_25 TIME_0": 3055, "NOTE_ON_75 VELOCITY_25 TIME_1": 3056, "NOTE_ON_75 VELOCITY_26 TIME_0": 3057, "NOTE_ON_75 VELOCITY_27 TIME_0": 3058, "NOTE_ON_75 VELOCITY_27 TIME_1": 3059, "NOTE_ON_75 VELOCITY_28 TIME_0": 3060, "NOTE_ON_75 VELOCITY_29 TIME_0": 3061, "NOTE_ON_75 VELOCITY_29 TIME_1": 3062, "NOTE_ON_75 VELOCITY_29 TIME_2": 3063, "NOTE_ON_75 VELOCITY_30 TIME_0": 3064, "NOTE_ON_75 VELOCITY_30 TIME_1": 3065, "NOTE_ON_75 VELOCITY_31 TIME_0": 3066, "NOTE_ON_75 VELOCITY_31 TIME_1": 3067, "NOTE_ON_75 VELOCITY_32 TIME_0": 3068, "NOTE_ON_75 VELOCITY_32 TIME_1": 3069, "NOTE_ON_75 VELOCITY_32 TIME_6": 3070, "NOTE_ON_75 VELOCITY_33 TIME_0": 3071, "NOTE_ON_75 VELOCITY_33 TIME_1": 3072, "NOTE_ON_75 VELOCITY_34 TIME_0": 3073, "NOTE_ON_75 VELOCITY_34 TIME_1": 3074, "NOTE_ON_75 VELOCITY_35 TIME_0": 3075, "NOTE_ON_75 VELOCITY_35 TIME_1": 3076, "NOTE_ON_75 VELOCITY_35 TIME_2": 3077, "NOTE_ON_75 VELOCITY_36 TIME_0": 3078, "NOTE_ON_75 VELOCITY_36 TIME_1": 3079, "NOTE_ON_75 VELOCITY_36 TIME_2": 3080, "NOTE_ON_75 VELOCITY_37 TIME_0": 3081, "NOTE_ON_75 VELOCITY_37 TIME_1": 3082, "NOTE_ON_75 VELOCITY_38 TIME_0": 3083, "NOTE_ON_75 VELOCITY_38 TIME_1": 3084, "NOTE_ON_75 VELOCITY_38 TIME_2": 3085, "NOTE_ON_75 VELOCITY_39 TIME_0": 3086, "NOTE_ON_75 VELOCITY_39 TIME_1": 3087, "NOTE_ON_75 VELOCITY_39 TIME_2": 3088, "NOTE_ON_75 VELOCITY_40 TIME_0": 3089, "NOTE_ON_75 VELOCITY_40 TIME_1": 3090, "NOTE_ON_75 VELOCITY_40 TIME_2": 3091, "NOTE_ON_75 VELOCITY_41 TIME_0": 3092, "NOTE_ON_75 VELOCITY_41 TIME_1": 3093, "NOTE_ON_75 VELOCITY_41 TIME_2": 3094, "NOTE_ON_75 VELOCITY_42 TIME_0": 3095, "NOTE_ON_75 VELOCITY_42 TIME_1": 3096, "NOTE_ON_75 VELOCITY_43 TIME_0": 3097, "NOTE_ON_75 VELOCITY_43 TIME_1": 3098, "NOTE_ON_75 VELOCITY_43 TIME_2": 3099, "NOTE_ON_75 VELOCITY_44 TIME_0": 3100, "NOTE_ON_75 VELOCITY_44 TIME_1": 3101, "NOTE_ON_75 VELOCITY_44 TIME_2": 3102, "NOTE_ON_75 VELOCITY_45 TIME_0": 3103, "NOTE_ON_75 VELOCITY_45 TIME_1": 3104, "NOTE_ON_75 VELOCITY_46 TIME_0": 3105, "NOTE_ON_75 VELOCITY_46 TIME_1": 3106, "NOTE_ON_75 VELOCITY_46 TIME_2": 3107, "NOTE_ON_75 VELOCITY_47 TIME_0": 3108, "NOTE_ON_75 VELOCITY_47 TIME_1": 3109, "NOTE_ON_75 VELOCITY_48 TIME_0": 3110, "NOTE_ON_75 VELOCITY_48 TIME_1": 3111, "NOTE_ON_75 VELOCITY_49 TIME_0": 3112, "NOTE_ON_75 VELOCITY_49 TIME_1": 3113, "NOTE_ON_75 VELOCITY_50 TIME_0": 3114, "NOTE_ON_75 VELOCITY_50 TIME_2": 3115, "NOTE_ON_75 VELOCITY_51 TIME_0": 3116, "NOTE_ON_75 VELOCITY_51 TIME_1": 3117, "NOTE_ON_75 VELOCITY_52 TIME_0": 3118, "NOTE_ON_75 VELOCITY_52 TIME_1": 3119, "NOTE_ON_75 VELOCITY_53 TIME_0": 3120, "NOTE_ON_75 VELOCITY_53 TIME_1": 3121, "NOTE_ON_75 VELOCITY_54 TIME_0": 3122, "NOTE_ON_75 VELOCITY_54 TIME_1": 3123, "NOTE_ON_75 VELOCITY_54 TIME_2": 3124, "NOTE_ON_75 VELOCITY_55 TIME_2": 3125, "NOTE_ON_75 VELOCITY_56 TIME_2": 3126, "NOTE_ON_75 VELOCITY_57 TIME_0": 3127, "NOTE_ON_75 VELOCITY_57 TIME_1": 3128, "NOTE_ON_75 VELOCITY_58 TIME_1": 3129, "NOTE_ON_75 VELOCITY_58 TIME_2": 3130, "NOTE_ON_75 VELOCITY_59 TIME_1": 3131, "NOTE_ON_75 VELOCITY_60 TIME_0": 3132, "NOTE_ON_75 VELOCITY_60 TIME_1": 3133, "NOTE_ON_75 VELOCITY_61 TIME_0": 3134, "NOTE_ON_75 VELOCITY_63 TIME_0": 3135, "NOTE_ON_75 VELOCITY_64 TIME_1": 3136, "NOTE_ON_75 VELOCITY_65 TIME_0": 3137, "NOTE_ON_75 VELOCITY_66 TIME_0": 3138, "NOTE_ON_75 VELOCITY_66 TIME_1": 3139, "NOTE_ON_76": 3140, "NOTE_ON_76 VELOCITY_10 TIME_0": 3141, "NOTE_ON_76 VELOCITY_10 TIME_2": 3142, "NOTE_ON_76 VELOCITY_10 TIME_4": 3143, "NOTE_ON_76 VELOCITY_11 TIME_0": 3144, "NOTE_ON_76 VELOCITY_11 TIME_1": 3145, "NOTE_ON_76 VELOCITY_12 TIME_0": 3146, "NOTE_ON_76 VELOCITY_13 TIME_0": 3147, "NOTE_ON_76 VELOCITY_13 TIME_1": 3148, "NOTE_ON_76 VELOCITY_13 TIME_2": 3149, "NOTE_ON_76 VELOCITY_14 TIME_0": 3150, "NOTE_ON_76 VELOCITY_14 TIME_1": 3151, "NOTE_ON_76 VELOCITY_14 TIME_2": 3152, "NOTE_ON_76 VELOCITY_15 TIME_0": 3153, "NOTE_ON_76 VELOCITY_15 TIME_1": 3154, "NOTE_ON_76 VELOCITY_15 TIME_4": 3155, "NOTE_ON_76 VELOCITY_16 TIME_0": 3156, "NOTE_ON_76 VELOCITY_16 TIME_1": 3157, "NOTE_ON_76 VELOCITY_16 TIME_3": 3158, "NOTE_ON_76 VELOCITY_17 TIME_0": 3159, "NOTE_ON_76 VELOCITY_17 TIME_1": 3160, "NOTE_ON_76 VELOCITY_18 TIME_0": 3161, "NOTE_ON_76 VELOCITY_18 TIME_2": 3162, "NOTE_ON_76 VELOCITY_18 TIME_6": 3163, "NOTE_ON_76 VELOCITY_19 TIME_0": 3164, "NOTE_ON_76 VELOCITY_19 TIME_1": 3165, "NOTE_ON_76 VELOCITY_19 TIME_4": 3166, "NOTE_ON_76 VELOCITY_20 TIME_0": 3167, "NOTE_ON_76 VELOCITY_20 TIME_1": 3168, "NOTE_ON_76 VELOCITY_20 TIME_2": 3169, "NOTE_ON_76 VELOCITY_20 TIME_3": 3170, "NOTE_ON_76 VELOCITY_20 TIME_8": 3171, "NOTE_ON_76 VELOCITY_21 TIME_0": 3172, "NOTE_ON_76 VELOCITY_21 TIME_1": 3173, "NOTE_ON_76 VELOCITY_21 TIME_2": 3174, "NOTE_ON_76 VELOCITY_22 TIME_0": 3175, "NOTE_ON_76 VELOCITY_22 TIME_1": 3176, "NOTE_ON_76 VELOCITY_22 TIME_2": 3177, "NOTE_ON_76 VELOCITY_23 TIME_0": 3178, "NOTE_ON_76 VELOCITY_23 TIME_1": 3179, "NOTE_ON_76 VELOCITY_23 TIME_3": 3180, "NOTE_ON_76 VELOCITY_24 TIME_0": 3181, "NOTE_ON_76 VELOCITY_24 TIME_1": 3182, "NOTE_ON_76 VELOCITY_24 TIME_2": 3183, "NOTE_ON_76 VELOCITY_25 TIME_0": 3184, "NOTE_ON_76 VELOCITY_25 TIME_1": 3185, "NOTE_ON_76 VELOCITY_26 TIME_0": 3186, "NOTE_ON_76 VELOCITY_26 TIME_1": 3187, "NOTE_ON_76 VELOCITY_26 TIME_2": 3188, "NOTE_ON_76 VELOCITY_27 TIME_0": 3189, "NOTE_ON_76 VELOCITY_27 TIME_1": 3190, "NOTE_ON_76 VELOCITY_27 TIME_2": 3191, "NOTE_ON_76 VELOCITY_28 TIME_0": 3192, "NOTE_ON_76 VELOCITY_28 TIME_1": 3193, "NOTE_ON_76 VELOCITY_29 TIME_0": 3194, "NOTE_ON_76 VELOCITY_29 TIME_1": 3195, "NOTE_ON_76 VELOCITY_30 TIME_0": 3196, "NOTE_ON_76 VELOCITY_30 TIME_1": 3197, "NOTE_ON_76 VELOCITY_31 TIME_0": 3198, "NOTE_ON_76 VELOCITY_31 TIME_1": 3199, "NOTE_ON_76 VELOCITY_31 TIME_2": 3200, "NOTE_ON_76 VELOCITY_32 TIME_0": 3201, "NOTE_ON_76 VELOCITY_32 TIME_1": 3202, "NOTE_ON_76 VELOCITY_33 TIME_0": 3203, "NOTE_ON_76 VELOCITY_33 TIME_1": 3204, "NOTE_ON_76 VELOCITY_34 TIME_0": 3205, "NOTE_ON_76 VELOCITY_34 TIME_2": 3206, "NOTE_ON_76 VELOCITY_35 TIME_0": 3207, "NOTE_ON_76 VELOCITY_35 TIME_1": 3208, "NOTE_ON_76 VELOCITY_35 TIME_2": 3209, "NOTE_ON_76 VELOCITY_35 TIME_3": 3210, "NOTE_ON_76 VELOCITY_36 TIME_0": 3211, "NOTE_ON_76 VELOCITY_36 TIME_1": 3212, "NOTE_ON_76 VELOCITY_37 TIME_0": 3213, "NOTE_ON_76 VELOCITY_37 TIME_1": 3214, "NOTE_ON_76 VELOCITY_38 TIME_0": 3215, "NOTE_ON_76 VELOCITY_38 TIME_1": 3216, "NOTE_ON_76 VELOCITY_39 TIME_0": 3217, "NOTE_ON_76 VELOCITY_39 TIME_1": 3218, "NOTE_ON_76 VELOCITY_39 TIME_2": 3219, "NOTE_ON_76 VELOCITY_40 TIME_0": 3220, "NOTE_ON_76 VELOCITY_40 TIME_1": 3221, "NOTE_ON_76 VELOCITY_40 TIME_2": 3222, "NOTE_ON_76 VELOCITY_40 TIME_6": 3223, "NOTE_ON_76 VELOCITY_41 TIME_0": 3224, "NOTE_ON_76 VELOCITY_41 TIME_1": 3225, "NOTE_ON_76 VELOCITY_42 TIME_0": 3226, "NOTE_ON_76 VELOCITY_43 TIME_0": 3227, "NOTE_ON_76 VELOCITY_43 TIME_1": 3228, "NOTE_ON_76 VELOCITY_43 TIME_3": 3229, "NOTE_ON_76 VELOCITY_44 TIME_0": 3230, "NOTE_ON_76 VELOCITY_44 TIME_1": 3231, "NOTE_ON_76 VELOCITY_44 TIME_10": 3232, "NOTE_ON_76 VELOCITY_45 TIME_0": 3233, "NOTE_ON_76 VELOCITY_45 TIME_1": 3234, "NOTE_ON_76 VELOCITY_45 TIME_2": 3235, "NOTE_ON_76 VELOCITY_46 TIME_0": 3236, "NOTE_ON_76 VELOCITY_46 TIME_1": 3237, "NOTE_ON_76 VELOCITY_47 TIME_0": 3238, "NOTE_ON_76 VELOCITY_47 TIME_1": 3239, "NOTE_ON_76 VELOCITY_48 TIME_0": 3240, "NOTE_ON_76 VELOCITY_48 TIME_1": 3241, "NOTE_ON_76 VELOCITY_49 TIME_0": 3242, "NOTE_ON_76 VELOCITY_50 TIME_0": 3243, "NOTE_ON_76 VELOCITY_50 TIME_1": 3244, "NOTE_ON_76 VELOCITY_50 TIME_4": 3245, "NOTE_ON_76 VELOCITY_51 TIME_0": 3246, "NOTE_ON_76 VELOCITY_51 TIME_1": 3247, "NOTE_ON_76 VELOCITY_52 TIME_0": 3248, "NOTE_ON_76 VELOCITY_52 TIME_1": 3249, "NOTE_ON_76 VELOCITY_52 TIME_2": 3250, "NOTE_ON_76 VELOCITY_53 TIME_0": 3251, "NOTE_ON_76 VELOCITY_53 TIME_1": 3252, "NOTE_ON_76 VELOCITY_54 TIME_0": 3253, "NOTE_ON_76 VELOCITY_54 TIME_1": 3254, "NOTE_ON_76 VELOCITY_54 TIME_2": 3255, "NOTE_ON_76 VELOCITY_55 TIME_0": 3256, "NOTE_ON_76 VELOCITY_55 TIME_1": 3257, "NOTE_ON_76 VELOCITY_56 TIME_0": 3258, "NOTE_ON_76 VELOCITY_56 TIME_1": 3259, "NOTE_ON_76 VELOCITY_56 TIME_9": 3260, "NOTE_ON_76 VELOCITY_57 TIME_1": 3261, "NOTE_ON_76 VELOCITY_58 TIME_0": 3262, "NOTE_ON_76 VELOCITY_58 TIME_1": 3263, "NOTE_ON_76 VELOCITY_59 TIME_0": 3264, "NOTE_ON_76 VELOCITY_59 TIME_1": 3265, "NOTE_ON_76 VELOCITY_60 TIME_0": 3266, "NOTE_ON_76 VELOCITY_60 TIME_1": 3267, "NOTE_ON_76 VELOCITY_61 TIME_0": 3268, "NOTE_ON_76 VELOCITY_62 TIME_0": 3269, "NOTE_ON_76 VELOCITY_62 TIME_1": 3270, "NOTE_ON_76 VELOCITY_63 TIME_0": 3271, "NOTE_ON_76 VELOCITY_63 TIME_1": 3272, "NOTE_ON_76 VELOCITY_64 TIME_1": 3273, "NOTE_ON_76 VELOCITY_66 TIME_0": 3274, "NOTE_ON_76 VELOCITY_66 TIME_1": 3275, "NOTE_ON_76 VELOCITY_67 TIME_0": 3276, "NOTE_ON_76 VELOCITY_67 TIME_1": 3277, "NOTE_ON_76 VELOCITY_68 TIME_1": 3278, "NOTE_ON_76 VELOCITY_68 TIME_2": 3279, "NOTE_ON_76 VELOCITY_70 TIME_0": 3280, "NOTE_ON_76 VELOCITY_70 TIME_3": 3281, "NOTE_ON_76 VELOCITY_9 TIME_0": 3282, "NOTE_ON_76 VELOCITY_9 TIME_1": 3283, "NOTE_ON_76 VELOCITY_9 TIME_6": 3284, "NOTE_ON_77": 3285, "NOTE_ON_77 VELOCITY_10 TIME_0": 3286, "NOTE_ON_77 VELOCITY_10 TIME_1": 3287, "NOTE_ON_77 VELOCITY_10 TIME_2": 3288, "NOTE_ON_77 VELOCITY_11 TIME_0": 3289, "NOTE_ON_77 VELOCITY_11 TIME_1": 3290, "NOTE_ON_77 VELOCITY_11 TIME_2": 3291, "NOTE_ON_77 VELOCITY_12 TIME_0": 3292, "NOTE_ON_77 VELOCITY_12 TIME_1": 3293, "NOTE_ON_77 VELOCITY_13 TIME_0": 3294, "NOTE_ON_77 VELOCITY_13 TIME_1": 3295, "NOTE_ON_77 VELOCITY_14 TIME_0": 3296, "NOTE_ON_77 VELOCITY_14 TIME_1": 3297, "NOTE_ON_77 VELOCITY_14 TIME_3": 3298, "NOTE_ON_77 VELOCITY_14 TIME_9": 3299, "NOTE_ON_77 VELOCITY_15 TIME_0": 3300, "NOTE_ON_77 VELOCITY_15 TIME_1": 3301, "NOTE_ON_77 VELOCITY_15 TIME_2": 3302, "NOTE_ON_77 VELOCITY_16 TIME_0": 3303, "NOTE_ON_77 VELOCITY_16 TIME_1": 3304, "NOTE_ON_77 VELOCITY_16 TIME_2": 3305, "NOTE_ON_77 VELOCITY_16 TIME_3": 3306, "NOTE_ON_77 VELOCITY_17 TIME_0": 3307, "NOTE_ON_77 VELOCITY_17 TIME_1": 3308, "NOTE_ON_77 VELOCITY_18 TIME_0": 3309, "NOTE_ON_77 VELOCITY_18 TIME_1": 3310, "NOTE_ON_77 VELOCITY_18 TIME_2": 3311, "NOTE_ON_77 VELOCITY_19 TIME_0": 3312, "NOTE_ON_77 VELOCITY_19 TIME_1": 3313, "NOTE_ON_77 VELOCITY_19 TIME_2": 3314, "NOTE_ON_77 VELOCITY_20 TIME_0": 3315, "NOTE_ON_77 VELOCITY_20 TIME_1": 3316, "NOTE_ON_77 VELOCITY_21 TIME_0": 3317, "NOTE_ON_77 VELOCITY_21 TIME_1": 3318, "NOTE_ON_77 VELOCITY_21 TIME_5": 3319, "NOTE_ON_77 VELOCITY_22 TIME_0": 3320, "NOTE_ON_77 VELOCITY_22 TIME_1": 3321, "NOTE_ON_77 VELOCITY_23 TIME_0": 3322, "NOTE_ON_77 VELOCITY_23 TIME_1": 3323, "NOTE_ON_77 VELOCITY_23 TIME_2": 3324, "NOTE_ON_77 VELOCITY_24 TIME_0": 3325, "NOTE_ON_77 VELOCITY_24 TIME_1": 3326, "NOTE_ON_77 VELOCITY_24 TIME_2": 3327, "NOTE_ON_77 VELOCITY_25 TIME_0": 3328, "NOTE_ON_77 VELOCITY_25 TIME_1": 3329, "NOTE_ON_77 VELOCITY_25 TIME_2": 3330, "NOTE_ON_77 VELOCITY_26 TIME_0": 3331, "NOTE_ON_77 VELOCITY_26 TIME_1": 3332, "NOTE_ON_77 VELOCITY_26 TIME_2": 3333, "NOTE_ON_77 VELOCITY_26 TIME_4": 3334, "NOTE_ON_77 VELOCITY_27 TIME_0": 3335, "NOTE_ON_77 VELOCITY_27 TIME_1": 3336, "NOTE_ON_77 VELOCITY_27 TIME_3": 3337, "NOTE_ON_77 VELOCITY_28 TIME_0": 3338, "NOTE_ON_77 VELOCITY_28 TIME_1": 3339, "NOTE_ON_77 VELOCITY_29 TIME_0": 3340, "NOTE_ON_77 VELOCITY_29 TIME_1": 3341, "NOTE_ON_77 VELOCITY_29 TIME_2": 3342, "NOTE_ON_77 VELOCITY_29 TIME_3": 3343, "NOTE_ON_77 VELOCITY_30 TIME_0": 3344, "NOTE_ON_77 VELOCITY_30 TIME_1": 3345, "NOTE_ON_77 VELOCITY_31 TIME_0": 3346, "NOTE_ON_77 VELOCITY_31 TIME_1": 3347, "NOTE_ON_77 VELOCITY_32 TIME_0": 3348, "NOTE_ON_77 VELOCITY_32 TIME_1": 3349, "NOTE_ON_77 VELOCITY_33 TIME_0": 3350, "NOTE_ON_77 VELOCITY_33 TIME_1": 3351, "NOTE_ON_77 VELOCITY_34 TIME_0": 3352, "NOTE_ON_77 VELOCITY_34 TIME_1": 3353, "NOTE_ON_77 VELOCITY_35 TIME_0": 3354, "NOTE_ON_77 VELOCITY_35 TIME_1": 3355, "NOTE_ON_77 VELOCITY_35 TIME_2": 3356, "NOTE_ON_77 VELOCITY_36 TIME_0": 3357, "NOTE_ON_77 VELOCITY_36 TIME_1": 3358, "NOTE_ON_77 VELOCITY_37 TIME_0": 3359, "NOTE_ON_77 VELOCITY_37 TIME_2": 3360, "NOTE_ON_77 VELOCITY_38 TIME_0": 3361, "NOTE_ON_77 VELOCITY_38 TIME_1": 3362, "NOTE_ON_77 VELOCITY_38 TIME_2": 3363, "NOTE_ON_77 VELOCITY_39 TIME_0": 3364, "NOTE_ON_77 VELOCITY_39 TIME_1": 3365, "NOTE_ON_77 VELOCITY_40 TIME_0": 3366, "NOTE_ON_77 VELOCITY_40 TIME_1": 3367, "NOTE_ON_77 VELOCITY_40 TIME_7": 3368, "NOTE_ON_77 VELOCITY_41 TIME_0": 3369, "NOTE_ON_77 VELOCITY_41 TIME_1": 3370, "NOTE_ON_77 VELOCITY_42 TIME_0": 3371, "NOTE_ON_77 VELOCITY_42 TIME_1": 3372, "NOTE_ON_77 VELOCITY_43 TIME_0": 3373, "NOTE_ON_77 VELOCITY_43 TIME_1": 3374, "NOTE_ON_77 VELOCITY_44 TIME_0": 3375, "NOTE_ON_77 VELOCITY_44 TIME_1": 3376, "NOTE_ON_77 VELOCITY_45 TIME_0": 3377, "NOTE_ON_77 VELOCITY_46 TIME_0": 3378, "NOTE_ON_77 VELOCITY_46 TIME_1": 3379, "NOTE_ON_77 VELOCITY_47 TIME_0": 3380, "NOTE_ON_77 VELOCITY_47 TIME_1": 3381, "NOTE_ON_77 VELOCITY_47 TIME_2": 3382, "NOTE_ON_77 VELOCITY_48 TIME_0": 3383, "NOTE_ON_77 VELOCITY_48 TIME_1": 3384, "NOTE_ON_77 VELOCITY_49 TIME_0": 3385, "NOTE_ON_77 VELOCITY_49 TIME_1": 3386, "NOTE_ON_77 VELOCITY_50 TIME_0": 3387, "NOTE_ON_77 VELOCITY_50 TIME_1": 3388, "NOTE_ON_77 VELOCITY_51 TIME_0": 3389, "NOTE_ON_77 VELOCITY_51 TIME_1": 3390, "NOTE_ON_77 VELOCITY_51 TIME_3": 3391, "NOTE_ON_77 VELOCITY_52 TIME_0": 3392, "NOTE_ON_77 VELOCITY_52 TIME_2": 3393, "NOTE_ON_77 VELOCITY_53 TIME_0": 3394, "NOTE_ON_77 VELOCITY_53 TIME_1": 3395, "NOTE_ON_77 VELOCITY_54 TIME_0": 3396, "NOTE_ON_77 VELOCITY_54 TIME_1": 3397, "NOTE_ON_77 VELOCITY_55 TIME_0": 3398, "NOTE_ON_77 VELOCITY_55 TIME_1": 3399, "NOTE_ON_77 VELOCITY_57 TIME_0": 3400, "NOTE_ON_77 VELOCITY_57 TIME_1": 3401, "NOTE_ON_77 VELOCITY_58 TIME_0": 3402, "NOTE_ON_77 VELOCITY_59 TIME_0": 3403, "NOTE_ON_77 VELOCITY_65 TIME_0": 3404, "NOTE_ON_77 VELOCITY_67 TIME_0": 3405, "NOTE_ON_77 VELOCITY_68 TIME_1": 3406, "NOTE_ON_77 VELOCITY_9 TIME_0": 3407, "NOTE_ON_77 VELOCITY_9 TIME_1": 3408, "NOTE_ON_77 VELOCITY_9 TIME_2": 3409, "NOTE_ON_78": 3410, "NOTE_ON_78 VELOCITY_10 TIME_0": 3411, "NOTE_ON_78 VELOCITY_10 TIME_1": 3412, "NOTE_ON_78 VELOCITY_10 TIME_2": 3413, "NOTE_ON_78 VELOCITY_10 TIME_3": 3414, "NOTE_ON_78 VELOCITY_11 TIME_0": 3415, "NOTE_ON_78 VELOCITY_11 TIME_1": 3416, "NOTE_ON_78 VELOCITY_11 TIME_5": 3417, "NOTE_ON_78 VELOCITY_12 TIME_0": 3418, "NOTE_ON_78 VELOCITY_12 TIME_1": 3419, "NOTE_ON_78 VELOCITY_12 TIME_2": 3420, "NOTE_ON_78 VELOCITY_12 TIME_4": 3421, "NOTE_ON_78 VELOCITY_13 TIME_0": 3422, "NOTE_ON_78 VELOCITY_13 TIME_1": 3423, "NOTE_ON_78 VELOCITY_13 TIME_2": 3424, "NOTE_ON_78 VELOCITY_14 TIME_0": 3425, "NOTE_ON_78 VELOCITY_14 TIME_1": 3426, "NOTE_ON_78 VELOCITY_14 TIME_3": 3427, "NOTE_ON_78 VELOCITY_14 TIME_4": 3428, "NOTE_ON_78 VELOCITY_15 TIME_0": 3429, "NOTE_ON_78 VELOCITY_15 TIME_1": 3430, "NOTE_ON_78 VELOCITY_16 TIME_0": 3431, "NOTE_ON_78 VELOCITY_16 TIME_1": 3432, "NOTE_ON_78 VELOCITY_16 TIME_2": 3433, "NOTE_ON_78 VELOCITY_16 TIME_3": 3434, "NOTE_ON_78 VELOCITY_16 TIME_5": 3435, "NOTE_ON_78 VELOCITY_17 TIME_0": 3436, "NOTE_ON_78 VELOCITY_17 TIME_1": 3437, "NOTE_ON_78 VELOCITY_18 TIME_0": 3438, "NOTE_ON_78 VELOCITY_18 TIME_1": 3439, "NOTE_ON_78 VELOCITY_19 TIME_0": 3440, "NOTE_ON_78 VELOCITY_19 TIME_1": 3441, "NOTE_ON_78 VELOCITY_19 TIME_2": 3442, "NOTE_ON_78 VELOCITY_19 TIME_3": 3443, "NOTE_ON_78 VELOCITY_20 TIME_0": 3444, "NOTE_ON_78 VELOCITY_20 TIME_1": 3445, "NOTE_ON_78 VELOCITY_20 TIME_2": 3446, "NOTE_ON_78 VELOCITY_20 TIME_3": 3447, "NOTE_ON_78 VELOCITY_21 TIME_0": 3448, "NOTE_ON_78 VELOCITY_21 TIME_1": 3449, "NOTE_ON_78 VELOCITY_21 TIME_2": 3450, "NOTE_ON_78 VELOCITY_21 TIME_3": 3451, "NOTE_ON_78 VELOCITY_22 TIME_0": 3452, "NOTE_ON_78 VELOCITY_22 TIME_1": 3453, "NOTE_ON_78 VELOCITY_23 TIME_0": 3454, "NOTE_ON_78 VELOCITY_23 TIME_1": 3455, "NOTE_ON_78 VELOCITY_23 TIME_2": 3456, "NOTE_ON_78 VELOCITY_24 TIME_0": 3457, "NOTE_ON_78 VELOCITY_24 TIME_1": 3458, "NOTE_ON_78 VELOCITY_25 TIME_0": 3459, "NOTE_ON_78 VELOCITY_25 TIME_1": 3460, "NOTE_ON_78 VELOCITY_26 TIME_0": 3461, "NOTE_ON_78 VELOCITY_26 TIME_1": 3462, "NOTE_ON_78 VELOCITY_26 TIME_2": 3463, "NOTE_ON_78 VELOCITY_27 TIME_0": 3464, "NOTE_ON_78 VELOCITY_27 TIME_1": 3465, "NOTE_ON_78 VELOCITY_28 TIME_0": 3466, "NOTE_ON_78 VELOCITY_28 TIME_3": 3467, "NOTE_ON_78 VELOCITY_29 TIME_0": 3468, "NOTE_ON_78 VELOCITY_29 TIME_1": 3469, "NOTE_ON_78 VELOCITY_30 TIME_0": 3470, "NOTE_ON_78 VELOCITY_30 TIME_1": 3471, "NOTE_ON_78 VELOCITY_31 TIME_0": 3472, "NOTE_ON_78 VELOCITY_31 TIME_1": 3473, "NOTE_ON_78 VELOCITY_31 TIME_2": 3474, "NOTE_ON_78 VELOCITY_32 TIME_0": 3475, "NOTE_ON_78 VELOCITY_32 TIME_1": 3476, "NOTE_ON_78 VELOCITY_33 TIME_0": 3477, "NOTE_ON_78 VELOCITY_33 TIME_1": 3478, "NOTE_ON_78 VELOCITY_33 TIME_2": 3479, "NOTE_ON_78 VELOCITY_34 TIME_0": 3480, "NOTE_ON_78 VELOCITY_34 TIME_1": 3481, "NOTE_ON_78 VELOCITY_35 TIME_0": 3482, "NOTE_ON_78 VELOCITY_36 TIME_0": 3483, "NOTE_ON_78 VELOCITY_36 TIME_1": 3484, "NOTE_ON_78 VELOCITY_36 TIME_3": 3485, "NOTE_ON_78 VELOCITY_37 TIME_0": 3486, "NOTE_ON_78 VELOCITY_37 TIME_1": 3487, "NOTE_ON_78 VELOCITY_38 TIME_0": 3488, "NOTE_ON_78 VELOCITY_38 TIME_1": 3489, "NOTE_ON_78 VELOCITY_38 TIME_2": 3490, "NOTE_ON_78 VELOCITY_39 TIME_0": 3491, "NOTE_ON_78 VELOCITY_39 TIME_1": 3492, "NOTE_ON_78 VELOCITY_40 TIME_0": 3493, "NOTE_ON_78 VELOCITY_40 TIME_1": 3494, "NOTE_ON_78 VELOCITY_41 TIME_0": 3495, "NOTE_ON_78 VELOCITY_41 TIME_1": 3496, "NOTE_ON_78 VELOCITY_42 TIME_0": 3497, "NOTE_ON_78 VELOCITY_42 TIME_2": 3498, "NOTE_ON_78 VELOCITY_43 TIME_0": 3499, "NOTE_ON_78 VELOCITY_43 TIME_1": 3500, "NOTE_ON_78 VELOCITY_44 TIME_0": 3501, "NOTE_ON_78 VELOCITY_44 TIME_1": 3502, "NOTE_ON_78 VELOCITY_45 TIME_0": 3503, "NOTE_ON_78 VELOCITY_45 TIME_1": 3504, "NOTE_ON_78 VELOCITY_46 TIME_0": 3505, "NOTE_ON_78 VELOCITY_47 TIME_0": 3506, "NOTE_ON_78 VELOCITY_47 TIME_1": 3507, "NOTE_ON_78 VELOCITY_48 TIME_0": 3508, "NOTE_ON_78 VELOCITY_48 TIME_1": 3509, "NOTE_ON_78 VELOCITY_49 TIME_0": 3510, "NOTE_ON_78 VELOCITY_49 TIME_3": 3511, "NOTE_ON_78 VELOCITY_50 TIME_0": 3512, "NOTE_ON_78 VELOCITY_51 TIME_0": 3513, "NOTE_ON_78 VELOCITY_51 TIME_1": 3514, "NOTE_ON_78 VELOCITY_51 TIME_2": 3515, "NOTE_ON_78 VELOCITY_53 TIME_0": 3516, "NOTE_ON_78 VELOCITY_54 TIME_0": 3517, "NOTE_ON_78 VELOCITY_54 TIME_1": 3518, "NOTE_ON_78 VELOCITY_55 TIME_0": 3519, "NOTE_ON_78 VELOCITY_55 TIME_1": 3520, "NOTE_ON_78 VELOCITY_56 TIME_1": 3521, "NOTE_ON_78 VELOCITY_57 TIME_0": 3522, "NOTE_ON_78 VELOCITY_57 TIME_1": 3523, "NOTE_ON_78 VELOCITY_58 TIME_0": 3524, "NOTE_ON_78 VELOCITY_59 TIME_0": 3525, "NOTE_ON_78 VELOCITY_60 TIME_0": 3526, "NOTE_ON_78 VELOCITY_61 TIME_0": 3527, "NOTE_ON_78 VELOCITY_61 TIME_1": 3528, "NOTE_ON_78 VELOCITY_63 TIME_1": 3529, "NOTE_ON_78 VELOCITY_64 TIME_0": 3530, "NOTE_ON_78 VELOCITY_66 TIME_0": 3531, "NOTE_ON_78 VELOCITY_66 TIME_1": 3532, "NOTE_ON_78 VELOCITY_70 TIME_1": 3533, "NOTE_ON_78 VELOCITY_71 TIME_0": 3534, "NOTE_ON_78 VELOCITY_9 TIME_0": 3535, "NOTE_ON_78 VELOCITY_9 TIME_3": 3536, "NOTE_ON_79": 3537, "NOTE_ON_79 VELOCITY_10 TIME_0": 3538, "NOTE_ON_79 VELOCITY_11 TIME_0": 3539, "NOTE_ON_79 VELOCITY_11 TIME_1": 3540, "NOTE_ON_79 VELOCITY_11 TIME_3": 3541, "NOTE_ON_79 VELOCITY_12 TIME_0": 3542, "NOTE_ON_79 VELOCITY_12 TIME_1": 3543, "NOTE_ON_79 VELOCITY_12 TIME_3": 3544, "NOTE_ON_79 VELOCITY_13 TIME_0": 3545, "NOTE_ON_79 VELOCITY_13 TIME_1": 3546, "NOTE_ON_79 VELOCITY_14 TIME_0": 3547, "NOTE_ON_79 VELOCITY_14 TIME_1": 3548, "NOTE_ON_79 VELOCITY_15 TIME_0": 3549, "NOTE_ON_79 VELOCITY_15 TIME_1": 3550, "NOTE_ON_79 VELOCITY_15 TIME_4": 3551, "NOTE_ON_79 VELOCITY_16 TIME_0": 3552, "NOTE_ON_79 VELOCITY_16 TIME_1": 3553, "NOTE_ON_79 VELOCITY_16 TIME_2": 3554, "NOTE_ON_79 VELOCITY_17 TIME_0": 3555, "NOTE_ON_79 VELOCITY_17 TIME_2": 3556, "NOTE_ON_79 VELOCITY_18 TIME_0": 3557, "NOTE_ON_79 VELOCITY_18 TIME_1": 3558, "NOTE_ON_79 VELOCITY_19 TIME_0": 3559, "NOTE_ON_79 VELOCITY_19 TIME_1": 3560, "NOTE_ON_79 VELOCITY_19 TIME_2": 3561, "NOTE_ON_79 VELOCITY_20 TIME_0": 3562, "NOTE_ON_79 VELOCITY_20 TIME_7": 3563, "NOTE_ON_79 VELOCITY_21 TIME_0": 3564, "NOTE_ON_79 VELOCITY_21 TIME_1": 3565, "NOTE_ON_79 VELOCITY_22 TIME_0": 3566, "NOTE_ON_79 VELOCITY_22 TIME_1": 3567, "NOTE_ON_79 VELOCITY_23 TIME_0": 3568, "NOTE_ON_79 VELOCITY_23 TIME_1": 3569, "NOTE_ON_79 VELOCITY_24 TIME_0": 3570, "NOTE_ON_79 VELOCITY_24 TIME_1": 3571, "NOTE_ON_79 VELOCITY_25 TIME_0": 3572, "NOTE_ON_79 VELOCITY_25 TIME_1": 3573, "NOTE_ON_79 VELOCITY_25 TIME_2": 3574, "NOTE_ON_79 VELOCITY_26 TIME_0": 3575, "NOTE_ON_79 VELOCITY_27 TIME_0": 3576, "NOTE_ON_79 VELOCITY_27 TIME_1": 3577, "NOTE_ON_79 VELOCITY_27 TIME_3": 3578, "NOTE_ON_79 VELOCITY_28 TIME_0": 3579, "NOTE_ON_79 VELOCITY_28 TIME_1": 3580, "NOTE_ON_79 VELOCITY_29 TIME_0": 3581, "NOTE_ON_79 VELOCITY_29 TIME_1": 3582, "NOTE_ON_79 VELOCITY_30 TIME_0": 3583, "NOTE_ON_79 VELOCITY_30 TIME_1": 3584, "NOTE_ON_79 VELOCITY_31 TIME_0": 3585, "NOTE_ON_79 VELOCITY_31 TIME_1": 3586, "NOTE_ON_79 VELOCITY_32 TIME_0": 3587, "NOTE_ON_79 VELOCITY_33 TIME_0": 3588, "NOTE_ON_79 VELOCITY_33 TIME_1": 3589, "NOTE_ON_79 VELOCITY_33 TIME_5": 3590, "NOTE_ON_79 VELOCITY_34 TIME_0": 3591, "NOTE_ON_79 VELOCITY_34 TIME_1": 3592, "NOTE_ON_79 VELOCITY_35 TIME_0": 3593, "NOTE_ON_79 VELOCITY_35 TIME_1": 3594, "NOTE_ON_79 VELOCITY_36 TIME_0": 3595, "NOTE_ON_79 VELOCITY_37 TIME_0": 3596, "NOTE_ON_79 VELOCITY_37 TIME_1": 3597, "NOTE_ON_79 VELOCITY_38 TIME_0": 3598, "NOTE_ON_79 VELOCITY_38 TIME_4": 3599, "NOTE_ON_79 VELOCITY_39 TIME_0": 3600, "NOTE_ON_79 VELOCITY_39 TIME_1": 3601, "NOTE_ON_79 VELOCITY_40 TIME_0": 3602, "NOTE_ON_79 VELOCITY_41 TIME_0": 3603, "NOTE_ON_79 VELOCITY_42 TIME_0": 3604, "NOTE_ON_79 VELOCITY_42 TIME_1": 3605, "NOTE_ON_79 VELOCITY_43 TIME_0": 3606, "NOTE_ON_79 VELOCITY_44 TIME_0": 3607, "NOTE_ON_79 VELOCITY_44 TIME_1": 3608, "NOTE_ON_79 VELOCITY_44 TIME_2": 3609, "NOTE_ON_79 VELOCITY_45 TIME_0": 3610, "NOTE_ON_79 VELOCITY_45 TIME_1": 3611, "NOTE_ON_79 VELOCITY_46 TIME_3": 3612, "NOTE_ON_79 VELOCITY_47 TIME_0": 3613, "NOTE_ON_79 VELOCITY_48 TIME_0": 3614, "NOTE_ON_79 VELOCITY_48 TIME_1": 3615, "NOTE_ON_79 VELOCITY_49 TIME_0": 3616, "NOTE_ON_79 VELOCITY_50 TIME_0": 3617, "NOTE_ON_79 VELOCITY_50 TIME_1": 3618, "NOTE_ON_79 VELOCITY_51 TIME_0": 3619, "NOTE_ON_79 VELOCITY_52 TIME_0": 3620, "NOTE_ON_79 VELOCITY_53 TIME_0": 3621, "NOTE_ON_79 VELOCITY_55 TIME_0": 3622, "NOTE_ON_79 VELOCITY_55 TIME_1": 3623, "NOTE_ON_79 VELOCITY_56 TIME_0": 3624, "NOTE_ON_79 VELOCITY_56 TIME_1": 3625, "NOTE_ON_79 VELOCITY_57 TIME_0": 3626, "NOTE_ON_79 VELOCITY_58 TIME_0": 3627, "NOTE_ON_79 VELOCITY_59 TIME_0": 3628, "NOTE_ON_79 VELOCITY_60 TIME_0": 3629, "NOTE_ON_79 VELOCITY_63 TIME_0": 3630, "NOTE_ON_79 VELOCITY_64 TIME_0": 3631, "NOTE_ON_79 VELOCITY_65 TIME_0": 3632, "NOTE_ON_79 VELOCITY_66 TIME_0": 3633, "NOTE_ON_79 VELOCITY_67 TIME_0": 3634, "NOTE_ON_79 VELOCITY_69 TIME_0": 3635, "NOTE_ON_79 VELOCITY_72 TIME_0": 3636, "NOTE_ON_79 VELOCITY_74 TIME_0": 3637, "NOTE_ON_79 VELOCITY_81 TIME_0": 3638, "NOTE_ON_80": 3639, "NOTE_ON_80 VELOCITY_10 TIME_0": 3640, "NOTE_ON_80 VELOCITY_10 TIME_1": 3641, "NOTE_ON_80 VELOCITY_11 TIME_0": 3642, "NOTE_ON_80 VELOCITY_12 TIME_0": 3643, "NOTE_ON_80 VELOCITY_12 TIME_1": 3644, "NOTE_ON_80 VELOCITY_12 TIME_2": 3645, "NOTE_ON_80 VELOCITY_13 TIME_0": 3646, "NOTE_ON_80 VELOCITY_13 TIME_1": 3647, "NOTE_ON_80 VELOCITY_13 TIME_2": 3648, "NOTE_ON_80 VELOCITY_14 TIME_0": 3649, "NOTE_ON_80 VELOCITY_14 TIME_1": 3650, "NOTE_ON_80 VELOCITY_14 TIME_2": 3651, "NOTE_ON_80 VELOCITY_15 TIME_0": 3652, "NOTE_ON_80 VELOCITY_15 TIME_1": 3653, "NOTE_ON_80 VELOCITY_16 TIME_0": 3654, "NOTE_ON_80 VELOCITY_16 TIME_2": 3655, "NOTE_ON_80 VELOCITY_17 TIME_0": 3656, "NOTE_ON_80 VELOCITY_17 TIME_1": 3657, "NOTE_ON_80 VELOCITY_18 TIME_0": 3658, "NOTE_ON_80 VELOCITY_18 TIME_1": 3659, "NOTE_ON_80 VELOCITY_18 TIME_2": 3660, "NOTE_ON_80 VELOCITY_19 TIME_0": 3661, "NOTE_ON_80 VELOCITY_19 TIME_1": 3662, "NOTE_ON_80 VELOCITY_19 TIME_2": 3663, "NOTE_ON_80 VELOCITY_20 TIME_0": 3664, "NOTE_ON_80 VELOCITY_20 TIME_1": 3665, "NOTE_ON_80 VELOCITY_20 TIME_2": 3666, "NOTE_ON_80 VELOCITY_21 TIME_0": 3667, "NOTE_ON_80 VELOCITY_21 TIME_1": 3668, "NOTE_ON_80 VELOCITY_22 TIME_0": 3669, "NOTE_ON_80 VELOCITY_22 TIME_1": 3670, "NOTE_ON_80 VELOCITY_22 TIME_2": 3671, "NOTE_ON_80 VELOCITY_23 TIME_0": 3672, "NOTE_ON_80 VELOCITY_23 TIME_1": 3673, "NOTE_ON_80 VELOCITY_24 TIME_0": 3674, "NOTE_ON_80 VELOCITY_24 TIME_1": 3675, "NOTE_ON_80 VELOCITY_25 TIME_0": 3676, "NOTE_ON_80 VELOCITY_25 TIME_1": 3677, "NOTE_ON_80 VELOCITY_26 TIME_0": 3678, "NOTE_ON_80 VELOCITY_26 TIME_1": 3679, "NOTE_ON_80 VELOCITY_27 TIME_0": 3680, "NOTE_ON_80 VELOCITY_27 TIME_1": 3681, "NOTE_ON_80 VELOCITY_27 TIME_2": 3682, "NOTE_ON_80 VELOCITY_28 TIME_0": 3683, "NOTE_ON_80 VELOCITY_28 TIME_1": 3684, "NOTE_ON_80 VELOCITY_28 TIME_2": 3685, "NOTE_ON_80 VELOCITY_29 TIME_0": 3686, "NOTE_ON_80 VELOCITY_29 TIME_1": 3687, "NOTE_ON_80 VELOCITY_30 TIME_0": 3688, "NOTE_ON_80 VELOCITY_30 TIME_1": 3689, "NOTE_ON_80 VELOCITY_30 TIME_3": 3690, "NOTE_ON_80 VELOCITY_31 TIME_0": 3691, "NOTE_ON_80 VELOCITY_31 TIME_1": 3692, "NOTE_ON_80 VELOCITY_31 TIME_4": 3693, "NOTE_ON_80 VELOCITY_32 TIME_0": 3694, "NOTE_ON_80 VELOCITY_32 TIME_1": 3695, "NOTE_ON_80 VELOCITY_33 TIME_0": 3696, "NOTE_ON_80 VELOCITY_33 TIME_1": 3697, "NOTE_ON_80 VELOCITY_34 TIME_0": 3698, "NOTE_ON_80 VELOCITY_34 TIME_1": 3699, "NOTE_ON_80 VELOCITY_35 TIME_0": 3700, "NOTE_ON_80 VELOCITY_35 TIME_1": 3701, "NOTE_ON_80 VELOCITY_36 TIME_2": 3702, "NOTE_ON_80 VELOCITY_37 TIME_0": 3703, "NOTE_ON_80 VELOCITY_38 TIME_0": 3704, "NOTE_ON_80 VELOCITY_38 TIME_1": 3705, "NOTE_ON_80 VELOCITY_39 TIME_0": 3706, "NOTE_ON_80 VELOCITY_40 TIME_0": 3707, "NOTE_ON_80 VELOCITY_40 TIME_1": 3708, "NOTE_ON_80 VELOCITY_41 TIME_0": 3709, "NOTE_ON_80 VELOCITY_41 TIME_1": 3710, "NOTE_ON_80 VELOCITY_42 TIME_0": 3711, "NOTE_ON_80 VELOCITY_42 TIME_1": 3712, "NOTE_ON_80 VELOCITY_43 TIME_0": 3713, "NOTE_ON_80 VELOCITY_43 TIME_1": 3714, "NOTE_ON_80 VELOCITY_44 TIME_0": 3715, "NOTE_ON_80 VELOCITY_44 TIME_1": 3716, "NOTE_ON_80 VELOCITY_46 TIME_0": 3717, "NOTE_ON_80 VELOCITY_50 TIME_1": 3718, "NOTE_ON_80 VELOCITY_53 TIME_0": 3719, "NOTE_ON_80 VELOCITY_9 TIME_0": 3720, "NOTE_ON_81": 3721, "NOTE_ON_81 VELOCITY_10 TIME_0": 3722, "NOTE_ON_81 VELOCITY_10 TIME_1": 3723, "NOTE_ON_81 VELOCITY_11 TIME_0": 3724, "NOTE_ON_81 VELOCITY_11 TIME_1": 3725, "NOTE_ON_81 VELOCITY_12 TIME_0": 3726, "NOTE_ON_81 VELOCITY_12 TIME_3": 3727, "NOTE_ON_81 VELOCITY_13 TIME_0": 3728, "NOTE_ON_81 VELOCITY_14 TIME_0": 3729, "NOTE_ON_81 VELOCITY_14 TIME_1": 3730, "NOTE_ON_81 VELOCITY_14 TIME_2": 3731, "NOTE_ON_81 VELOCITY_14 TIME_3": 3732, "NOTE_ON_81 VELOCITY_15 TIME_0": 3733, "NOTE_ON_81 VELOCITY_15 TIME_2": 3734, "NOTE_ON_81 VELOCITY_16 TIME_0": 3735, "NOTE_ON_81 VELOCITY_17 TIME_0": 3736, "NOTE_ON_81 VELOCITY_17 TIME_1": 3737, "NOTE_ON_81 VELOCITY_17 TIME_3": 3738, "NOTE_ON_81 VELOCITY_18 TIME_0": 3739, "NOTE_ON_81 VELOCITY_19 TIME_0": 3740, "NOTE_ON_81 VELOCITY_20 TIME_0": 3741, "NOTE_ON_81 VELOCITY_21 TIME_0": 3742, "NOTE_ON_81 VELOCITY_21 TIME_1": 3743, "NOTE_ON_81 VELOCITY_22 TIME_0": 3744, "NOTE_ON_81 VELOCITY_23 TIME_0": 3745, "NOTE_ON_81 VELOCITY_23 TIME_1": 3746, "NOTE_ON_81 VELOCITY_24 TIME_0": 3747, "NOTE_ON_81 VELOCITY_24 TIME_1": 3748, "NOTE_ON_81 VELOCITY_25 TIME_0": 3749, "NOTE_ON_81 VELOCITY_25 TIME_1": 3750, "NOTE_ON_81 VELOCITY_26 TIME_0": 3751, "NOTE_ON_81 VELOCITY_26 TIME_1": 3752, "NOTE_ON_81 VELOCITY_27 TIME_0": 3753, "NOTE_ON_81 VELOCITY_27 TIME_1": 3754, "NOTE_ON_81 VELOCITY_28 TIME_0": 3755, "NOTE_ON_81 VELOCITY_28 TIME_1": 3756, "NOTE_ON_81 VELOCITY_29 TIME_0": 3757, "NOTE_ON_81 VELOCITY_29 TIME_1": 3758, "NOTE_ON_81 VELOCITY_30 TIME_0": 3759, "NOTE_ON_81 VELOCITY_30 TIME_1": 3760, "NOTE_ON_81 VELOCITY_30 TIME_3": 3761, "NOTE_ON_81 VELOCITY_31 TIME_0": 3762, "NOTE_ON_81 VELOCITY_32 TIME_0": 3763, "NOTE_ON_81 VELOCITY_32 TIME_1": 3764, "NOTE_ON_81 VELOCITY_33 TIME_0": 3765, "NOTE_ON_81 VELOCITY_33 TIME_1": 3766, "NOTE_ON_81 VELOCITY_34 TIME_0": 3767, "NOTE_ON_81 VELOCITY_35 TIME_0": 3768, "NOTE_ON_81 VELOCITY_35 TIME_1": 3769, "NOTE_ON_81 VELOCITY_36 TIME_0": 3770, "NOTE_ON_81 VELOCITY_36 TIME_1": 3771, "NOTE_ON_81 VELOCITY_37 TIME_0": 3772, "NOTE_ON_81 VELOCITY_38 TIME_0": 3773, "NOTE_ON_81 VELOCITY_38 TIME_1": 3774, "NOTE_ON_81 VELOCITY_39 TIME_0": 3775, "NOTE_ON_81 VELOCITY_39 TIME_1": 3776, "NOTE_ON_81 VELOCITY_40 TIME_0": 3777, "NOTE_ON_81 VELOCITY_40 TIME_1": 3778, "NOTE_ON_81 VELOCITY_41 TIME_0": 3779, "NOTE_ON_81 VELOCITY_41 TIME_1": 3780, "NOTE_ON_81 VELOCITY_42 TIME_0": 3781, "NOTE_ON_81 VELOCITY_42 TIME_1": 3782, "NOTE_ON_81 VELOCITY_43 TIME_0": 3783, "NOTE_ON_81 VELOCITY_43 TIME_1": 3784, "NOTE_ON_81 VELOCITY_44 TIME_0": 3785, "NOTE_ON_81 VELOCITY_45 TIME_0": 3786, "NOTE_ON_81 VELOCITY_45 TIME_6": 3787, "NOTE_ON_81 VELOCITY_46 TIME_0": 3788, "NOTE_ON_81 VELOCITY_47 TIME_0": 3789, "NOTE_ON_81 VELOCITY_48 TIME_0": 3790, "NOTE_ON_81 VELOCITY_49 TIME_0": 3791, "NOTE_ON_81 VELOCITY_51 TIME_0": 3792, "NOTE_ON_81 VELOCITY_51 TIME_1": 3793, "NOTE_ON_81 VELOCITY_53 TIME_0": 3794, "NOTE_ON_81 VELOCITY_54 TIME_0": 3795, "NOTE_ON_81 VELOCITY_57 TIME_0": 3796, "NOTE_ON_81 VELOCITY_58 TIME_0": 3797, "NOTE_ON_81 VELOCITY_63 TIME_0": 3798, "NOTE_ON_81 VELOCITY_67 TIME_0": 3799, "NOTE_ON_81 VELOCITY_70 TIME_0": 3800, "NOTE_ON_81 VELOCITY_9 TIME_0": 3801, "NOTE_ON_81 VELOCITY_9 TIME_1": 3802, "NOTE_ON_81 VELOCITY_9 TIME_3": 3803, "NOTE_ON_82": 3804, "NOTE_ON_82 VELOCITY_10 TIME_0": 3805, "NOTE_ON_82 VELOCITY_10 TIME_1": 3806, "NOTE_ON_82 VELOCITY_11 TIME_0": 3807, "NOTE_ON_82 VELOCITY_11 TIME_1": 3808, "NOTE_ON_82 VELOCITY_12 TIME_0": 3809, "NOTE_ON_82 VELOCITY_12 TIME_1": 3810, "NOTE_ON_82 VELOCITY_12 TIME_2": 3811, "NOTE_ON_82 VELOCITY_13 TIME_0": 3812, "NOTE_ON_82 VELOCITY_13 TIME_1": 3813, "NOTE_ON_82 VELOCITY_14 TIME_0": 3814, "NOTE_ON_82 VELOCITY_14 TIME_1": 3815, "NOTE_ON_82 VELOCITY_15 TIME_0": 3816, "NOTE_ON_82 VELOCITY_15 TIME_1": 3817, "NOTE_ON_82 VELOCITY_15 TIME_3": 3818, "NOTE_ON_82 VELOCITY_16 TIME_0": 3819, "NOTE_ON_82 VELOCITY_16 TIME_1": 3820, "NOTE_ON_82 VELOCITY_17 TIME_0": 3821, "NOTE_ON_82 VELOCITY_17 TIME_1": 3822, "NOTE_ON_82 VELOCITY_18 TIME_0": 3823, "NOTE_ON_82 VELOCITY_19 TIME_0": 3824, "NOTE_ON_82 VELOCITY_19 TIME_3": 3825, "NOTE_ON_82 VELOCITY_20 TIME_0": 3826, "NOTE_ON_82 VELOCITY_20 TIME_1": 3827, "NOTE_ON_82 VELOCITY_21 TIME_0": 3828, "NOTE_ON_82 VELOCITY_22 TIME_0": 3829, "NOTE_ON_82 VELOCITY_22 TIME_1": 3830, "NOTE_ON_82 VELOCITY_23 TIME_0": 3831, "NOTE_ON_82 VELOCITY_23 TIME_3": 3832, "NOTE_ON_82 VELOCITY_24 TIME_0": 3833, "NOTE_ON_82 VELOCITY_25 TIME_0": 3834, "NOTE_ON_82 VELOCITY_26 TIME_0": 3835, "NOTE_ON_82 VELOCITY_26 TIME_1": 3836, "NOTE_ON_82 VELOCITY_27 TIME_0": 3837, "NOTE_ON_82 VELOCITY_28 TIME_0": 3838, "NOTE_ON_82 VELOCITY_28 TIME_1": 3839, "NOTE_ON_82 VELOCITY_29 TIME_0": 3840, "NOTE_ON_82 VELOCITY_30 TIME_0": 3841, "NOTE_ON_82 VELOCITY_31 TIME_0": 3842, "NOTE_ON_82 VELOCITY_32 TIME_0": 3843, "NOTE_ON_82 VELOCITY_33 TIME_0": 3844, "NOTE_ON_82 VELOCITY_34 TIME_0": 3845, "NOTE_ON_82 VELOCITY_35 TIME_1": 3846, "NOTE_ON_82 VELOCITY_36 TIME_1": 3847, "NOTE_ON_82 VELOCITY_37 TIME_0": 3848, "NOTE_ON_82 VELOCITY_37 TIME_1": 3849, "NOTE_ON_82 VELOCITY_43 TIME_1": 3850, "NOTE_ON_82 VELOCITY_45 TIME_0": 3851, "NOTE_ON_82 VELOCITY_9 TIME_0": 3852, "NOTE_ON_83": 3853, "NOTE_ON_83 VELOCITY_10 TIME_0": 3854, "NOTE_ON_83 VELOCITY_10 TIME_1": 3855, "NOTE_ON_83 VELOCITY_11 TIME_0": 3856, "NOTE_ON_83 VELOCITY_11 TIME_1": 3857, "NOTE_ON_83 VELOCITY_11 TIME_2": 3858, "NOTE_ON_83 VELOCITY_11 TIME_4": 3859, "NOTE_ON_83 VELOCITY_12 TIME_0": 3860, "NOTE_ON_83 VELOCITY_12 TIME_1": 3861, "NOTE_ON_83 VELOCITY_12 TIME_5": 3862, "NOTE_ON_83 VELOCITY_13 TIME_0": 3863, "NOTE_ON_83 VELOCITY_14 TIME_0": 3864, "NOTE_ON_83 VELOCITY_15 TIME_0": 3865, "NOTE_ON_83 VELOCITY_15 TIME_1": 3866, "NOTE_ON_83 VELOCITY_15 TIME_4": 3867, "NOTE_ON_83 VELOCITY_16 TIME_0": 3868, "NOTE_ON_83 VELOCITY_16 TIME_1": 3869, "NOTE_ON_83 VELOCITY_17 TIME_0": 3870, "NOTE_ON_83 VELOCITY_17 TIME_1": 3871, "NOTE_ON_83 VELOCITY_18 TIME_0": 3872, "NOTE_ON_83 VELOCITY_18 TIME_1": 3873, "NOTE_ON_83 VELOCITY_19 TIME_0": 3874, "NOTE_ON_83 VELOCITY_19 TIME_1": 3875, "NOTE_ON_83 VELOCITY_20 TIME_0": 3876, "NOTE_ON_83 VELOCITY_20 TIME_1": 3877, "NOTE_ON_83 VELOCITY_21 TIME_0": 3878, "NOTE_ON_83 VELOCITY_22 TIME_0": 3879, "NOTE_ON_83 VELOCITY_23 TIME_0": 3880, "NOTE_ON_83 VELOCITY_23 TIME_3": 3881, "NOTE_ON_83 VELOCITY_24 TIME_0": 3882, "NOTE_ON_83 VELOCITY_24 TIME_1": 3883, "NOTE_ON_83 VELOCITY_25 TIME_0": 3884, "NOTE_ON_83 VELOCITY_25 TIME_1": 3885, "NOTE_ON_83 VELOCITY_26 TIME_0": 3886, "NOTE_ON_83 VELOCITY_26 TIME_1": 3887, "NOTE_ON_83 VELOCITY_26 TIME_2": 3888, "NOTE_ON_83 VELOCITY_27 TIME_0": 3889, "NOTE_ON_83 VELOCITY_28 TIME_0": 3890, "NOTE_ON_83 VELOCITY_28 TIME_1": 3891, "NOTE_ON_83 VELOCITY_29 TIME_0": 3892, "NOTE_ON_83 VELOCITY_29 TIME_1": 3893, "NOTE_ON_83 VELOCITY_30 TIME_0": 3894, "NOTE_ON_83 VELOCITY_30 TIME_1": 3895, "NOTE_ON_83 VELOCITY_31 TIME_0": 3896, "NOTE_ON_83 VELOCITY_32 TIME_0": 3897, "NOTE_ON_83 VELOCITY_32 TIME_1": 3898, "NOTE_ON_83 VELOCITY_33 TIME_0": 3899, "NOTE_ON_83 VELOCITY_33 TIME_1": 3900, "NOTE_ON_83 VELOCITY_34 TIME_0": 3901, "NOTE_ON_83 VELOCITY_34 TIME_1": 3902, "NOTE_ON_83 VELOCITY_35 TIME_0": 3903, "NOTE_ON_83 VELOCITY_35 TIME_1": 3904, "NOTE_ON_83 VELOCITY_36 TIME_0": 3905, "NOTE_ON_83 VELOCITY_37 TIME_0": 3906, "NOTE_ON_83 VELOCITY_38 TIME_0": 3907, "NOTE_ON_83 VELOCITY_38 TIME_1": 3908, "NOTE_ON_83 VELOCITY_39 TIME_0": 3909, "NOTE_ON_83 VELOCITY_40 TIME_0": 3910, "NOTE_ON_83 VELOCITY_40 TIME_1": 3911, "NOTE_ON_83 VELOCITY_41 TIME_0": 3912, "NOTE_ON_83 VELOCITY_41 TIME_1": 3913, "NOTE_ON_83 VELOCITY_42 TIME_0": 3914, "NOTE_ON_83 VELOCITY_43 TIME_0": 3915, "NOTE_ON_83 VELOCITY_44 TIME_0": 3916, "NOTE_ON_83 VELOCITY_46 TIME_0": 3917, "NOTE_ON_83 VELOCITY_47 TIME_0": 3918, "NOTE_ON_83 VELOCITY_48 TIME_0": 3919, "NOTE_ON_83 VELOCITY_49 TIME_0": 3920, "NOTE_ON_83 VELOCITY_49 TIME_3": 3921, "NOTE_ON_83 VELOCITY_50 TIME_0": 3922, "NOTE_ON_83 VELOCITY_51 TIME_0": 3923, "NOTE_ON_83 VELOCITY_52 TIME_0": 3924, "NOTE_ON_83 VELOCITY_52 TIME_1": 3925, "NOTE_ON_83 VELOCITY_56 TIME_0": 3926, "NOTE_ON_83 VELOCITY_57 TIME_0": 3927, "NOTE_ON_83 VELOCITY_9 TIME_0": 3928, "NOTE_ON_83 VELOCITY_9 TIME_1": 3929, "NOTE_ON_84": 3930, "NOTE_ON_84 VELOCITY_10 TIME_0": 3931, "NOTE_ON_84 VELOCITY_10 TIME_4": 3932, "NOTE_ON_84 VELOCITY_11 TIME_0": 3933, "NOTE_ON_84 VELOCITY_12 TIME_0": 3934, "NOTE_ON_84 VELOCITY_13 TIME_0": 3935, "NOTE_ON_84 VELOCITY_13 TIME_1": 3936, "NOTE_ON_84 VELOCITY_14 TIME_0": 3937, "NOTE_ON_84 VELOCITY_14 TIME_1": 3938, "NOTE_ON_84 VELOCITY_15 TIME_0": 3939, "NOTE_ON_84 VELOCITY_15 TIME_1": 3940, "NOTE_ON_84 VELOCITY_16 TIME_0": 3941, "NOTE_ON_84 VELOCITY_16 TIME_1": 3942, "NOTE_ON_84 VELOCITY_17 TIME_0": 3943, "NOTE_ON_84 VELOCITY_17 TIME_1": 3944, "NOTE_ON_84 VELOCITY_17 TIME_3": 3945, "NOTE_ON_84 VELOCITY_18 TIME_0": 3946, "NOTE_ON_84 VELOCITY_18 TIME_1": 3947, "NOTE_ON_84 VELOCITY_19 TIME_0": 3948, "NOTE_ON_84 VELOCITY_19 TIME_1": 3949, "NOTE_ON_84 VELOCITY_19 TIME_2": 3950, "NOTE_ON_84 VELOCITY_20 TIME_0": 3951, "NOTE_ON_84 VELOCITY_20 TIME_2": 3952, "NOTE_ON_84 VELOCITY_21 TIME_0": 3953, "NOTE_ON_84 VELOCITY_21 TIME_1": 3954, "NOTE_ON_84 VELOCITY_22 TIME_0": 3955, "NOTE_ON_84 VELOCITY_22 TIME_1": 3956, "NOTE_ON_84 VELOCITY_23 TIME_0": 3957, "NOTE_ON_84 VELOCITY_23 TIME_1": 3958, "NOTE_ON_84 VELOCITY_24 TIME_0": 3959, "NOTE_ON_84 VELOCITY_24 TIME_1": 3960, "NOTE_ON_84 VELOCITY_24 TIME_2": 3961, "NOTE_ON_84 VELOCITY_25 TIME_0": 3962, "NOTE_ON_84 VELOCITY_25 TIME_1": 3963, "NOTE_ON_84 VELOCITY_26 TIME_0": 3964, "NOTE_ON_84 VELOCITY_27 TIME_0": 3965, "NOTE_ON_84 VELOCITY_27 TIME_1": 3966, "NOTE_ON_84 VELOCITY_27 TIME_2": 3967, "NOTE_ON_84 VELOCITY_28 TIME_0": 3968, "NOTE_ON_84 VELOCITY_28 TIME_1": 3969, "NOTE_ON_84 VELOCITY_29 TIME_0": 3970, "NOTE_ON_84 VELOCITY_29 TIME_1": 3971, "NOTE_ON_84 VELOCITY_30 TIME_0": 3972, "NOTE_ON_84 VELOCITY_30 TIME_1": 3973, "NOTE_ON_84 VELOCITY_31 TIME_0": 3974, "NOTE_ON_84 VELOCITY_32 TIME_0": 3975, "NOTE_ON_84 VELOCITY_32 TIME_1": 3976, "NOTE_ON_84 VELOCITY_33 TIME_0": 3977, "NOTE_ON_84 VELOCITY_33 TIME_1": 3978, "NOTE_ON_84 VELOCITY_34 TIME_0": 3979, "NOTE_ON_84 VELOCITY_35 TIME_0": 3980, "NOTE_ON_84 VELOCITY_36 TIME_0": 3981, "NOTE_ON_84 VELOCITY_37 TIME_0": 3982, "NOTE_ON_84 VELOCITY_37 TIME_1": 3983, "NOTE_ON_84 VELOCITY_38 TIME_0": 3984, "NOTE_ON_84 VELOCITY_39 TIME_0": 3985, "NOTE_ON_84 VELOCITY_40 TIME_0": 3986, "NOTE_ON_84 VELOCITY_41 TIME_0": 3987, "NOTE_ON_84 VELOCITY_41 TIME_1": 3988, "NOTE_ON_84 VELOCITY_42 TIME_0": 3989, "NOTE_ON_84 VELOCITY_43 TIME_0": 3990, "NOTE_ON_84 VELOCITY_43 TIME_1": 3991, "NOTE_ON_84 VELOCITY_44 TIME_0": 3992, "NOTE_ON_84 VELOCITY_47 TIME_0": 3993, "NOTE_ON_84 VELOCITY_48 TIME_0": 3994, "NOTE_ON_84 VELOCITY_49 TIME_0": 3995, "NOTE_ON_84 VELOCITY_50 TIME_1": 3996, "NOTE_ON_84 VELOCITY_52 TIME_0": 3997, "NOTE_ON_84 VELOCITY_53 TIME_0": 3998, "NOTE_ON_84 VELOCITY_53 TIME_2": 3999, "NOTE_ON_84 VELOCITY_54 TIME_1": 4000, "NOTE_ON_84 VELOCITY_55 TIME_0": 4001, "NOTE_ON_84 VELOCITY_56 TIME_0": 4002, "NOTE_ON_84 VELOCITY_58 TIME_0": 4003, "NOTE_ON_84 VELOCITY_59 TIME_0": 4004, "NOTE_ON_84 VELOCITY_61 TIME_0": 4005, "NOTE_ON_84 VELOCITY_64 TIME_0": 4006, "NOTE_ON_84 VELOCITY_9 TIME_0": 4007, "NOTE_ON_84 VELOCITY_9 TIME_1": 4008, "NOTE_ON_85": 4009, "NOTE_ON_85 VELOCITY_10 TIME_0": 4010, "NOTE_ON_85 VELOCITY_10 TIME_2": 4011, "NOTE_ON_85 VELOCITY_11 TIME_0": 4012, "NOTE_ON_85 VELOCITY_11 TIME_1": 4013, "NOTE_ON_85 VELOCITY_12 TIME_0": 4014, "NOTE_ON_85 VELOCITY_13 TIME_0": 4015, "NOTE_ON_85 VELOCITY_13 TIME_1": 4016, "NOTE_ON_85 VELOCITY_14 TIME_0": 4017, "NOTE_ON_85 VELOCITY_15 TIME_0": 4018, "NOTE_ON_85 VELOCITY_15 TIME_2": 4019, "NOTE_ON_85 VELOCITY_15 TIME_4": 4020, "NOTE_ON_85 VELOCITY_16 TIME_0": 4021, "NOTE_ON_85 VELOCITY_16 TIME_1": 4022, "NOTE_ON_85 VELOCITY_17 TIME_0": 4023, "NOTE_ON_85 VELOCITY_18 TIME_0": 4024, "NOTE_ON_85 VELOCITY_18 TIME_1": 4025, "NOTE_ON_85 VELOCITY_18 TIME_3": 4026, "NOTE_ON_85 VELOCITY_19 TIME_0": 4027, "NOTE_ON_85 VELOCITY_19 TIME_1": 4028, "NOTE_ON_85 VELOCITY_19 TIME_2": 4029, "NOTE_ON_85 VELOCITY_20 TIME_0": 4030, "NOTE_ON_85 VELOCITY_21 TIME_0": 4031, "NOTE_ON_85 VELOCITY_22 TIME_0": 4032, "NOTE_ON_85 VELOCITY_22 TIME_1": 4033, "NOTE_ON_85 VELOCITY_23 TIME_0": 4034, "NOTE_ON_85 VELOCITY_23 TIME_1": 4035, "NOTE_ON_85 VELOCITY_24 TIME_0": 4036, "NOTE_ON_85 VELOCITY_24 TIME_1": 4037, "NOTE_ON_85 VELOCITY_25 TIME_0": 4038, "NOTE_ON_85 VELOCITY_25 TIME_1": 4039, "NOTE_ON_85 VELOCITY_26 TIME_0": 4040, "NOTE_ON_85 VELOCITY_26 TIME_1": 4041, "NOTE_ON_85 VELOCITY_26 TIME_2": 4042, "NOTE_ON_85 VELOCITY_27 TIME_0": 4043, "NOTE_ON_85 VELOCITY_27 TIME_1": 4044, "NOTE_ON_85 VELOCITY_28 TIME_0": 4045, "NOTE_ON_85 VELOCITY_28 TIME_1": 4046, "NOTE_ON_85 VELOCITY_29 TIME_0": 4047, "NOTE_ON_85 VELOCITY_30 TIME_0": 4048, "NOTE_ON_85 VELOCITY_30 TIME_1": 4049, "NOTE_ON_85 VELOCITY_31 TIME_0": 4050, "NOTE_ON_85 VELOCITY_33 TIME_0": 4051, "NOTE_ON_85 VELOCITY_34 TIME_0": 4052, "NOTE_ON_85 VELOCITY_35 TIME_0": 4053, "NOTE_ON_85 VELOCITY_35 TIME_1": 4054, "NOTE_ON_85 VELOCITY_36 TIME_0": 4055, "NOTE_ON_85 VELOCITY_36 TIME_1": 4056, "NOTE_ON_85 VELOCITY_37 TIME_0": 4057, "NOTE_ON_85 VELOCITY_39 TIME_0": 4058, "NOTE_ON_85 VELOCITY_40 TIME_0": 4059, "NOTE_ON_85 VELOCITY_40 TIME_1": 4060, "NOTE_ON_85 VELOCITY_41 TIME_0": 4061, "NOTE_ON_85 VELOCITY_42 TIME_0": 4062, "NOTE_ON_85 VELOCITY_43 TIME_1": 4063, "NOTE_ON_85 VELOCITY_44 TIME_0": 4064, "NOTE_ON_85 VELOCITY_44 TIME_1": 4065, "NOTE_ON_85 VELOCITY_45 TIME_0": 4066, "NOTE_ON_85 VELOCITY_48 TIME_0": 4067, "NOTE_ON_85 VELOCITY_49 TIME_0": 4068, "NOTE_ON_85 VELOCITY_50 TIME_0": 4069, "NOTE_ON_85 VELOCITY_51 TIME_0": 4070, "NOTE_ON_85 VELOCITY_51 TIME_1": 4071, "NOTE_ON_85 VELOCITY_54 TIME_1": 4072, "NOTE_ON_85 VELOCITY_55 TIME_0": 4073, "NOTE_ON_85 VELOCITY_57 TIME_0": 4074, "NOTE_ON_85 VELOCITY_59 TIME_0": 4075, "NOTE_ON_85 VELOCITY_9 TIME_0": 4076, "NOTE_ON_85 VELOCITY_9 TIME_1": 4077, "NOTE_ON_85 VELOCITY_9 TIME_3": 4078, "NOTE_ON_86": 4079, "NOTE_ON_86 VELOCITY_10 TIME_0": 4080, "NOTE_ON_86 VELOCITY_10 TIME_1": 4081, "NOTE_ON_86 VELOCITY_11 TIME_0": 4082, "NOTE_ON_86 VELOCITY_12 TIME_0": 4083, "NOTE_ON_86 VELOCITY_12 TIME_1": 4084, "NOTE_ON_86 VELOCITY_13 TIME_0": 4085, "NOTE_ON_86 VELOCITY_13 TIME_1": 4086, "NOTE_ON_86 VELOCITY_14 TIME_0": 4087, "NOTE_ON_86 VELOCITY_15 TIME_0": 4088, "NOTE_ON_86 VELOCITY_15 TIME_1": 4089, "NOTE_ON_86 VELOCITY_16 TIME_0": 4090, "NOTE_ON_86 VELOCITY_17 TIME_0": 4091, "NOTE_ON_86 VELOCITY_18 TIME_0": 4092, "NOTE_ON_86 VELOCITY_19 TIME_0": 4093, "NOTE_ON_86 VELOCITY_20 TIME_0": 4094, "NOTE_ON_86 VELOCITY_20 TIME_1": 4095, "NOTE_ON_86 VELOCITY_21 TIME_0": 4096, "NOTE_ON_86 VELOCITY_22 TIME_0": 4097, "NOTE_ON_86 VELOCITY_22 TIME_1": 4098, "NOTE_ON_86 VELOCITY_23 TIME_0": 4099, "NOTE_ON_86 VELOCITY_24 TIME_0": 4100, "NOTE_ON_86 VELOCITY_24 TIME_1": 4101, "NOTE_ON_86 VELOCITY_26 TIME_0": 4102, "NOTE_ON_86 VELOCITY_27 TIME_0": 4103, "NOTE_ON_86 VELOCITY_27 TIME_1": 4104, "NOTE_ON_86 VELOCITY_29 TIME_0": 4105, "NOTE_ON_86 VELOCITY_32 TIME_0": 4106, "NOTE_ON_86 VELOCITY_32 TIME_1": 4107, "NOTE_ON_86 VELOCITY_33 TIME_0": 4108, "NOTE_ON_86 VELOCITY_34 TIME_0": 4109, "NOTE_ON_86 VELOCITY_35 TIME_0": 4110, "NOTE_ON_86 VELOCITY_36 TIME_0": 4111, "NOTE_ON_86 VELOCITY_39 TIME_0": 4112, "NOTE_ON_86 VELOCITY_40 TIME_0": 4113, "NOTE_ON_86 VELOCITY_42 TIME_0": 4114, "NOTE_ON_86 VELOCITY_57 TIME_0": 4115, "NOTE_ON_86 VELOCITY_9 TIME_0": 4116, "NOTE_ON_86 VELOCITY_9 TIME_1": 4117, "NOTE_ON_87": 4118, "NOTE_ON_87 VELOCITY_10 TIME_1": 4119, "NOTE_ON_87 VELOCITY_11 TIME_0": 4120, "NOTE_ON_87 VELOCITY_11 TIME_1": 4121, "NOTE_ON_87 VELOCITY_12 TIME_0": 4122, "NOTE_ON_87 VELOCITY_12 TIME_1": 4123, "NOTE_ON_87 VELOCITY_13 TIME_0": 4124, "NOTE_ON_87 VELOCITY_14 TIME_0": 4125, "NOTE_ON_87 VELOCITY_15 TIME_2": 4126, "NOTE_ON_87 VELOCITY_18 TIME_0": 4127, "NOTE_ON_87 VELOCITY_19 TIME_0": 4128, "NOTE_ON_87 VELOCITY_20 TIME_0": 4129, "NOTE_ON_87 VELOCITY_21 TIME_0": 4130, "NOTE_ON_87 VELOCITY_21 TIME_1": 4131, "NOTE_ON_87 VELOCITY_23 TIME_0": 4132, "NOTE_ON_87 VELOCITY_25 TIME_0": 4133, "NOTE_ON_87 VELOCITY_27 TIME_0": 4134, "NOTE_ON_87 VELOCITY_28 TIME_0": 4135, "NOTE_ON_87 VELOCITY_31 TIME_0": 4136, "NOTE_ON_87 VELOCITY_34 TIME_0": 4137, "NOTE_ON_87 VELOCITY_9 TIME_0": 4138, "NOTE_ON_88": 4139, "NOTE_ON_88 VELOCITY_10 TIME_0": 4140, "NOTE_ON_88 VELOCITY_12 TIME_0": 4141, "NOTE_ON_88 VELOCITY_13 TIME_0": 4142, "NOTE_ON_88 VELOCITY_15 TIME_0": 4143, "NOTE_ON_88 VELOCITY_16 TIME_0": 4144, "NOTE_ON_88 VELOCITY_18 TIME_0": 4145, "NOTE_ON_88 VELOCITY_20 TIME_0": 4146, "NOTE_ON_88 VELOCITY_25 TIME_0": 4147, "NOTE_ON_88 VELOCITY_27 TIME_0": 4148, "NOTE_ON_88 VELOCITY_32 TIME_1": 4149, "NOTE_ON_88 VELOCITY_35 TIME_0": 4150, "NOTE_ON_89": 4151, "NOTE_ON_89 VELOCITY_10 TIME_0": 4152, "NOTE_ON_89 VELOCITY_10 TIME_1": 4153, "NOTE_ON_89 VELOCITY_11 TIME_0": 4154, "NOTE_ON_89 VELOCITY_12 TIME_0": 4155, "NOTE_ON_89 VELOCITY_13 TIME_0": 4156, "NOTE_ON_89 VELOCITY_14 TIME_0": 4157, "NOTE_ON_89 VELOCITY_15 TIME_0": 4158, "NOTE_ON_89 VELOCITY_16 TIME_0": 4159, "NOTE_ON_89 VELOCITY_17 TIME_0": 4160, "NOTE_ON_89 VELOCITY_17 TIME_1": 4161, "NOTE_ON_89 VELOCITY_17 TIME_2": 4162, "NOTE_ON_89 VELOCITY_18 TIME_0": 4163, "NOTE_ON_89 VELOCITY_19 TIME_0": 4164, "NOTE_ON_89 VELOCITY_20 TIME_1": 4165, "NOTE_ON_89 VELOCITY_21 TIME_0": 4166, "NOTE_ON_89 VELOCITY_23 TIME_0": 4167, "NOTE_ON_89 VELOCITY_24 TIME_0": 4168, "NOTE_ON_89 VELOCITY_25 TIME_1": 4169, "NOTE_ON_89 VELOCITY_28 TIME_0": 4170, "NOTE_ON_89 VELOCITY_29 TIME_0": 4171, "NOTE_ON_89 VELOCITY_30 TIME_2": 4172, "NOTE_ON_89 VELOCITY_31 TIME_0": 4173, "NOTE_ON_89 VELOCITY_35 TIME_2": 4174, "NOTE_ON_89 VELOCITY_9 TIME_0": 4175, "NOTE_ON_90": 4176, "NOTE_ON_90 VELOCITY_10 TIME_0": 4177, "NOTE_ON_90 VELOCITY_10 TIME_1": 4178, "NOTE_ON_90 VELOCITY_10 TIME_2": 4179, "NOTE_ON_90 VELOCITY_11 TIME_0": 4180, "NOTE_ON_90 VELOCITY_12 TIME_0": 4181, "NOTE_ON_90 VELOCITY_13 TIME_0": 4182, "NOTE_ON_90 VELOCITY_14 TIME_0": 4183, "NOTE_ON_90 VELOCITY_15 TIME_0": 4184, "NOTE_ON_90 VELOCITY_15 TIME_1": 4185, "NOTE_ON_90 VELOCITY_16 TIME_0": 4186, "NOTE_ON_90 VELOCITY_16 TIME_1": 4187, "NOTE_ON_90 VELOCITY_17 TIME_0": 4188, "NOTE_ON_90 VELOCITY_18 TIME_0": 4189, "NOTE_ON_90 VELOCITY_18 TIME_1": 4190, "NOTE_ON_90 VELOCITY_19 TIME_0": 4191, "NOTE_ON_90 VELOCITY_20 TIME_0": 4192, "NOTE_ON_90 VELOCITY_21 TIME_0": 4193, "NOTE_ON_90 VELOCITY_21 TIME_1": 4194, "NOTE_ON_90 VELOCITY_22 TIME_0": 4195, "NOTE_ON_90 VELOCITY_22 TIME_1": 4196, "NOTE_ON_90 VELOCITY_24 TIME_0": 4197, "NOTE_ON_90 VELOCITY_25 TIME_0": 4198, "NOTE_ON_90 VELOCITY_25 TIME_1": 4199, "NOTE_ON_90 VELOCITY_26 TIME_1": 4200, "NOTE_ON_90 VELOCITY_27 TIME_0": 4201, "NOTE_ON_90 VELOCITY_28 TIME_0": 4202, "NOTE_ON_90 VELOCITY_33 TIME_1": 4203, "NOTE_ON_90 VELOCITY_49 TIME_0": 4204, "NOTE_ON_90 VELOCITY_9 TIME_0": 4205, "NOTE_ON_91": 4206, "NOTE_ON_91 VELOCITY_11 TIME_0": 4207, "NOTE_ON_91 VELOCITY_12 TIME_0": 4208, "NOTE_ON_91 VELOCITY_13 TIME_0": 4209, "NOTE_ON_91 VELOCITY_14 TIME_0": 4210, "NOTE_ON_91 VELOCITY_15 TIME_0": 4211, "NOTE_ON_91 VELOCITY_15 TIME_1": 4212, "NOTE_ON_91 VELOCITY_15 TIME_3": 4213, "NOTE_ON_91 VELOCITY_18 TIME_0": 4214, "NOTE_ON_91 VELOCITY_20 TIME_0": 4215, "NOTE_ON_91 VELOCITY_21 TIME_0": 4216, "NOTE_ON_91 VELOCITY_22 TIME_2": 4217, "NOTE_ON_91 VELOCITY_30 TIME_0": 4218, "NOTE_ON_92": 4219, "NOTE_ON_92 VELOCITY_13 TIME_3": 4220, "NOTE_ON_92 VELOCITY_9 TIME_0": 4221, "NOTE_ON_93": 4222, "NOTE_ON_93 VELOCITY_10 TIME_0": 4223, "NOTE_ON_93 VELOCITY_12 TIME_1": 4224, "NOTE_ON_93 VELOCITY_14 TIME_0": 4225, "NOTE_ON_93 VELOCITY_16 TIME_0": 4226, "NOTE_ON_93 VELOCITY_17 TIME_1": 4227, "NOTE_ON_93 VELOCITY_18 TIME_1": 4228, "NOTE_ON_93 VELOCITY_9 TIME_0": 4229, "NOTE_ON_94": 4230, "NOTE_ON_94 VELOCITY_13 TIME_0": 4231, "NOTE_ON_94 VELOCITY_17 TIME_0": 4232, "NOTE_ON_94 VELOCITY_19 TIME_0": 4233, "NOTE_ON_94 VELOCITY_22 TIME_3": 4234, "NOTE_ON_95": 4235, "NOTE_ON_95 VELOCITY_10 TIME_0": 4236, "NOTE_ON_95 VELOCITY_10 TIME_1": 4237, "NOTE_ON_95 VELOCITY_13 TIME_2": 4238, "NOTE_ON_95 VELOCITY_14 TIME_0": 4239, "NOTE_ON_95 VELOCITY_14 TIME_1": 4240, "NOTE_ON_97": 4241, "NOTE_ON_97 VELOCITY_10 TIME_0": 4242, "NOTE_ON_97 VELOCITY_12 TIME_1": 4243, "NOTE_ON_97 VELOCITY_14 TIME_4": 4244, "NOTE_ON_97 VELOCITY_9 TIME_0": 4245, "NOTE_ON_98": 4246, "NOTE_ON_98 VELOCITY_10 TIME_0": 4247, "NOTE_ON_98 VELOCITY_10 TIME_1": 4248, "NOTE_ON_98 VELOCITY_14 TIME_0": 4249, "NOTE_ON_98 VELOCITY_15 TIME_1": 4250, "NOTE_ON_98 VELOCITY_17 TIME_0": 4251, "NOTE_ON_98 VELOCITY_21 TIME_0": 4252, "NOTE_ON_98 VELOCITY_9 TIME_0": 4253, "NOTE_ON_99": 4254, "NOTE_ON_99 VELOCITY_10 TIME_0": 4255, "NOTE_ON_99 VELOCITY_11 TIME_0": 4256, "NOTE_ON_99 VELOCITY_14 TIME_0": 4257, "NOTE_ON_99 VELOCITY_17 TIME_0": 4258, "NOTE_ON_99 VELOCITY_17 TIME_1": 4259, "NOTE_ON_99 VELOCITY_18 TIME_0": 4260, "NOTE_ON_99 VELOCITY_9 TIME_0": 4261, "TIME_0": 4262, "TIME_1": 4263, "TIME_10": 4264, "TIME_11": 4265, "TIME_12": 4266, "TIME_13": 4267, "TIME_14": 4268, "TIME_15": 4269, "TIME_16": 4270, "TIME_17": 4271, "TIME_18": 4272, "TIME_19": 4273, "TIME_2": 4274, "TIME_20": 4275, "TIME_21": 4276, "TIME_22": 4277, "TIME_23": 4278, "TIME_26": 4279, "TIME_28": 4280, "TIME_29": 4281, "TIME_3": 4282, "TIME_31": 4283, "TIME_32": 4284, "TIME_36": 4285, "TIME_37": 4286, "TIME_4": 4287, "TIME_41": 4288, "TIME_42": 4289, "TIME_44": 4290, "TIME_5": 4291, "TIME_6": 4292, "TIME_65": 4293, "TIME_66": 4294, "TIME_7": 4295, "TIME_8": 4296, "TIME_9": 4297, "VELOCITY_10": 4298, "VELOCITY_11": 4299, "VELOCITY_12": 4300, "VELOCITY_13": 4301, "VELOCITY_14": 4302, "VELOCITY_15": 4303, "VELOCITY_16": 4304, "VELOCITY_17": 4305, "VELOCITY_18": 4306, "VELOCITY_19": 4307, "VELOCITY_20": 4308, "VELOCITY_21": 4309, "VELOCITY_22": 4310, "VELOCITY_23": 4311, "VELOCITY_24": 4312, "VELOCITY_25": 4313, "VELOCITY_26": 4314, "VELOCITY_27": 4315, "VELOCITY_28": 4316, "VELOCITY_29": 4317, "VELOCITY_30": 4318, "VELOCITY_31": 4319, "VELOCITY_32": 4320, "VELOCITY_33": 4321, "VELOCITY_34": 4322, "VELOCITY_35": 4323, "VELOCITY_36": 4324, "VELOCITY_37": 4325, "VELOCITY_38": 4326, "VELOCITY_39": 4327, "VELOCITY_40": 4328, "VELOCITY_41": 4329, "VELOCITY_42": 4330, "VELOCITY_43": 4331, "VELOCITY_44": 4332, "VELOCITY_45": 4333, "VELOCITY_46": 4334, "VELOCITY_47": 4335, "VELOCITY_48": 4336, "VELOCITY_49": 4337, "VELOCITY_50": 4338, "VELOCITY_51": 4339, "VELOCITY_52": 4340, "VELOCITY_53": 4341, "VELOCITY_54": 4342, "VELOCITY_55": 4343, "VELOCITY_56": 4344, "VELOCITY_57": 4345, "VELOCITY_58": 4346, "VELOCITY_59": 4347, "VELOCITY_60": 4348, "VELOCITY_61": 4349, "VELOCITY_62": 4350, "VELOCITY_63": 4351, "VELOCITY_64": 4352, "VELOCITY_65": 4353, "VELOCITY_66": 4354, "VELOCITY_67": 4355, "VELOCITY_68": 4356, "VELOCITY_69": 4357, "VELOCITY_70": 4358, "VELOCITY_71": 4359, "VELOCITY_72": 4360, "VELOCITY_74": 4361, "VELOCITY_81": 4362, "VELOCITY_9": 4363}